<ttFont>
    <TTGlyph name=".notdef" xMin="68" yMin="0" xMax="612" yMax="1365">
      <contour>
        <pt x="68" y="0" on="1"/>
        <pt x="68" y="1365" on="1"/>
        <pt x="612" y="1365" on="1"/>
        <pt x="612" y="0" on="1"/>
      </contour>
      <contour>
        <pt x="136" y="68" on="1"/>
        <pt x="544" y="68" on="1"/>
        <pt x="544" y="1297" on="1"/>
        <pt x="136" y="1297" on="1"/>
      </contour>
    </TTGlyph>
    <TTGlyph name="A" xMin="42" yMin="0" xMax="1408" yMax="1438">
      <contour>
        <pt x="865" y="1438" on="1"/>
        <pt x="1408" y="0" on="1"/>
        <pt x="1126" y="0" on="1"/>
        <pt x="962" y="442" on="1"/>
        <pt x="488" y="442" on="1"/>
        <pt x="324" y="0" on="1"/>
        <pt x="42" y="0" on="1"/>
        <pt x="585" y="1438" on="1"/>
      </contour>
      <contour>
        <pt x="725" y="1141" on="1"/>
        <pt x="562" y="643" on="1"/>
        <pt x="888" y="643" on="1"/>
      </contour>
    </TTGlyph>
    <TTGlyph name="AE" xMin="0" yMin="0" xMax="1751" yMax="1438">
      <contour>
        <pt x="1730" y="1438" on="1"/>
        <pt x="1730" y="1230" on="1"/>
        <pt x="1149" y="1230" on="1"/>
        <pt x="1149" y="906" on="1"/>
        <pt x="1560" y="906" on="1"/>
        <pt x="1560" y="698" on="1"/>
        <pt x="1149" y="698" on="1"/>
        <pt x="1149" y="208" on="1"/>
        <pt x="1751" y="208" on="1"/>
        <pt x="1751" y="0" on="1"/>
        <pt x="870" y="0" on="1"/>
        <pt x="870" y="442" on="1"/>
        <pt x="550" y="442" on="1"/>
        <pt x="318" y="0" on="1"/>
        <pt x="0" y="0" on="1"/>
        <pt x="794" y="1438" on="1"/>
      </contour>
      <contour>
        <pt x="870" y="1050" on="1"/>
        <pt x="655" y="642" on="1"/>
        <pt x="870" y="642" on="1"/>
      </contour>
    </TTGlyph>
    <TTGlyph name="Aacute" xMin="42" yMin="0" xMax="1408" yMax="2064">
      <contour>
        <pt x="693" y="2009" on="1"/>
        <pt x="729" y="2035" on="0"/>
        <pt x="814" y="2064" on="0"/>
        <pt x="854" y="2064" on="1"/>
        <pt x="882" y="2064" on="0"/>
        <pt x="932" y="2049" on="0"/>
        <pt x="970" y="2017" on="0"/>
        <pt x="992" y="1970" on="0"/>
        <pt x="992" y="1938" on="1"/>
        <pt x="992" y="1900" on="0"/>
        <pt x="970" y="1831" on="0"/>
        <pt x="925" y="1751" on="0"/>
        <pt x="857" y="1649" on="0"/>
        <pt x="812" y="1578" on="1"/>
        <pt x="656" y="1578" on="1"/>
        <pt x="751" y="1840" on="1"/>
      </contour>
      <contour>
        <pt x="865" y="1438" on="1"/>
        <pt x="1408" y="0" on="1"/>
        <pt x="1126" y="0" on="1"/>
        <pt x="962" y="442" on="1"/>
        <pt x="488" y="442" on="1"/>
        <pt x="324" y="0" on="1"/>
        <pt x="42" y="0" on="1"/>
        <pt x="585" y="1438" on="1"/>
      </contour>
      <contour>
        <pt x="725" y="1141" on="1"/>
        <pt x="562" y="643" on="1"/>
        <pt x="888" y="643" on="1"/>
      </contour>
    </TTGlyph>
    <TTGlyph name="Abreve" xMin="42" yMin="0" xMax="1408" yMax="1904">
      <contour>
        <pt x="1055" y="1904" on="1"/>
        <pt x="1037" y="1759" on="0"/>
        <pt x="870" y="1605" on="0"/>
        <pt x="727" y="1605" on="1"/>
        <pt x="584" y="1605" on="0"/>
        <pt x="417" y="1759" on="0"/>
        <pt x="399" y="1904" on="1"/>
        <pt x="499" y="1904" on="1"/>
        <pt x="535" y="1829" on="0"/>
        <pt x="649" y="1771" on="0"/>
        <pt x="727" y="1771" on="1"/>
        <pt x="805" y="1771" on="0"/>
        <pt x="919" y="1829" on="0"/>
        <pt x="955" y="1904" on="1"/>
      </contour>
      <contour>
        <pt x="865" y="1438" on="1"/>
        <pt x="1408" y="0" on="1"/>
        <pt x="1126" y="0" on="1"/>
        <pt x="962" y="442" on="1"/>
        <pt x="488" y="442" on="1"/>
        <pt x="324" y="0" on="1"/>
        <pt x="42" y="0" on="1"/>
        <pt x="585" y="1438" on="1"/>
      </contour>
      <contour>
        <pt x="725" y="1141" on="1"/>
        <pt x="562" y="643" on="1"/>
        <pt x="888" y="643" on="1"/>
      </contour>
    </TTGlyph>
    <TTGlyph name="Acircumflex" xMin="42" yMin="0" xMax="1408" yMax="1919">
      <contour>
        <pt x="727" y="1919" on="1"/>
        <pt x="1058" y="1665" on="1"/>
        <pt x="983" y="1578" on="1"/>
        <pt x="727" y="1689" on="1"/>
        <pt x="471" y="1578" on="1"/>
        <pt x="396" y="1665" on="1"/>
      </contour>
      <contour>
        <pt x="865" y="1438" on="1"/>
        <pt x="1408" y="0" on="1"/>
        <pt x="1126" y="0" on="1"/>
        <pt x="962" y="442" on="1"/>
        <pt x="488" y="442" on="1"/>
        <pt x="324" y="0" on="1"/>
        <pt x="42" y="0" on="1"/>
        <pt x="585" y="1438" on="1"/>
      </contour>
      <contour>
        <pt x="725" y="1141" on="1"/>
        <pt x="562" y="643" on="1"/>
        <pt x="888" y="643" on="1"/>
      </contour>
    </TTGlyph>
    <TTGlyph name="Adieresis" xMin="42" yMin="0" xMax="1408" yMax="1853">
      <contour>
        <pt x="488" y="1853" on="1"/>
        <pt x="516" y="1853" on="0"/>
        <pt x="566" y="1831" on="0"/>
        <pt x="604" y="1793" on="0"/>
        <pt x="626" y="1743" on="0"/>
        <pt x="626" y="1715" on="1"/>
        <pt x="626" y="1686" on="0"/>
        <pt x="604" y="1635" on="0"/>
        <pt x="567" y="1597" on="0"/>
        <pt x="516" y="1575" on="0"/>
        <pt x="488" y="1575" on="1"/>
        <pt x="459" y="1575" on="0"/>
        <pt x="407" y="1597" on="0"/>
        <pt x="368" y="1635" on="0"/>
        <pt x="346" y="1686" on="0"/>
        <pt x="346" y="1715" on="1"/>
        <pt x="346" y="1743" on="0"/>
        <pt x="368" y="1794" on="0"/>
        <pt x="407" y="1831" on="0"/>
        <pt x="459" y="1853" on="0"/>
      </contour>
      <contour>
        <pt x="970" y="1853" on="1"/>
        <pt x="998" y="1853" on="0"/>
        <pt x="1048" y="1831" on="0"/>
        <pt x="1086" y="1793" on="0"/>
        <pt x="1108" y="1743" on="0"/>
        <pt x="1108" y="1715" on="1"/>
        <pt x="1108" y="1686" on="0"/>
        <pt x="1086" y="1635" on="0"/>
        <pt x="1049" y="1597" on="0"/>
        <pt x="998" y="1575" on="0"/>
        <pt x="970" y="1575" on="1"/>
        <pt x="941" y="1575" on="0"/>
        <pt x="889" y="1597" on="0"/>
        <pt x="850" y="1635" on="0"/>
        <pt x="828" y="1686" on="0"/>
        <pt x="828" y="1715" on="1"/>
        <pt x="828" y="1743" on="0"/>
        <pt x="850" y="1794" on="0"/>
        <pt x="889" y="1831" on="0"/>
        <pt x="941" y="1853" on="0"/>
      </contour>
      <contour>
        <pt x="865" y="1438" on="1"/>
        <pt x="1408" y="0" on="1"/>
        <pt x="1126" y="0" on="1"/>
        <pt x="962" y="442" on="1"/>
        <pt x="488" y="442" on="1"/>
        <pt x="324" y="0" on="1"/>
        <pt x="42" y="0" on="1"/>
        <pt x="585" y="1438" on="1"/>
      </contour>
      <contour>
        <pt x="725" y="1141" on="1"/>
        <pt x="562" y="643" on="1"/>
        <pt x="888" y="643" on="1"/>
      </contour>
    </TTGlyph>
    <TTGlyph name="Agrave" xMin="42" yMin="0" xMax="1408" yMax="2064">
      <contour>
        <pt x="649" y="1578" on="1"/>
        <pt x="604" y="1649" on="0"/>
        <pt x="536" y="1751" on="0"/>
        <pt x="491" y="1831" on="0"/>
        <pt x="469" y="1900" on="0"/>
        <pt x="469" y="1938" on="1"/>
        <pt x="469" y="1970" on="0"/>
        <pt x="491" y="2017" on="0"/>
        <pt x="529" y="2049" on="0"/>
        <pt x="579" y="2064" on="0"/>
        <pt x="607" y="2064" on="1"/>
        <pt x="647" y="2064" on="0"/>
        <pt x="732" y="2035" on="0"/>
        <pt x="768" y="2009" on="1"/>
        <pt x="710" y="1840" on="1"/>
        <pt x="805" y="1578" on="1"/>
      </contour>
      <contour>
        <pt x="865" y="1438" on="1"/>
        <pt x="1408" y="0" on="1"/>
        <pt x="1126" y="0" on="1"/>
        <pt x="962" y="442" on="1"/>
        <pt x="488" y="442" on="1"/>
        <pt x="324" y="0" on="1"/>
        <pt x="42" y="0" on="1"/>
        <pt x="585" y="1438" on="1"/>
      </contour>
      <contour>
        <pt x="725" y="1141" on="1"/>
        <pt x="562" y="643" on="1"/>
        <pt x="888" y="643" on="1"/>
      </contour>
    </TTGlyph>
    <TTGlyph name="Amacron" xMin="42" yMin="0" xMax="1408" yMax="1805">
      <contour>
        <pt x="1030" y="1805" on="1"/>
        <pt x="1030" y="1634" on="1"/>
        <pt x="425" y="1634" on="1"/>
        <pt x="425" y="1805" on="1"/>
      </contour>
      <contour>
        <pt x="865" y="1438" on="1"/>
        <pt x="1408" y="0" on="1"/>
        <pt x="1126" y="0" on="1"/>
        <pt x="962" y="442" on="1"/>
        <pt x="488" y="442" on="1"/>
        <pt x="324" y="0" on="1"/>
        <pt x="42" y="0" on="1"/>
        <pt x="585" y="1438" on="1"/>
      </contour>
      <contour>
        <pt x="725" y="1141" on="1"/>
        <pt x="562" y="643" on="1"/>
        <pt x="888" y="643" on="1"/>
      </contour>
    </TTGlyph>
    <TTGlyph name="Aogonek" xMin="42" yMin="-408" xMax="1408" yMax="1438">
      <contour>
        <pt x="1324" y="0" on="1"/>
        <pt x="1294" y="-31" on="0"/>
        <pt x="1248" y="-83" on="0"/>
        <pt x="1216" y="-131" on="0"/>
        <pt x="1199" y="-179" on="0"/>
        <pt x="1199" y="-204" on="1"/>
        <pt x="1199" y="-252" on="0"/>
        <pt x="1242" y="-291" on="0"/>
        <pt x="1281" y="-291" on="1"/>
        <pt x="1305" y="-291" on="0"/>
        <pt x="1365" y="-277" on="0"/>
        <pt x="1399" y="-266" on="1"/>
        <pt x="1393" y="-361" on="1"/>
        <pt x="1355" y="-383" on="0"/>
        <pt x="1276" y="-408" on="0"/>
        <pt x="1221" y="-408" on="1"/>
        <pt x="1184" y="-408" on="0"/>
        <pt x="1121" y="-386" on="0"/>
        <pt x="1076" y="-343" on="0"/>
        <pt x="1050" y="-281" on="0"/>
        <pt x="1050" y="-242" on="1"/>
        <pt x="1050" y="-205" on="0"/>
        <pt x="1071" y="-144" on="0"/>
        <pt x="1110" y="-87" on="0"/>
        <pt x="1164" y="-32" on="0"/>
        <pt x="1198" y="0" on="1"/>
        <pt x="1126" y="0" on="1"/>
        <pt x="962" y="442" on="1"/>
        <pt x="488" y="442" on="1"/>
        <pt x="324" y="0" on="1"/>
        <pt x="42" y="0" on="1"/>
        <pt x="585" y="1438" on="1"/>
        <pt x="865" y="1438" on="1"/>
        <pt x="1408" y="0" on="1"/>
      </contour>
      <contour>
        <pt x="888" y="643" on="1"/>
        <pt x="725" y="1141" on="1"/>
        <pt x="562" y="643" on="1"/>
      </contour>
    </TTGlyph>
    <TTGlyph name="Aring" xMin="42" yMin="0" xMax="1408" yMax="1957">
      <contour>
        <pt x="727" y="1957" on="1"/>
        <pt x="768" y="1957" on="0"/>
        <pt x="839" y="1927" on="0"/>
        <pt x="892" y="1874" on="0"/>
        <pt x="922" y="1803" on="0"/>
        <pt x="922" y="1762" on="1"/>
        <pt x="922" y="1721" on="0"/>
        <pt x="892" y="1650" on="0"/>
        <pt x="839" y="1597" on="0"/>
        <pt x="768" y="1567" on="0"/>
        <pt x="727" y="1567" on="1"/>
        <pt x="686" y="1567" on="0"/>
        <pt x="615" y="1597" on="0"/>
        <pt x="562" y="1650" on="0"/>
        <pt x="532" y="1721" on="0"/>
        <pt x="532" y="1762" on="1"/>
        <pt x="532" y="1803" on="0"/>
        <pt x="562" y="1874" on="0"/>
        <pt x="615" y="1927" on="0"/>
        <pt x="686" y="1957" on="0"/>
      </contour>
      <contour>
        <pt x="727" y="1845" on="1"/>
        <pt x="692" y="1845" on="0"/>
        <pt x="644" y="1797" on="0"/>
        <pt x="644" y="1762" on="1"/>
        <pt x="644" y="1727" on="0"/>
        <pt x="692" y="1679" on="0"/>
        <pt x="727" y="1679" on="1"/>
        <pt x="762" y="1679" on="0"/>
        <pt x="810" y="1727" on="0"/>
        <pt x="810" y="1762" on="1"/>
        <pt x="810" y="1797" on="0"/>
        <pt x="762" y="1845" on="0"/>
      </contour>
      <contour>
        <pt x="865" y="1438" on="1"/>
        <pt x="1408" y="0" on="1"/>
        <pt x="1126" y="0" on="1"/>
        <pt x="962" y="442" on="1"/>
        <pt x="488" y="442" on="1"/>
        <pt x="324" y="0" on="1"/>
        <pt x="42" y="0" on="1"/>
        <pt x="585" y="1438" on="1"/>
      </contour>
      <contour>
        <pt x="725" y="1141" on="1"/>
        <pt x="562" y="643" on="1"/>
        <pt x="888" y="643" on="1"/>
      </contour>
    </TTGlyph>
    <TTGlyph name="Atilde" xMin="42" yMin="0" xMax="1408" yMax="1805">
      <contour>
        <pt x="1056" y="1805" on="1"/>
        <pt x="1052" y="1765" on="0"/>
        <pt x="1020" y="1685" on="0"/>
        <pt x="969" y="1620" on="0"/>
        <pt x="900" y="1580" on="0"/>
        <pt x="858" y="1580" on="1"/>
        <pt x="823" y="1580" on="0"/>
        <pt x="756" y="1602" on="0"/>
        <pt x="692" y="1628" on="0"/>
        <pt x="630" y="1650" on="0"/>
        <pt x="600" y="1650" on="1"/>
        <pt x="563" y="1650" on="0"/>
        <pt x="526" y="1607" on="0"/>
        <pt x="517" y="1570" on="1"/>
        <pt x="398" y="1570" on="1"/>
        <pt x="402" y="1610" on="0"/>
        <pt x="434" y="1690" on="0"/>
        <pt x="485" y="1754" on="0"/>
        <pt x="554" y="1795" on="0"/>
        <pt x="596" y="1795" on="1"/>
        <pt x="631" y="1795" on="0"/>
        <pt x="698" y="1773" on="0"/>
        <pt x="762" y="1747" on="0"/>
        <pt x="824" y="1725" on="0"/>
        <pt x="854" y="1725" on="1"/>
        <pt x="891" y="1725" on="0"/>
        <pt x="928" y="1768" on="0"/>
        <pt x="937" y="1805" on="1"/>
      </contour>
      <contour>
        <pt x="865" y="1438" on="1"/>
        <pt x="1408" y="0" on="1"/>
        <pt x="1126" y="0" on="1"/>
        <pt x="962" y="442" on="1"/>
        <pt x="488" y="442" on="1"/>
        <pt x="324" y="0" on="1"/>
        <pt x="42" y="0" on="1"/>
        <pt x="585" y="1438" on="1"/>
      </contour>
      <contour>
        <pt x="725" y="1141" on="1"/>
        <pt x="562" y="643" on="1"/>
        <pt x="888" y="643" on="1"/>
      </contour>
    </TTGlyph>
    <TTGlyph name="B" xMin="183" yMin="0" xMax="1254" yMax="1438">
      <contour>
        <pt x="719" y="1438" on="1"/>
        <pt x="813" y="1438" on="0"/>
        <pt x="981" y="1401" on="0"/>
        <pt x="1106" y="1321" on="0"/>
        <pt x="1179" y="1195" on="0"/>
        <pt x="1179" y="1106" on="1"/>
        <pt x="1179" y="1044" on="0"/>
        <pt x="1154" y="946" on="0"/>
        <pt x="1107" y="869" on="0"/>
        <pt x="1041" y="811" on="0"/>
        <pt x="999" y="790" on="1"/>
        <pt x="999" y="780" on="1"/>
        <pt x="1046" y="769" on="0"/>
        <pt x="1137" y="713" on="0"/>
        <pt x="1209" y="625" on="0"/>
        <pt x="1254" y="508" on="0"/>
        <pt x="1254" y="437" on="1"/>
        <pt x="1254" y="317" on="0"/>
        <pt x="1176" y="150" on="0"/>
        <pt x="1039" y="47" on="0"/>
        <pt x="851" y="0" on="0"/>
        <pt x="741" y="0" on="1"/>
        <pt x="183" y="0" on="1"/>
        <pt x="183" y="1438" on="1"/>
      </contour>
      <contour>
        <pt x="625" y="874" on="1"/>
        <pt x="700" y="874" on="0"/>
        <pt x="806" y="894" on="0"/>
        <pt x="873" y="938" on="0"/>
        <pt x="905" y="1008" on="0"/>
        <pt x="905" y="1058" on="1"/>
        <pt x="905" y="1109" on="0"/>
        <pt x="873" y="1179" on="0"/>
        <pt x="806" y="1223" on="0"/>
        <pt x="700" y="1243" on="0"/>
        <pt x="625" y="1243" on="1"/>
        <pt x="457" y="1243" on="1"/>
        <pt x="457" y="874" on="1"/>
      </contour>
      <contour>
        <pt x="661" y="195" on="1"/>
        <pt x="819" y="195" on="0"/>
        <pt x="980" y="307" on="0"/>
        <pt x="980" y="437" on="1"/>
        <pt x="980" y="567" on="0"/>
        <pt x="819" y="679" on="0"/>
        <pt x="661" y="679" on="1"/>
        <pt x="457" y="679" on="1"/>
        <pt x="457" y="195" on="1"/>
      </contour>
    </TTGlyph>
    <TTGlyph name="C" xMin="115" yMin="-24" xMax="1207" yMax="1460">
      <contour>
        <pt x="1207" y="40" on="1"/>
        <pt x="1118" y="11" on="0"/>
        <pt x="905" y="-24" on="0"/>
        <pt x="795" y="-24" on="1"/>
        <pt x="608" y="-24" on="0"/>
        <pt x="349" y="63" on="0"/>
        <pt x="187" y="242" on="0"/>
        <pt x="115" y="513" on="0"/>
        <pt x="115" y="697" on="1"/>
        <pt x="115" y="889" on="0"/>
        <pt x="186" y="1175" on="0"/>
        <pt x="340" y="1365" on="0"/>
        <pt x="583" y="1460" on="0"/>
        <pt x="756" y="1460" on="1"/>
        <pt x="817" y="1460" on="0"/>
        <pt x="936" y="1448" on="0"/>
        <pt x="1043" y="1428" on="0"/>
        <pt x="1136" y="1402" on="0"/>
        <pt x="1172" y="1388" on="1"/>
        <pt x="1106" y="1187" on="1"/>
        <pt x="1035" y="1213" on="0"/>
        <pt x="874" y="1252" on="0"/>
        <pt x="785" y="1252" on="1"/>
        <pt x="678" y="1252" on="0"/>
        <pt x="530" y="1188" on="0"/>
        <pt x="439" y="1058" on="0"/>
        <pt x="399" y="860" on="0"/>
        <pt x="399" y="727" on="1"/>
        <pt x="399" y="585" on="0"/>
        <pt x="443" y="380" on="0"/>
        <pt x="541" y="247" on="0"/>
        <pt x="700" y="184" on="0"/>
        <pt x="814" y="184" on="1"/>
        <pt x="901" y="184" on="0"/>
        <pt x="1076" y="216" on="0"/>
        <pt x="1151" y="241" on="1"/>
      </contour>
    </TTGlyph>
    <TTGlyph name="Cacute" xMin="115" yMin="-24" xMax="1207" yMax="2064">
      <contour>
        <pt x="720" y="2009" on="1"/>
        <pt x="756" y="2035" on="0"/>
        <pt x="841" y="2064" on="0"/>
        <pt x="881" y="2064" on="1"/>
        <pt x="909" y="2064" on="0"/>
        <pt x="959" y="2049" on="0"/>
        <pt x="997" y="2017" on="0"/>
        <pt x="1019" y="1970" on="0"/>
        <pt x="1019" y="1938" on="1"/>
        <pt x="1019" y="1900" on="0"/>
        <pt x="997" y="1831" on="0"/>
        <pt x="952" y="1751" on="0"/>
        <pt x="884" y="1649" on="0"/>
        <pt x="839" y="1578" on="1"/>
        <pt x="683" y="1578" on="1"/>
        <pt x="778" y="1840" on="1"/>
      </contour>
      <contour>
        <pt x="1207" y="40" on="1"/>
        <pt x="1118" y="11" on="0"/>
        <pt x="905" y="-24" on="0"/>
        <pt x="795" y="-24" on="1"/>
        <pt x="608" y="-24" on="0"/>
        <pt x="349" y="63" on="0"/>
        <pt x="187" y="242" on="0"/>
        <pt x="115" y="513" on="0"/>
        <pt x="115" y="697" on="1"/>
        <pt x="115" y="889" on="0"/>
        <pt x="186" y="1175" on="0"/>
        <pt x="340" y="1365" on="0"/>
        <pt x="583" y="1460" on="0"/>
        <pt x="756" y="1460" on="1"/>
        <pt x="817" y="1460" on="0"/>
        <pt x="936" y="1448" on="0"/>
        <pt x="1043" y="1428" on="0"/>
        <pt x="1136" y="1402" on="0"/>
        <pt x="1172" y="1388" on="1"/>
        <pt x="1106" y="1187" on="1"/>
        <pt x="1035" y="1213" on="0"/>
        <pt x="874" y="1252" on="0"/>
        <pt x="785" y="1252" on="1"/>
        <pt x="678" y="1252" on="0"/>
        <pt x="530" y="1188" on="0"/>
        <pt x="439" y="1058" on="0"/>
        <pt x="399" y="860" on="0"/>
        <pt x="399" y="727" on="1"/>
        <pt x="399" y="585" on="0"/>
        <pt x="443" y="380" on="0"/>
        <pt x="541" y="247" on="0"/>
        <pt x="700" y="184" on="0"/>
        <pt x="814" y="184" on="1"/>
        <pt x="901" y="184" on="0"/>
        <pt x="1076" y="216" on="0"/>
        <pt x="1151" y="241" on="1"/>
      </contour>
    </TTGlyph>
    <TTGlyph name="Ccaron" xMin="115" yMin="-24" xMax="1207" yMax="1919">
      <contour>
        <pt x="1010" y="1919" on="1"/>
        <pt x="1085" y="1832" on="1"/>
        <pt x="754" y="1578" on="1"/>
        <pt x="423" y="1832" on="1"/>
        <pt x="498" y="1919" on="1"/>
        <pt x="754" y="1808" on="1"/>
      </contour>
      <contour>
        <pt x="1207" y="40" on="1"/>
        <pt x="1118" y="11" on="0"/>
        <pt x="905" y="-24" on="0"/>
        <pt x="795" y="-24" on="1"/>
        <pt x="608" y="-24" on="0"/>
        <pt x="349" y="63" on="0"/>
        <pt x="187" y="242" on="0"/>
        <pt x="115" y="513" on="0"/>
        <pt x="115" y="697" on="1"/>
        <pt x="115" y="889" on="0"/>
        <pt x="186" y="1175" on="0"/>
        <pt x="340" y="1365" on="0"/>
        <pt x="583" y="1460" on="0"/>
        <pt x="756" y="1460" on="1"/>
        <pt x="817" y="1460" on="0"/>
        <pt x="936" y="1448" on="0"/>
        <pt x="1043" y="1428" on="0"/>
        <pt x="1136" y="1402" on="0"/>
        <pt x="1172" y="1388" on="1"/>
        <pt x="1106" y="1187" on="1"/>
        <pt x="1035" y="1213" on="0"/>
        <pt x="874" y="1252" on="0"/>
        <pt x="785" y="1252" on="1"/>
        <pt x="678" y="1252" on="0"/>
        <pt x="530" y="1188" on="0"/>
        <pt x="439" y="1058" on="0"/>
        <pt x="399" y="860" on="0"/>
        <pt x="399" y="727" on="1"/>
        <pt x="399" y="585" on="0"/>
        <pt x="443" y="380" on="0"/>
        <pt x="541" y="247" on="0"/>
        <pt x="700" y="184" on="0"/>
        <pt x="814" y="184" on="1"/>
        <pt x="901" y="184" on="0"/>
        <pt x="1076" y="216" on="0"/>
        <pt x="1151" y="241" on="1"/>
      </contour>
    </TTGlyph>
    <TTGlyph name="Ccedilla" xMin="115" yMin="-427" xMax="1207" yMax="1460">
      <contour>
        <pt x="781" y="-113" on="1"/>
        <pt x="861" y="-139" on="0"/>
        <pt x="928" y="-209" on="0"/>
        <pt x="928" y="-262" on="1"/>
        <pt x="928" y="-304" on="0"/>
        <pt x="894" y="-366" on="0"/>
        <pt x="835" y="-407" on="0"/>
        <pt x="753" y="-427" on="0"/>
        <pt x="705" y="-427" on="1"/>
        <pt x="660" y="-427" on="0"/>
        <pt x="567" y="-409" on="0"/>
        <pt x="521" y="-394" on="1"/>
        <pt x="575" y="-293" on="1"/>
        <pt x="615" y="-313" on="0"/>
        <pt x="682" y="-335" on="0"/>
        <pt x="708" y="-335" on="1"/>
        <pt x="740" y="-335" on="0"/>
        <pt x="774" y="-303" on="0"/>
        <pt x="774" y="-269" on="1"/>
        <pt x="774" y="-232" on="0"/>
        <pt x="703" y="-187" on="0"/>
        <pt x="633" y="-164" on="1"/>
        <pt x="720" y="-22" on="1"/>
        <pt x="554" y="-13" on="0"/>
        <pt x="324" y="83" on="0"/>
        <pt x="180" y="261" on="0"/>
        <pt x="115" y="523" on="0"/>
        <pt x="115" y="697" on="1"/>
        <pt x="115" y="889" on="0"/>
        <pt x="186" y="1175" on="0"/>
        <pt x="340" y="1365" on="0"/>
        <pt x="583" y="1460" on="0"/>
        <pt x="756" y="1460" on="1"/>
        <pt x="817" y="1460" on="0"/>
        <pt x="936" y="1448" on="0"/>
        <pt x="1043" y="1428" on="0"/>
        <pt x="1136" y="1402" on="0"/>
        <pt x="1172" y="1388" on="1"/>
        <pt x="1106" y="1187" on="1"/>
        <pt x="1035" y="1213" on="0"/>
        <pt x="874" y="1252" on="0"/>
        <pt x="785" y="1252" on="1"/>
        <pt x="678" y="1252" on="0"/>
        <pt x="530" y="1188" on="0"/>
        <pt x="439" y="1058" on="0"/>
        <pt x="399" y="860" on="0"/>
        <pt x="399" y="727" on="1"/>
        <pt x="399" y="585" on="0"/>
        <pt x="443" y="380" on="0"/>
        <pt x="541" y="247" on="0"/>
        <pt x="700" y="184" on="0"/>
        <pt x="814" y="184" on="1"/>
        <pt x="901" y="184" on="0"/>
        <pt x="1076" y="216" on="0"/>
        <pt x="1151" y="241" on="1"/>
        <pt x="1207" y="40" on="1"/>
        <pt x="1130" y="14" on="0"/>
        <pt x="949" y="-18" on="0"/>
        <pt x="853" y="-23" on="1"/>
      </contour>
    </TTGlyph>
    <TTGlyph name="Cdotaccent" xMin="115" yMin="-24" xMax="1207" yMax="1853">
      <contour>
        <pt x="754" y="1853" on="1"/>
        <pt x="782" y="1853" on="0"/>
        <pt x="832" y="1831" on="0"/>
        <pt x="870" y="1793" on="0"/>
        <pt x="892" y="1743" on="0"/>
        <pt x="892" y="1715" on="1"/>
        <pt x="892" y="1686" on="0"/>
        <pt x="870" y="1635" on="0"/>
        <pt x="833" y="1597" on="0"/>
        <pt x="782" y="1575" on="0"/>
        <pt x="754" y="1575" on="1"/>
        <pt x="725" y="1575" on="0"/>
        <pt x="673" y="1597" on="0"/>
        <pt x="634" y="1635" on="0"/>
        <pt x="612" y="1686" on="0"/>
        <pt x="612" y="1715" on="1"/>
        <pt x="612" y="1743" on="0"/>
        <pt x="634" y="1794" on="0"/>
        <pt x="673" y="1831" on="0"/>
        <pt x="725" y="1853" on="0"/>
      </contour>
      <contour>
        <pt x="1207" y="40" on="1"/>
        <pt x="1118" y="11" on="0"/>
        <pt x="905" y="-24" on="0"/>
        <pt x="795" y="-24" on="1"/>
        <pt x="608" y="-24" on="0"/>
        <pt x="349" y="63" on="0"/>
        <pt x="187" y="242" on="0"/>
        <pt x="115" y="513" on="0"/>
        <pt x="115" y="697" on="1"/>
        <pt x="115" y="889" on="0"/>
        <pt x="186" y="1175" on="0"/>
        <pt x="340" y="1365" on="0"/>
        <pt x="583" y="1460" on="0"/>
        <pt x="756" y="1460" on="1"/>
        <pt x="817" y="1460" on="0"/>
        <pt x="936" y="1448" on="0"/>
        <pt x="1043" y="1428" on="0"/>
        <pt x="1136" y="1402" on="0"/>
        <pt x="1172" y="1388" on="1"/>
        <pt x="1106" y="1187" on="1"/>
        <pt x="1035" y="1213" on="0"/>
        <pt x="874" y="1252" on="0"/>
        <pt x="785" y="1252" on="1"/>
        <pt x="678" y="1252" on="0"/>
        <pt x="530" y="1188" on="0"/>
        <pt x="439" y="1058" on="0"/>
        <pt x="399" y="860" on="0"/>
        <pt x="399" y="727" on="1"/>
        <pt x="399" y="585" on="0"/>
        <pt x="443" y="380" on="0"/>
        <pt x="541" y="247" on="0"/>
        <pt x="700" y="184" on="0"/>
        <pt x="814" y="184" on="1"/>
        <pt x="901" y="184" on="0"/>
        <pt x="1076" y="216" on="0"/>
        <pt x="1151" y="241" on="1"/>
      </contour>
    </TTGlyph>
    <TTGlyph name="D" xMin="181" yMin="0" xMax="1320" yMax="1438">
      <contour>
        <pt x="571" y="1438" on="1"/>
        <pt x="689" y="1438" on="0"/>
        <pt x="889" y="1413" on="0"/>
        <pt x="973" y="1382" on="1"/>
        <pt x="1072" y="1345" on="0"/>
        <pt x="1206" y="1222" on="0"/>
        <pt x="1286" y="1054" on="0"/>
        <pt x="1320" y="845" on="0"/>
        <pt x="1320" y="723" on="1"/>
        <pt x="1320" y="601" on="0"/>
        <pt x="1285" y="391" on="0"/>
        <pt x="1203" y="222" on="0"/>
        <pt x="1070" y="97" on="0"/>
        <pt x="973" y="59" on="1"/>
        <pt x="889" y="27" on="0"/>
        <pt x="689" y="0" on="0"/>
        <pt x="571" y="0" on="1"/>
        <pt x="181" y="0" on="1"/>
        <pt x="181" y="1438" on="1"/>
      </contour>
      <contour>
        <pt x="501" y="203" on="1"/>
        <pt x="666" y="203" on="0"/>
        <pt x="874" y="251" on="0"/>
        <pt x="992" y="369" on="0"/>
        <pt x="1036" y="566" on="0"/>
        <pt x="1036" y="716" on="1"/>
        <pt x="1036" y="866" on="0"/>
        <pt x="993" y="1066" on="0"/>
        <pt x="883" y="1185" on="0"/>
        <pt x="695" y="1235" on="0"/>
        <pt x="551" y="1235" on="1"/>
        <pt x="461" y="1235" on="1"/>
        <pt x="461" y="203" on="1"/>
      </contour>
    </TTGlyph>
    <TTGlyph name="Dcaron" xMin="181" yMin="0" xMax="1320" yMax="1919">
      <contour>
        <pt x="936" y="1919" on="1"/>
        <pt x="1011" y="1832" on="1"/>
        <pt x="680" y="1578" on="1"/>
        <pt x="349" y="1832" on="1"/>
        <pt x="424" y="1919" on="1"/>
        <pt x="680" y="1808" on="1"/>
      </contour>
      <contour>
        <pt x="571" y="1438" on="1"/>
        <pt x="689" y="1438" on="0"/>
        <pt x="889" y="1413" on="0"/>
        <pt x="973" y="1382" on="1"/>
        <pt x="1072" y="1345" on="0"/>
        <pt x="1206" y="1222" on="0"/>
        <pt x="1286" y="1054" on="0"/>
        <pt x="1320" y="845" on="0"/>
        <pt x="1320" y="723" on="1"/>
        <pt x="1320" y="601" on="0"/>
        <pt x="1285" y="391" on="0"/>
        <pt x="1203" y="222" on="0"/>
        <pt x="1070" y="97" on="0"/>
        <pt x="973" y="59" on="1"/>
        <pt x="889" y="27" on="0"/>
        <pt x="689" y="0" on="0"/>
        <pt x="571" y="0" on="1"/>
        <pt x="181" y="0" on="1"/>
        <pt x="181" y="1438" on="1"/>
      </contour>
      <contour>
        <pt x="501" y="203" on="1"/>
        <pt x="666" y="203" on="0"/>
        <pt x="874" y="251" on="0"/>
        <pt x="992" y="369" on="0"/>
        <pt x="1036" y="566" on="0"/>
        <pt x="1036" y="716" on="1"/>
        <pt x="1036" y="866" on="0"/>
        <pt x="993" y="1066" on="0"/>
        <pt x="883" y="1185" on="0"/>
        <pt x="695" y="1235" on="0"/>
        <pt x="551" y="1235" on="1"/>
        <pt x="461" y="1235" on="1"/>
        <pt x="461" y="203" on="1"/>
      </contour>
    </TTGlyph>
    <TTGlyph name="Dcroat" xMin="181" yMin="0" xMax="1320" yMax="1805">
      <contour>
        <pt x="983" y="1805" on="1"/>
        <pt x="983" y="1634" on="1"/>
        <pt x="378" y="1634" on="1"/>
        <pt x="378" y="1805" on="1"/>
      </contour>
      <contour>
        <pt x="571" y="1438" on="1"/>
        <pt x="689" y="1438" on="0"/>
        <pt x="889" y="1413" on="0"/>
        <pt x="973" y="1382" on="1"/>
        <pt x="1072" y="1345" on="0"/>
        <pt x="1206" y="1222" on="0"/>
        <pt x="1286" y="1054" on="0"/>
        <pt x="1320" y="845" on="0"/>
        <pt x="1320" y="723" on="1"/>
        <pt x="1320" y="601" on="0"/>
        <pt x="1285" y="391" on="0"/>
        <pt x="1203" y="222" on="0"/>
        <pt x="1070" y="97" on="0"/>
        <pt x="973" y="59" on="1"/>
        <pt x="889" y="27" on="0"/>
        <pt x="689" y="0" on="0"/>
        <pt x="571" y="0" on="1"/>
        <pt x="181" y="0" on="1"/>
        <pt x="181" y="1438" on="1"/>
      </contour>
      <contour>
        <pt x="501" y="203" on="1"/>
        <pt x="666" y="203" on="0"/>
        <pt x="874" y="251" on="0"/>
        <pt x="992" y="369" on="0"/>
        <pt x="1036" y="566" on="0"/>
        <pt x="1036" y="716" on="1"/>
        <pt x="1036" y="866" on="0"/>
        <pt x="993" y="1066" on="0"/>
        <pt x="883" y="1185" on="0"/>
        <pt x="695" y="1235" on="0"/>
        <pt x="551" y="1235" on="1"/>
        <pt x="461" y="1235" on="1"/>
        <pt x="461" y="203" on="1"/>
      </contour>
    </TTGlyph>
    <TTGlyph name="E" xMin="182" yMin="0" xMax="1063" yMax="1438">
      <contour>
        <pt x="1042" y="1438" on="1"/>
        <pt x="1042" y="1233" on="1"/>
        <pt x="461" y="1233" on="1"/>
        <pt x="461" y="907" on="1"/>
        <pt x="872" y="907" on="1"/>
        <pt x="872" y="702" on="1"/>
        <pt x="461" y="702" on="1"/>
        <pt x="461" y="205" on="1"/>
        <pt x="1063" y="205" on="1"/>
        <pt x="1063" y="0" on="1"/>
        <pt x="182" y="0" on="1"/>
        <pt x="182" y="1438" on="1"/>
      </contour>
    </TTGlyph>
    <TTGlyph name="Eacute" xMin="182" yMin="0" xMax="1063" yMax="2057">
      <contour>
        <pt x="584" y="2002" on="1"/>
        <pt x="620" y="2028" on="0"/>
        <pt x="705" y="2057" on="0"/>
        <pt x="745" y="2057" on="1"/>
        <pt x="773" y="2057" on="0"/>
        <pt x="823" y="2042" on="0"/>
        <pt x="861" y="2010" on="0"/>
        <pt x="883" y="1963" on="0"/>
        <pt x="883" y="1931" on="1"/>
        <pt x="883" y="1893" on="0"/>
        <pt x="861" y="1824" on="0"/>
        <pt x="816" y="1744" on="0"/>
        <pt x="748" y="1642" on="0"/>
        <pt x="703" y="1571" on="1"/>
        <pt x="547" y="1571" on="1"/>
        <pt x="642" y="1833" on="1"/>
      </contour>
      <contour>
        <pt x="1042" y="1438" on="1"/>
        <pt x="1042" y="1233" on="1"/>
        <pt x="461" y="1233" on="1"/>
        <pt x="461" y="907" on="1"/>
        <pt x="872" y="907" on="1"/>
        <pt x="872" y="702" on="1"/>
        <pt x="461" y="702" on="1"/>
        <pt x="461" y="205" on="1"/>
        <pt x="1063" y="205" on="1"/>
        <pt x="1063" y="0" on="1"/>
        <pt x="182" y="0" on="1"/>
        <pt x="182" y="1438" on="1"/>
      </contour>
    </TTGlyph>
    <TTGlyph name="Ecaron" xMin="182" yMin="0" xMax="1063" yMax="1912">
      <contour>
        <pt x="874" y="1912" on="1"/>
        <pt x="949" y="1825" on="1"/>
        <pt x="618" y="1571" on="1"/>
        <pt x="287" y="1825" on="1"/>
        <pt x="362" y="1912" on="1"/>
        <pt x="618" y="1801" on="1"/>
      </contour>
      <contour>
        <pt x="1042" y="1438" on="1"/>
        <pt x="1042" y="1233" on="1"/>
        <pt x="461" y="1233" on="1"/>
        <pt x="461" y="907" on="1"/>
        <pt x="872" y="907" on="1"/>
        <pt x="872" y="702" on="1"/>
        <pt x="461" y="702" on="1"/>
        <pt x="461" y="205" on="1"/>
        <pt x="1063" y="205" on="1"/>
        <pt x="1063" y="0" on="1"/>
        <pt x="182" y="0" on="1"/>
        <pt x="182" y="1438" on="1"/>
      </contour>
    </TTGlyph>
    <TTGlyph name="Ecircumflex" xMin="182" yMin="0" xMax="1063" yMax="1912">
      <contour>
        <pt x="618" y="1912" on="1"/>
        <pt x="949" y="1658" on="1"/>
        <pt x="874" y="1571" on="1"/>
        <pt x="618" y="1682" on="1"/>
        <pt x="362" y="1571" on="1"/>
        <pt x="287" y="1658" on="1"/>
      </contour>
      <contour>
        <pt x="1042" y="1438" on="1"/>
        <pt x="1042" y="1233" on="1"/>
        <pt x="461" y="1233" on="1"/>
        <pt x="461" y="907" on="1"/>
        <pt x="872" y="907" on="1"/>
        <pt x="872" y="702" on="1"/>
        <pt x="461" y="702" on="1"/>
        <pt x="461" y="205" on="1"/>
        <pt x="1063" y="205" on="1"/>
        <pt x="1063" y="0" on="1"/>
        <pt x="182" y="0" on="1"/>
        <pt x="182" y="1438" on="1"/>
      </contour>
    </TTGlyph>
    <TTGlyph name="Edieresis" xMin="182" yMin="0" xMax="1063" yMax="1846">
      <contour>
        <pt x="379" y="1846" on="1"/>
        <pt x="407" y="1846" on="0"/>
        <pt x="457" y="1824" on="0"/>
        <pt x="495" y="1786" on="0"/>
        <pt x="517" y="1736" on="0"/>
        <pt x="517" y="1708" on="1"/>
        <pt x="517" y="1679" on="0"/>
        <pt x="495" y="1628" on="0"/>
        <pt x="458" y="1590" on="0"/>
        <pt x="407" y="1568" on="0"/>
        <pt x="379" y="1568" on="1"/>
        <pt x="350" y="1568" on="0"/>
        <pt x="298" y="1590" on="0"/>
        <pt x="259" y="1628" on="0"/>
        <pt x="237" y="1679" on="0"/>
        <pt x="237" y="1708" on="1"/>
        <pt x="237" y="1736" on="0"/>
        <pt x="259" y="1787" on="0"/>
        <pt x="298" y="1824" on="0"/>
        <pt x="350" y="1846" on="0"/>
      </contour>
      <contour>
        <pt x="861" y="1846" on="1"/>
        <pt x="889" y="1846" on="0"/>
        <pt x="939" y="1824" on="0"/>
        <pt x="977" y="1786" on="0"/>
        <pt x="999" y="1736" on="0"/>
        <pt x="999" y="1708" on="1"/>
        <pt x="999" y="1679" on="0"/>
        <pt x="977" y="1628" on="0"/>
        <pt x="940" y="1590" on="0"/>
        <pt x="889" y="1568" on="0"/>
        <pt x="861" y="1568" on="1"/>
        <pt x="832" y="1568" on="0"/>
        <pt x="780" y="1590" on="0"/>
        <pt x="741" y="1628" on="0"/>
        <pt x="719" y="1679" on="0"/>
        <pt x="719" y="1708" on="1"/>
        <pt x="719" y="1736" on="0"/>
        <pt x="741" y="1787" on="0"/>
        <pt x="780" y="1824" on="0"/>
        <pt x="832" y="1846" on="0"/>
      </contour>
      <contour>
        <pt x="1042" y="1438" on="1"/>
        <pt x="1042" y="1233" on="1"/>
        <pt x="461" y="1233" on="1"/>
        <pt x="461" y="907" on="1"/>
        <pt x="872" y="907" on="1"/>
        <pt x="872" y="702" on="1"/>
        <pt x="461" y="702" on="1"/>
        <pt x="461" y="205" on="1"/>
        <pt x="1063" y="205" on="1"/>
        <pt x="1063" y="0" on="1"/>
        <pt x="182" y="0" on="1"/>
        <pt x="182" y="1438" on="1"/>
      </contour>
    </TTGlyph>
    <TTGlyph name="Edotaccent" xMin="182" yMin="0" xMax="1063" yMax="1846">
      <contour>
        <pt x="618" y="1846" on="1"/>
        <pt x="646" y="1846" on="0"/>
        <pt x="696" y="1824" on="0"/>
        <pt x="734" y="1786" on="0"/>
        <pt x="756" y="1736" on="0"/>
        <pt x="756" y="1708" on="1"/>
        <pt x="756" y="1679" on="0"/>
        <pt x="734" y="1628" on="0"/>
        <pt x="697" y="1590" on="0"/>
        <pt x="646" y="1568" on="0"/>
        <pt x="618" y="1568" on="1"/>
        <pt x="589" y="1568" on="0"/>
        <pt x="537" y="1590" on="0"/>
        <pt x="498" y="1628" on="0"/>
        <pt x="476" y="1679" on="0"/>
        <pt x="476" y="1708" on="1"/>
        <pt x="476" y="1736" on="0"/>
        <pt x="498" y="1787" on="0"/>
        <pt x="537" y="1824" on="0"/>
        <pt x="589" y="1846" on="0"/>
      </contour>
      <contour>
        <pt x="1042" y="1438" on="1"/>
        <pt x="1042" y="1233" on="1"/>
        <pt x="461" y="1233" on="1"/>
        <pt x="461" y="907" on="1"/>
        <pt x="872" y="907" on="1"/>
        <pt x="872" y="702" on="1"/>
        <pt x="461" y="702" on="1"/>
        <pt x="461" y="205" on="1"/>
        <pt x="1063" y="205" on="1"/>
        <pt x="1063" y="0" on="1"/>
        <pt x="182" y="0" on="1"/>
        <pt x="182" y="1438" on="1"/>
      </contour>
    </TTGlyph>
    <TTGlyph name="Egrave" xMin="182" yMin="0" xMax="1063" yMax="2057">
      <contour>
        <pt x="540" y="1571" on="1"/>
        <pt x="495" y="1642" on="0"/>
        <pt x="427" y="1744" on="0"/>
        <pt x="382" y="1824" on="0"/>
        <pt x="360" y="1893" on="0"/>
        <pt x="360" y="1931" on="1"/>
        <pt x="360" y="1963" on="0"/>
        <pt x="382" y="2010" on="0"/>
        <pt x="420" y="2042" on="0"/>
        <pt x="470" y="2057" on="0"/>
        <pt x="498" y="2057" on="1"/>
        <pt x="538" y="2057" on="0"/>
        <pt x="623" y="2028" on="0"/>
        <pt x="659" y="2002" on="1"/>
        <pt x="601" y="1833" on="1"/>
        <pt x="696" y="1571" on="1"/>
      </contour>
      <contour>
        <pt x="1042" y="1438" on="1"/>
        <pt x="1042" y="1233" on="1"/>
        <pt x="461" y="1233" on="1"/>
        <pt x="461" y="907" on="1"/>
        <pt x="872" y="907" on="1"/>
        <pt x="872" y="702" on="1"/>
        <pt x="461" y="702" on="1"/>
        <pt x="461" y="205" on="1"/>
        <pt x="1063" y="205" on="1"/>
        <pt x="1063" y="0" on="1"/>
        <pt x="182" y="0" on="1"/>
        <pt x="182" y="1438" on="1"/>
      </contour>
    </TTGlyph>
    <TTGlyph name="Emacron" xMin="182" yMin="0" xMax="1063" yMax="1798">
      <contour>
        <pt x="921" y="1798" on="1"/>
        <pt x="921" y="1627" on="1"/>
        <pt x="316" y="1627" on="1"/>
        <pt x="316" y="1798" on="1"/>
      </contour>
      <contour>
        <pt x="1042" y="1438" on="1"/>
        <pt x="1042" y="1233" on="1"/>
        <pt x="461" y="1233" on="1"/>
        <pt x="461" y="907" on="1"/>
        <pt x="872" y="907" on="1"/>
        <pt x="872" y="702" on="1"/>
        <pt x="461" y="702" on="1"/>
        <pt x="461" y="205" on="1"/>
        <pt x="1063" y="205" on="1"/>
        <pt x="1063" y="0" on="1"/>
        <pt x="182" y="0" on="1"/>
        <pt x="182" y="1438" on="1"/>
      </contour>
    </TTGlyph>
    <TTGlyph name="Eng" xMin="179" yMin="-527" xMax="1396" yMax="1438">
      <contour>
        <pt x="1396" y="1438" on="1"/>
        <pt x="1396" y="175" on="1"/>
        <pt x="1396" y="46" on="0"/>
        <pt x="1375" y="-150" on="0"/>
        <pt x="1342" y="-226" on="1"/>
        <pt x="1324" y="-266" on="0"/>
        <pt x="1270" y="-344" on="0"/>
        <pt x="1189" y="-419" on="0"/>
        <pt x="1080" y="-491" on="0"/>
        <pt x="1007" y="-527" on="1"/>
        <pt x="895" y="-373" on="1"/>
        <pt x="948" y="-326" on="0"/>
        <pt x="1031" y="-247" on="0"/>
        <pt x="1060" y="-197" on="1"/>
        <pt x="1083" y="-156" on="0"/>
        <pt x="1110" y="-53" on="0"/>
        <pt x="1115" y="20" on="1"/>
        <pt x="458" y="1075" on="1"/>
        <pt x="458" y="0" on="1"/>
        <pt x="179" y="0" on="1"/>
        <pt x="179" y="1438" on="1"/>
        <pt x="488" y="1438" on="1"/>
        <pt x="1117" y="427" on="1"/>
        <pt x="1117" y="1438" on="1"/>
      </contour>
    </TTGlyph>
    <TTGlyph name="Eogonek" xMin="182" yMin="-408" xMax="1063" yMax="1438">
      <contour>
        <pt x="878" y="0" on="1"/>
        <pt x="848" y="-31" on="0"/>
        <pt x="802" y="-83" on="0"/>
        <pt x="770" y="-131" on="0"/>
        <pt x="753" y="-179" on="0"/>
        <pt x="753" y="-204" on="1"/>
        <pt x="753" y="-252" on="0"/>
        <pt x="796" y="-291" on="0"/>
        <pt x="835" y="-291" on="1"/>
        <pt x="859" y="-291" on="0"/>
        <pt x="919" y="-277" on="0"/>
        <pt x="953" y="-266" on="1"/>
        <pt x="947" y="-361" on="1"/>
        <pt x="909" y="-383" on="0"/>
        <pt x="830" y="-408" on="0"/>
        <pt x="775" y="-408" on="1"/>
        <pt x="738" y="-408" on="0"/>
        <pt x="675" y="-386" on="0"/>
        <pt x="630" y="-343" on="0"/>
        <pt x="604" y="-281" on="0"/>
        <pt x="604" y="-242" on="1"/>
        <pt x="604" y="-205" on="0"/>
        <pt x="625" y="-144" on="0"/>
        <pt x="664" y="-87" on="0"/>
        <pt x="718" y="-32" on="0"/>
        <pt x="752" y="0" on="1"/>
        <pt x="182" y="0" on="1"/>
        <pt x="182" y="1438" on="1"/>
        <pt x="1042" y="1438" on="1"/>
        <pt x="1042" y="1233" on="1"/>
        <pt x="461" y="1233" on="1"/>
        <pt x="461" y="907" on="1"/>
        <pt x="872" y="907" on="1"/>
        <pt x="872" y="702" on="1"/>
        <pt x="461" y="702" on="1"/>
        <pt x="461" y="205" on="1"/>
        <pt x="1063" y="205" on="1"/>
        <pt x="1063" y="0" on="1"/>
      </contour>
    </TTGlyph>
    <TTGlyph name="Eth" xMin="-60" yMin="0" xMax="1320" yMax="1438">
      <contour>
        <pt x="571" y="1438" on="1"/>
        <pt x="689" y="1438" on="0"/>
        <pt x="889" y="1413" on="0"/>
        <pt x="973" y="1382" on="1"/>
        <pt x="1072" y="1345" on="0"/>
        <pt x="1206" y="1222" on="0"/>
        <pt x="1286" y="1054" on="0"/>
        <pt x="1320" y="845" on="0"/>
        <pt x="1320" y="723" on="1"/>
        <pt x="1320" y="601" on="0"/>
        <pt x="1285" y="391" on="0"/>
        <pt x="1203" y="222" on="0"/>
        <pt x="1070" y="97" on="0"/>
        <pt x="973" y="59" on="1"/>
        <pt x="889" y="27" on="0"/>
        <pt x="689" y="0" on="0"/>
        <pt x="571" y="0" on="1"/>
        <pt x="181" y="0" on="1"/>
        <pt x="181" y="633" on="1"/>
        <pt x="-60" y="633" on="1"/>
        <pt x="-60" y="823" on="1"/>
        <pt x="181" y="823" on="1"/>
        <pt x="181" y="1438" on="1"/>
      </contour>
      <contour>
        <pt x="501" y="203" on="1"/>
        <pt x="666" y="203" on="0"/>
        <pt x="874" y="251" on="0"/>
        <pt x="992" y="369" on="0"/>
        <pt x="1036" y="566" on="0"/>
        <pt x="1036" y="716" on="1"/>
        <pt x="1036" y="866" on="0"/>
        <pt x="993" y="1066" on="0"/>
        <pt x="883" y="1185" on="0"/>
        <pt x="695" y="1235" on="0"/>
        <pt x="551" y="1235" on="1"/>
        <pt x="461" y="1235" on="1"/>
        <pt x="461" y="823" on="1"/>
        <pt x="756" y="823" on="1"/>
        <pt x="756" y="633" on="1"/>
        <pt x="461" y="633" on="1"/>
        <pt x="461" y="203" on="1"/>
      </contour>
    </TTGlyph>
    <TTGlyph name="Euro" xMin="120" yMin="-24" xMax="1038" yMax="1460">
      <contour>
        <pt x="294" y="1064" on="1"/>
        <pt x="294" y="1161" on="0"/>
        <pt x="324" y="1308" on="0"/>
        <pt x="362" y="1359" on="1"/>
        <pt x="391" y="1397" on="0"/>
        <pt x="473" y="1438" on="0"/>
        <pt x="562" y="1457" on="0"/>
        <pt x="649" y="1460" on="0"/>
        <pt x="682" y="1460" on="1"/>
        <pt x="759" y="1460" on="0"/>
        <pt x="935" y="1438" on="0"/>
        <pt x="1038" y="1417" on="1"/>
        <pt x="1005" y="1215" on="1"/>
        <pt x="920" y="1233" on="0"/>
        <pt x="782" y="1256" on="0"/>
        <pt x="730" y="1256" on="1"/>
        <pt x="682" y="1256" on="0"/>
        <pt x="616" y="1234" on="0"/>
        <pt x="599" y="1208" on="1"/>
        <pt x="580" y="1180" on="0"/>
        <pt x="573" y="1096" on="0"/>
        <pt x="573" y="1038" on="1"/>
        <pt x="573" y="996" on="1"/>
        <pt x="916" y="996" on="1"/>
        <pt x="916" y="811" on="1"/>
        <pt x="573" y="811" on="1"/>
        <pt x="573" y="635" on="1"/>
        <pt x="916" y="635" on="1"/>
        <pt x="916" y="450" on="1"/>
        <pt x="573" y="450" on="1"/>
        <pt x="573" y="398" on="1"/>
        <pt x="573" y="340" on="0"/>
        <pt x="580" y="256" on="0"/>
        <pt x="599" y="228" on="1"/>
        <pt x="616" y="202" on="0"/>
        <pt x="682" y="180" on="0"/>
        <pt x="730" y="180" on="1"/>
        <pt x="782" y="180" on="0"/>
        <pt x="920" y="203" on="0"/>
        <pt x="1005" y="221" on="1"/>
        <pt x="1038" y="19" on="1"/>
        <pt x="935" y="-2" on="0"/>
        <pt x="759" y="-24" on="0"/>
        <pt x="682" y="-24" on="1"/>
        <pt x="649" y="-24" on="0"/>
        <pt x="562" y="-21" on="0"/>
        <pt x="473" y="-2" on="0"/>
        <pt x="391" y="39" on="0"/>
        <pt x="362" y="77" on="1"/>
        <pt x="324" y="128" on="0"/>
        <pt x="294" y="275" on="0"/>
        <pt x="294" y="372" on="1"/>
        <pt x="294" y="450" on="1"/>
        <pt x="120" y="450" on="1"/>
        <pt x="120" y="635" on="1"/>
        <pt x="294" y="635" on="1"/>
        <pt x="294" y="811" on="1"/>
        <pt x="120" y="811" on="1"/>
        <pt x="120" y="996" on="1"/>
        <pt x="294" y="996" on="1"/>
      </contour>
    </TTGlyph>
    <TTGlyph name="F" xMin="182" yMin="0" xMax="1042" yMax="1438">
      <contour>
        <pt x="1042" y="1438" on="1"/>
        <pt x="1042" y="1233" on="1"/>
        <pt x="461" y="1233" on="1"/>
        <pt x="461" y="907" on="1"/>
        <pt x="872" y="907" on="1"/>
        <pt x="872" y="702" on="1"/>
        <pt x="461" y="702" on="1"/>
        <pt x="461" y="0" on="1"/>
        <pt x="182" y="0" on="1"/>
        <pt x="182" y="1438" on="1"/>
      </contour>
    </TTGlyph>
    <TTGlyph name="G" xMin="115" yMin="-24" xMax="1303" yMax="1463">
      <contour>
        <pt x="1303" y="70" on="1"/>
        <pt x="1259" y="48" on="0"/>
        <pt x="1147" y="13" on="0"/>
        <pt x="1019" y="-11" on="0"/>
        <pt x="881" y="-24" on="0"/>
        <pt x="812" y="-24" on="1"/>
        <pt x="637" y="-24" on="0"/>
        <pt x="375" y="48" on="0"/>
        <pt x="201" y="216" on="0"/>
        <pt x="115" y="493" on="0"/>
        <pt x="115" y="699" on="1"/>
        <pt x="115" y="914" on="0"/>
        <pt x="205" y="1206" on="0"/>
        <pt x="373" y="1385" on="0"/>
        <pt x="612" y="1463" on="0"/>
        <pt x="760" y="1463" on="1"/>
        <pt x="823" y="1463" on="0"/>
        <pt x="952" y="1450" on="0"/>
        <pt x="1078" y="1424" on="0"/>
        <pt x="1195" y="1385" on="0"/>
        <pt x="1246" y="1360" on="1"/>
        <pt x="1169" y="1165" on="1"/>
        <pt x="1068" y="1213" on="0"/>
        <pt x="871" y="1255" on="0"/>
        <pt x="783" y="1255" on="1"/>
        <pt x="683" y="1255" on="0"/>
        <pt x="538" y="1192" on="0"/>
        <pt x="444" y="1063" on="0"/>
        <pt x="399" y="864" on="0"/>
        <pt x="399" y="729" on="1"/>
        <pt x="399" y="586" on="0"/>
        <pt x="445" y="381" on="0"/>
        <pt x="544" y="247" on="0"/>
        <pt x="697" y="184" on="0"/>
        <pt x="805" y="184" on="1"/>
        <pt x="859" y="184" on="0"/>
        <pt x="972" y="200" on="0"/>
        <pt x="1030" y="214" on="1"/>
        <pt x="1030" y="561" on="1"/>
        <pt x="801" y="561" on="1"/>
        <pt x="801" y="764" on="1"/>
        <pt x="1303" y="764" on="1"/>
      </contour>
    </TTGlyph>
    <TTGlyph name="Gbreve" xMin="115" yMin="-24" xMax="1303" yMax="1904">
      <contour>
        <pt x="1092" y="1904" on="1"/>
        <pt x="1074" y="1759" on="0"/>
        <pt x="907" y="1605" on="0"/>
        <pt x="764" y="1605" on="1"/>
        <pt x="621" y="1605" on="0"/>
        <pt x="454" y="1759" on="0"/>
        <pt x="436" y="1904" on="1"/>
        <pt x="536" y="1904" on="1"/>
        <pt x="572" y="1829" on="0"/>
        <pt x="686" y="1771" on="0"/>
        <pt x="764" y="1771" on="1"/>
        <pt x="842" y="1771" on="0"/>
        <pt x="956" y="1829" on="0"/>
        <pt x="992" y="1904" on="1"/>
      </contour>
      <contour>
        <pt x="1303" y="70" on="1"/>
        <pt x="1259" y="48" on="0"/>
        <pt x="1147" y="13" on="0"/>
        <pt x="1019" y="-11" on="0"/>
        <pt x="881" y="-24" on="0"/>
        <pt x="812" y="-24" on="1"/>
        <pt x="637" y="-24" on="0"/>
        <pt x="375" y="48" on="0"/>
        <pt x="201" y="216" on="0"/>
        <pt x="115" y="493" on="0"/>
        <pt x="115" y="699" on="1"/>
        <pt x="115" y="914" on="0"/>
        <pt x="205" y="1206" on="0"/>
        <pt x="373" y="1385" on="0"/>
        <pt x="612" y="1463" on="0"/>
        <pt x="760" y="1463" on="1"/>
        <pt x="823" y="1463" on="0"/>
        <pt x="952" y="1450" on="0"/>
        <pt x="1078" y="1424" on="0"/>
        <pt x="1195" y="1385" on="0"/>
        <pt x="1246" y="1360" on="1"/>
        <pt x="1169" y="1165" on="1"/>
        <pt x="1068" y="1213" on="0"/>
        <pt x="871" y="1255" on="0"/>
        <pt x="783" y="1255" on="1"/>
        <pt x="683" y="1255" on="0"/>
        <pt x="538" y="1192" on="0"/>
        <pt x="444" y="1063" on="0"/>
        <pt x="399" y="864" on="0"/>
        <pt x="399" y="729" on="1"/>
        <pt x="399" y="586" on="0"/>
        <pt x="445" y="381" on="0"/>
        <pt x="544" y="247" on="0"/>
        <pt x="697" y="184" on="0"/>
        <pt x="805" y="184" on="1"/>
        <pt x="859" y="184" on="0"/>
        <pt x="972" y="200" on="0"/>
        <pt x="1030" y="214" on="1"/>
        <pt x="1030" y="561" on="1"/>
        <pt x="801" y="561" on="1"/>
        <pt x="801" y="764" on="1"/>
        <pt x="1303" y="764" on="1"/>
      </contour>
    </TTGlyph>
    <TTGlyph name="Gcommaaccent" xMin="115" yMin="-613" xMax="1303" yMax="1463">
      <contour>
        <pt x="1303" y="70" on="1"/>
        <pt x="1259" y="48" on="0"/>
        <pt x="1147" y="13" on="0"/>
        <pt x="1019" y="-11" on="0"/>
        <pt x="881" y="-24" on="0"/>
        <pt x="812" y="-24" on="1"/>
        <pt x="637" y="-24" on="0"/>
        <pt x="375" y="48" on="0"/>
        <pt x="201" y="216" on="0"/>
        <pt x="115" y="493" on="0"/>
        <pt x="115" y="699" on="1"/>
        <pt x="115" y="914" on="0"/>
        <pt x="205" y="1206" on="0"/>
        <pt x="373" y="1385" on="0"/>
        <pt x="612" y="1463" on="0"/>
        <pt x="760" y="1463" on="1"/>
        <pt x="823" y="1463" on="0"/>
        <pt x="952" y="1450" on="0"/>
        <pt x="1078" y="1424" on="0"/>
        <pt x="1195" y="1385" on="0"/>
        <pt x="1246" y="1360" on="1"/>
        <pt x="1169" y="1165" on="1"/>
        <pt x="1068" y="1213" on="0"/>
        <pt x="871" y="1255" on="0"/>
        <pt x="783" y="1255" on="1"/>
        <pt x="683" y="1255" on="0"/>
        <pt x="538" y="1192" on="0"/>
        <pt x="444" y="1063" on="0"/>
        <pt x="399" y="864" on="0"/>
        <pt x="399" y="729" on="1"/>
        <pt x="399" y="586" on="0"/>
        <pt x="445" y="381" on="0"/>
        <pt x="544" y="247" on="0"/>
        <pt x="697" y="184" on="0"/>
        <pt x="805" y="184" on="1"/>
        <pt x="859" y="184" on="0"/>
        <pt x="972" y="200" on="0"/>
        <pt x="1030" y="214" on="1"/>
        <pt x="1030" y="561" on="1"/>
        <pt x="801" y="561" on="1"/>
        <pt x="801" y="764" on="1"/>
        <pt x="1303" y="764" on="1"/>
      </contour>
      <contour>
        <pt x="677" y="-182" on="1"/>
        <pt x="713" y="-156" on="0"/>
        <pt x="798" y="-127" on="0"/>
        <pt x="838" y="-127" on="1"/>
        <pt x="866" y="-127" on="0"/>
        <pt x="916" y="-142" on="0"/>
        <pt x="954" y="-174" on="0"/>
        <pt x="976" y="-221" on="0"/>
        <pt x="976" y="-253" on="1"/>
        <pt x="976" y="-291" on="0"/>
        <pt x="954" y="-360" on="0"/>
        <pt x="909" y="-440" on="0"/>
        <pt x="841" y="-542" on="0"/>
        <pt x="796" y="-613" on="1"/>
        <pt x="640" y="-613" on="1"/>
        <pt x="735" y="-351" on="1"/>
      </contour>
    </TTGlyph>
    <TTGlyph name="Gdotaccent" xMin="115" yMin="-24" xMax="1303" yMax="1853">
      <contour>
        <pt x="764" y="1853" on="1"/>
        <pt x="792" y="1853" on="0"/>
        <pt x="842" y="1831" on="0"/>
        <pt x="880" y="1793" on="0"/>
        <pt x="902" y="1743" on="0"/>
        <pt x="902" y="1715" on="1"/>
        <pt x="902" y="1686" on="0"/>
        <pt x="880" y="1635" on="0"/>
        <pt x="843" y="1597" on="0"/>
        <pt x="792" y="1575" on="0"/>
        <pt x="764" y="1575" on="1"/>
        <pt x="735" y="1575" on="0"/>
        <pt x="683" y="1597" on="0"/>
        <pt x="644" y="1635" on="0"/>
        <pt x="622" y="1686" on="0"/>
        <pt x="622" y="1715" on="1"/>
        <pt x="622" y="1743" on="0"/>
        <pt x="644" y="1794" on="0"/>
        <pt x="683" y="1831" on="0"/>
        <pt x="735" y="1853" on="0"/>
      </contour>
      <contour>
        <pt x="1303" y="70" on="1"/>
        <pt x="1259" y="48" on="0"/>
        <pt x="1147" y="13" on="0"/>
        <pt x="1019" y="-11" on="0"/>
        <pt x="881" y="-24" on="0"/>
        <pt x="812" y="-24" on="1"/>
        <pt x="637" y="-24" on="0"/>
        <pt x="375" y="48" on="0"/>
        <pt x="201" y="216" on="0"/>
        <pt x="115" y="493" on="0"/>
        <pt x="115" y="699" on="1"/>
        <pt x="115" y="914" on="0"/>
        <pt x="205" y="1206" on="0"/>
        <pt x="373" y="1385" on="0"/>
        <pt x="612" y="1463" on="0"/>
        <pt x="760" y="1463" on="1"/>
        <pt x="823" y="1463" on="0"/>
        <pt x="952" y="1450" on="0"/>
        <pt x="1078" y="1424" on="0"/>
        <pt x="1195" y="1385" on="0"/>
        <pt x="1246" y="1360" on="1"/>
        <pt x="1169" y="1165" on="1"/>
        <pt x="1068" y="1213" on="0"/>
        <pt x="871" y="1255" on="0"/>
        <pt x="783" y="1255" on="1"/>
        <pt x="683" y="1255" on="0"/>
        <pt x="538" y="1192" on="0"/>
        <pt x="444" y="1063" on="0"/>
        <pt x="399" y="864" on="0"/>
        <pt x="399" y="729" on="1"/>
        <pt x="399" y="586" on="0"/>
        <pt x="445" y="381" on="0"/>
        <pt x="544" y="247" on="0"/>
        <pt x="697" y="184" on="0"/>
        <pt x="805" y="184" on="1"/>
        <pt x="859" y="184" on="0"/>
        <pt x="972" y="200" on="0"/>
        <pt x="1030" y="214" on="1"/>
        <pt x="1030" y="561" on="1"/>
        <pt x="801" y="561" on="1"/>
        <pt x="801" y="764" on="1"/>
        <pt x="1303" y="764" on="1"/>
      </contour>
    </TTGlyph>
    <TTGlyph name="H" xMin="182" yMin="0" xMax="1376" yMax="1438">
      <contour>
        <pt x="1376" y="1438" on="1"/>
        <pt x="1376" y="0" on="1"/>
        <pt x="1097" y="0" on="1"/>
        <pt x="1097" y="701" on="1"/>
        <pt x="461" y="701" on="1"/>
        <pt x="461" y="0" on="1"/>
        <pt x="182" y="0" on="1"/>
        <pt x="182" y="1438" on="1"/>
        <pt x="461" y="1438" on="1"/>
        <pt x="461" y="906" on="1"/>
        <pt x="1097" y="906" on="1"/>
        <pt x="1097" y="1438" on="1"/>
      </contour>
    </TTGlyph>
    <TTGlyph name="Hbar" xMin="100" yMin="0" xMax="1646" yMax="1438">
      <contour>
        <pt x="1476" y="1438" on="1"/>
        <pt x="1476" y="1228" on="1"/>
        <pt x="1646" y="1228" on="1"/>
        <pt x="1646" y="1067" on="1"/>
        <pt x="1476" y="1067" on="1"/>
        <pt x="1476" y="0" on="1"/>
        <pt x="1197" y="0" on="1"/>
        <pt x="1197" y="701" on="1"/>
        <pt x="561" y="701" on="1"/>
        <pt x="561" y="0" on="1"/>
        <pt x="282" y="0" on="1"/>
        <pt x="282" y="1067" on="1"/>
        <pt x="100" y="1067" on="1"/>
        <pt x="100" y="1228" on="1"/>
        <pt x="282" y="1228" on="1"/>
        <pt x="282" y="1438" on="1"/>
        <pt x="561" y="1438" on="1"/>
        <pt x="561" y="1228" on="1"/>
        <pt x="1197" y="1228" on="1"/>
        <pt x="1197" y="1438" on="1"/>
      </contour>
      <contour>
        <pt x="1197" y="1067" on="1"/>
        <pt x="561" y="1067" on="1"/>
        <pt x="561" y="906" on="1"/>
        <pt x="1197" y="906" on="1"/>
      </contour>
    </TTGlyph>
    <TTGlyph name="I" xMin="204" yMin="0" xMax="483" yMax="1438">
      <contour>
        <pt x="483" y="1438" on="1"/>
        <pt x="483" y="0" on="1"/>
        <pt x="204" y="0" on="1"/>
        <pt x="204" y="1438" on="1"/>
      </contour>
    </TTGlyph>
    <TTGlyph name="IJ" xMin="160" yMin="-276" xMax="1065" yMax="1438">
      <contour>
        <pt x="160" y="1438" on="1"/>
        <pt x="439" y="1438" on="1"/>
        <pt x="439" y="0" on="1"/>
        <pt x="160" y="0" on="1"/>
      </contour>
      <contour>
        <pt x="1065" y="327" on="1"/>
        <pt x="1065" y="206" on="0"/>
        <pt x="1033" y="32" on="0"/>
        <pt x="968" y="-104" on="0"/>
        <pt x="869" y="-217" on="0"/>
        <pt x="801" y="-276" on="1"/>
        <pt x="754" y="-240" on="0"/>
        <pt x="652" y="-161" on="0"/>
        <pt x="609" y="-119" on="1"/>
        <pt x="658" y="-67" on="0"/>
        <pt x="725" y="17" on="0"/>
        <pt x="767" y="110" on="0"/>
        <pt x="786" y="228" on="0"/>
        <pt x="786" y="314" on="1"/>
        <pt x="786" y="1438" on="1"/>
        <pt x="1065" y="1438" on="1"/>
      </contour>
    </TTGlyph>
    <TTGlyph name="Iacute" xMin="204" yMin="0" xMax="609" yMax="2064">
      <contour>
        <pt x="310" y="2009" on="1"/>
        <pt x="346" y="2035" on="0"/>
        <pt x="431" y="2064" on="0"/>
        <pt x="471" y="2064" on="1"/>
        <pt x="499" y="2064" on="0"/>
        <pt x="549" y="2049" on="0"/>
        <pt x="587" y="2017" on="0"/>
        <pt x="609" y="1970" on="0"/>
        <pt x="609" y="1938" on="1"/>
        <pt x="609" y="1900" on="0"/>
        <pt x="587" y="1831" on="0"/>
        <pt x="542" y="1751" on="0"/>
        <pt x="474" y="1649" on="0"/>
        <pt x="429" y="1578" on="1"/>
        <pt x="273" y="1578" on="1"/>
        <pt x="368" y="1840" on="1"/>
      </contour>
      <contour>
        <pt x="483" y="1438" on="1"/>
        <pt x="483" y="0" on="1"/>
        <pt x="204" y="0" on="1"/>
        <pt x="204" y="1438" on="1"/>
      </contour>
    </TTGlyph>
    <TTGlyph name="Icircumflex" xMin="13" yMin="0" xMax="675" yMax="1919">
      <contour>
        <pt x="344" y="1919" on="1"/>
        <pt x="675" y="1665" on="1"/>
        <pt x="600" y="1578" on="1"/>
        <pt x="344" y="1689" on="1"/>
        <pt x="88" y="1578" on="1"/>
        <pt x="13" y="1665" on="1"/>
      </contour>
      <contour>
        <pt x="483" y="1438" on="1"/>
        <pt x="483" y="0" on="1"/>
        <pt x="204" y="0" on="1"/>
        <pt x="204" y="1438" on="1"/>
      </contour>
    </TTGlyph>
    <TTGlyph name="Idieresis" xMin="-37" yMin="0" xMax="725" yMax="1853">
      <contour>
        <pt x="105" y="1853" on="1"/>
        <pt x="133" y="1853" on="0"/>
        <pt x="183" y="1831" on="0"/>
        <pt x="221" y="1793" on="0"/>
        <pt x="243" y="1743" on="0"/>
        <pt x="243" y="1715" on="1"/>
        <pt x="243" y="1686" on="0"/>
        <pt x="221" y="1635" on="0"/>
        <pt x="184" y="1597" on="0"/>
        <pt x="133" y="1575" on="0"/>
        <pt x="105" y="1575" on="1"/>
        <pt x="76" y="1575" on="0"/>
        <pt x="24" y="1597" on="0"/>
        <pt x="-15" y="1635" on="0"/>
        <pt x="-37" y="1686" on="0"/>
        <pt x="-37" y="1715" on="1"/>
        <pt x="-37" y="1743" on="0"/>
        <pt x="-15" y="1794" on="0"/>
        <pt x="24" y="1831" on="0"/>
        <pt x="76" y="1853" on="0"/>
      </contour>
      <contour>
        <pt x="587" y="1853" on="1"/>
        <pt x="615" y="1853" on="0"/>
        <pt x="665" y="1831" on="0"/>
        <pt x="703" y="1793" on="0"/>
        <pt x="725" y="1743" on="0"/>
        <pt x="725" y="1715" on="1"/>
        <pt x="725" y="1686" on="0"/>
        <pt x="703" y="1635" on="0"/>
        <pt x="666" y="1597" on="0"/>
        <pt x="615" y="1575" on="0"/>
        <pt x="587" y="1575" on="1"/>
        <pt x="558" y="1575" on="0"/>
        <pt x="506" y="1597" on="0"/>
        <pt x="467" y="1635" on="0"/>
        <pt x="445" y="1686" on="0"/>
        <pt x="445" y="1715" on="1"/>
        <pt x="445" y="1743" on="0"/>
        <pt x="467" y="1794" on="0"/>
        <pt x="506" y="1831" on="0"/>
        <pt x="558" y="1853" on="0"/>
      </contour>
      <contour>
        <pt x="483" y="1438" on="1"/>
        <pt x="483" y="0" on="1"/>
        <pt x="204" y="0" on="1"/>
        <pt x="204" y="1438" on="1"/>
      </contour>
    </TTGlyph>
    <TTGlyph name="Idotaccent" xMin="202" yMin="0" xMax="483" yMax="1853">
      <contour>
        <pt x="344" y="1853" on="1"/>
        <pt x="372" y="1853" on="0"/>
        <pt x="422" y="1831" on="0"/>
        <pt x="460" y="1793" on="0"/>
        <pt x="482" y="1743" on="0"/>
        <pt x="482" y="1715" on="1"/>
        <pt x="482" y="1686" on="0"/>
        <pt x="460" y="1635" on="0"/>
        <pt x="423" y="1597" on="0"/>
        <pt x="372" y="1575" on="0"/>
        <pt x="344" y="1575" on="1"/>
        <pt x="315" y="1575" on="0"/>
        <pt x="263" y="1597" on="0"/>
        <pt x="224" y="1635" on="0"/>
        <pt x="202" y="1686" on="0"/>
        <pt x="202" y="1715" on="1"/>
        <pt x="202" y="1743" on="0"/>
        <pt x="224" y="1794" on="0"/>
        <pt x="263" y="1831" on="0"/>
        <pt x="315" y="1853" on="0"/>
      </contour>
      <contour>
        <pt x="483" y="1438" on="1"/>
        <pt x="483" y="0" on="1"/>
        <pt x="204" y="0" on="1"/>
        <pt x="204" y="1438" on="1"/>
      </contour>
    </TTGlyph>
    <TTGlyph name="Igrave" xMin="86" yMin="0" xMax="483" yMax="2064">
      <contour>
        <pt x="266" y="1578" on="1"/>
        <pt x="221" y="1649" on="0"/>
        <pt x="153" y="1751" on="0"/>
        <pt x="108" y="1831" on="0"/>
        <pt x="86" y="1900" on="0"/>
        <pt x="86" y="1938" on="1"/>
        <pt x="86" y="1970" on="0"/>
        <pt x="108" y="2017" on="0"/>
        <pt x="146" y="2049" on="0"/>
        <pt x="196" y="2064" on="0"/>
        <pt x="224" y="2064" on="1"/>
        <pt x="264" y="2064" on="0"/>
        <pt x="349" y="2035" on="0"/>
        <pt x="385" y="2009" on="1"/>
        <pt x="327" y="1840" on="1"/>
        <pt x="422" y="1578" on="1"/>
      </contour>
      <contour>
        <pt x="483" y="1438" on="1"/>
        <pt x="483" y="0" on="1"/>
        <pt x="204" y="0" on="1"/>
        <pt x="204" y="1438" on="1"/>
      </contour>
    </TTGlyph>
    <TTGlyph name="Imacron" xMin="42" yMin="0" xMax="647" yMax="1805">
      <contour>
        <pt x="647" y="1805" on="1"/>
        <pt x="647" y="1634" on="1"/>
        <pt x="42" y="1634" on="1"/>
        <pt x="42" y="1805" on="1"/>
      </contour>
      <contour>
        <pt x="483" y="1438" on="1"/>
        <pt x="483" y="0" on="1"/>
        <pt x="204" y="0" on="1"/>
        <pt x="204" y="1438" on="1"/>
      </contour>
    </TTGlyph>
    <TTGlyph name="Iogonek" xMin="154" yMin="-408" xMax="503" yMax="1438">
      <contour>
        <pt x="428" y="0" on="1"/>
        <pt x="398" y="-31" on="0"/>
        <pt x="352" y="-83" on="0"/>
        <pt x="320" y="-131" on="0"/>
        <pt x="303" y="-179" on="0"/>
        <pt x="303" y="-204" on="1"/>
        <pt x="303" y="-252" on="0"/>
        <pt x="346" y="-291" on="0"/>
        <pt x="385" y="-291" on="1"/>
        <pt x="409" y="-291" on="0"/>
        <pt x="469" y="-277" on="0"/>
        <pt x="503" y="-266" on="1"/>
        <pt x="497" y="-361" on="1"/>
        <pt x="459" y="-383" on="0"/>
        <pt x="380" y="-408" on="0"/>
        <pt x="325" y="-408" on="1"/>
        <pt x="288" y="-408" on="0"/>
        <pt x="225" y="-386" on="0"/>
        <pt x="180" y="-343" on="0"/>
        <pt x="154" y="-281" on="0"/>
        <pt x="154" y="-242" on="1"/>
        <pt x="154" y="-205" on="0"/>
        <pt x="175" y="-144" on="0"/>
        <pt x="214" y="-87" on="0"/>
        <pt x="268" y="-32" on="0"/>
        <pt x="302" y="0" on="1"/>
        <pt x="204" y="0" on="1"/>
        <pt x="204" y="1438" on="1"/>
        <pt x="483" y="1438" on="1"/>
        <pt x="483" y="0" on="1"/>
      </contour>
    </TTGlyph>
    <TTGlyph name="J" xMin="124" yMin="-273" xMax="625" yMax="1438">
      <contour>
        <pt x="625" y="1438" on="1"/>
        <pt x="625" y="429" on="1"/>
        <pt x="625" y="300" on="0"/>
        <pt x="604" y="104" on="0"/>
        <pt x="571" y="28" on="1"/>
        <pt x="553" y="-12" on="0"/>
        <pt x="499" y="-90" on="0"/>
        <pt x="418" y="-165" on="0"/>
        <pt x="309" y="-237" on="0"/>
        <pt x="236" y="-273" on="1"/>
        <pt x="124" y="-119" on="1"/>
        <pt x="177" y="-72" on="0"/>
        <pt x="260" y="7" on="0"/>
        <pt x="289" y="57" on="1"/>
        <pt x="317" y="107" on="0"/>
        <pt x="346" y="245" on="0"/>
        <pt x="346" y="350" on="1"/>
        <pt x="346" y="1438" on="1"/>
      </contour>
    </TTGlyph>
    <TTGlyph name="K" xMin="184" yMin="0" xMax="1270" yMax="1460">
      <contour>
        <pt x="990" y="1460" on="1"/>
        <pt x="1170" y="1310" on="1"/>
        <pt x="684" y="734" on="1"/>
        <pt x="1270" y="0" on="1"/>
        <pt x="918" y="0" on="1"/>
        <pt x="463" y="615" on="1"/>
        <pt x="463" y="0" on="1"/>
        <pt x="184" y="0" on="1"/>
        <pt x="184" y="1438" on="1"/>
        <pt x="463" y="1438" on="1"/>
        <pt x="463" y="836" on="1"/>
      </contour>
    </TTGlyph>
    <TTGlyph name="Kcommaaccent" xMin="184" yMin="-613" xMax="1270" yMax="1460">
      <contour>
        <pt x="990" y="1460" on="1"/>
        <pt x="1170" y="1310" on="1"/>
        <pt x="684" y="734" on="1"/>
        <pt x="1270" y="0" on="1"/>
        <pt x="918" y="0" on="1"/>
        <pt x="463" y="615" on="1"/>
        <pt x="463" y="0" on="1"/>
        <pt x="184" y="0" on="1"/>
        <pt x="184" y="1438" on="1"/>
        <pt x="463" y="1438" on="1"/>
        <pt x="463" y="836" on="1"/>
      </contour>
      <contour>
        <pt x="524" y="-182" on="1"/>
        <pt x="560" y="-156" on="0"/>
        <pt x="645" y="-127" on="0"/>
        <pt x="685" y="-127" on="1"/>
        <pt x="713" y="-127" on="0"/>
        <pt x="763" y="-142" on="0"/>
        <pt x="801" y="-174" on="0"/>
        <pt x="823" y="-221" on="0"/>
        <pt x="823" y="-253" on="1"/>
        <pt x="823" y="-291" on="0"/>
        <pt x="801" y="-360" on="0"/>
        <pt x="756" y="-440" on="0"/>
        <pt x="688" y="-542" on="0"/>
        <pt x="643" y="-613" on="1"/>
        <pt x="487" y="-613" on="1"/>
        <pt x="582" y="-351" on="1"/>
      </contour>
    </TTGlyph>
    <TTGlyph name="L" xMin="196" yMin="0" xMax="1036" yMax="1438">
      <contour>
        <pt x="475" y="1438" on="1"/>
        <pt x="475" y="205" on="1"/>
        <pt x="1036" y="205" on="1"/>
        <pt x="1036" y="0" on="1"/>
        <pt x="196" y="0" on="1"/>
        <pt x="196" y="1438" on="1"/>
      </contour>
    </TTGlyph>
    <TTGlyph name="Lacute" xMin="196" yMin="0" xMax="1036" yMax="2064">
      <contour>
        <pt x="300" y="2009" on="1"/>
        <pt x="336" y="2035" on="0"/>
        <pt x="421" y="2064" on="0"/>
        <pt x="461" y="2064" on="1"/>
        <pt x="489" y="2064" on="0"/>
        <pt x="539" y="2049" on="0"/>
        <pt x="577" y="2017" on="0"/>
        <pt x="599" y="1970" on="0"/>
        <pt x="599" y="1938" on="1"/>
        <pt x="599" y="1900" on="0"/>
        <pt x="577" y="1831" on="0"/>
        <pt x="532" y="1751" on="0"/>
        <pt x="464" y="1649" on="0"/>
        <pt x="419" y="1578" on="1"/>
        <pt x="263" y="1578" on="1"/>
        <pt x="358" y="1840" on="1"/>
      </contour>
      <contour>
        <pt x="475" y="1438" on="1"/>
        <pt x="475" y="205" on="1"/>
        <pt x="1036" y="205" on="1"/>
        <pt x="1036" y="0" on="1"/>
        <pt x="196" y="0" on="1"/>
        <pt x="196" y="1438" on="1"/>
      </contour>
    </TTGlyph>
    <TTGlyph name="Lcaron" xMin="196" yMin="0" xMax="1088" yMax="1682">
      <contour>
        <pt x="759" y="1622" on="1"/>
        <pt x="799" y="1651" on="0"/>
        <pt x="892" y="1682" on="0"/>
        <pt x="936" y="1682" on="1"/>
        <pt x="966" y="1682" on="0"/>
        <pt x="1021" y="1665" on="0"/>
        <pt x="1063" y="1630" on="0"/>
        <pt x="1088" y="1578" on="0"/>
        <pt x="1088" y="1543" on="1"/>
        <pt x="1088" y="1501" on="0"/>
        <pt x="1064" y="1426" on="0"/>
        <pt x="1014" y="1337" on="0"/>
        <pt x="940" y="1225" on="0"/>
        <pt x="890" y="1147" on="1"/>
        <pt x="718" y="1147" on="1"/>
        <pt x="823" y="1436" on="1"/>
      </contour>
      <contour>
        <pt x="475" y="1438" on="1"/>
        <pt x="475" y="205" on="1"/>
        <pt x="1036" y="205" on="1"/>
        <pt x="1036" y="0" on="1"/>
        <pt x="196" y="0" on="1"/>
        <pt x="196" y="1438" on="1"/>
      </contour>
    </TTGlyph>
    <TTGlyph name="Lcommaaccent" xMin="196" yMin="-613" xMax="1036" yMax="1438">
      <contour>
        <pt x="475" y="1438" on="1"/>
        <pt x="475" y="205" on="1"/>
        <pt x="1036" y="205" on="1"/>
        <pt x="1036" y="0" on="1"/>
        <pt x="196" y="0" on="1"/>
        <pt x="196" y="1438" on="1"/>
      </contour>
      <contour>
        <pt x="481" y="-182" on="1"/>
        <pt x="517" y="-156" on="0"/>
        <pt x="602" y="-127" on="0"/>
        <pt x="642" y="-127" on="1"/>
        <pt x="670" y="-127" on="0"/>
        <pt x="720" y="-142" on="0"/>
        <pt x="758" y="-174" on="0"/>
        <pt x="780" y="-221" on="0"/>
        <pt x="780" y="-253" on="1"/>
        <pt x="780" y="-291" on="0"/>
        <pt x="758" y="-360" on="0"/>
        <pt x="713" y="-440" on="0"/>
        <pt x="645" y="-542" on="0"/>
        <pt x="600" y="-613" on="1"/>
        <pt x="444" y="-613" on="1"/>
        <pt x="539" y="-351" on="1"/>
      </contour>
    </TTGlyph>
    <TTGlyph name="Ldot" xMin="130" yMin="0" xMax="970" yMax="1438">
      <contour>
        <pt x="970" y="0" on="1"/>
        <pt x="130" y="0" on="1"/>
        <pt x="130" y="1438" on="1"/>
        <pt x="409" y="1438" on="1"/>
        <pt x="409" y="205" on="1"/>
        <pt x="970" y="205" on="1"/>
      </contour>
      <contour>
        <pt x="759" y="930" on="1"/>
        <pt x="787" y="930" on="0"/>
        <pt x="837" y="908" on="0"/>
        <pt x="875" y="870" on="0"/>
        <pt x="897" y="820" on="0"/>
        <pt x="897" y="792" on="1"/>
        <pt x="897" y="763" on="0"/>
        <pt x="875" y="712" on="0"/>
        <pt x="838" y="674" on="0"/>
        <pt x="787" y="652" on="0"/>
        <pt x="759" y="652" on="1"/>
        <pt x="730" y="652" on="0"/>
        <pt x="678" y="674" on="0"/>
        <pt x="639" y="712" on="0"/>
        <pt x="617" y="763" on="0"/>
        <pt x="617" y="792" on="1"/>
        <pt x="617" y="820" on="0"/>
        <pt x="639" y="871" on="0"/>
        <pt x="678" y="908" on="0"/>
        <pt x="730" y="930" on="0"/>
      </contour>
    </TTGlyph>
    <TTGlyph name="Lslash" xMin="10" yMin="0" xMax="1046" yMax="1438">
      <contour>
        <pt x="485" y="1438" on="1"/>
        <pt x="485" y="946" on="1"/>
        <pt x="813" y="1130" on="1"/>
        <pt x="813" y="923" on="1"/>
        <pt x="485" y="739" on="1"/>
        <pt x="485" y="205" on="1"/>
        <pt x="1046" y="205" on="1"/>
        <pt x="1046" y="0" on="1"/>
        <pt x="206" y="0" on="1"/>
        <pt x="206" y="582" on="1"/>
        <pt x="10" y="472" on="1"/>
        <pt x="10" y="679" on="1"/>
        <pt x="206" y="789" on="1"/>
        <pt x="206" y="1438" on="1"/>
      </contour>
    </TTGlyph>
    <TTGlyph name="M" xMin="73" yMin="-5" xMax="1795" yMax="1438">
      <contour>
        <pt x="1631" y="1438" on="1"/>
        <pt x="1795" y="0" on="1"/>
        <pt x="1521" y="0" on="1"/>
        <pt x="1403" y="1070" on="1"/>
        <pt x="1397" y="1070" on="1"/>
        <pt x="1088" y="-5" on="1"/>
        <pt x="780" y="-5" on="1"/>
        <pt x="471" y="1070" on="1"/>
        <pt x="465" y="1070" on="1"/>
        <pt x="347" y="0" on="1"/>
        <pt x="73" y="0" on="1"/>
        <pt x="237" y="1438" on="1"/>
        <pt x="603" y="1438" on="1"/>
        <pt x="934" y="285" on="1"/>
        <pt x="1265" y="1438" on="1"/>
      </contour>
    </TTGlyph>
    <TTGlyph name="N" xMin="179" yMin="0" xMax="1396" yMax="1438">
      <contour>
        <pt x="1396" y="1438" on="1"/>
        <pt x="1396" y="0" on="1"/>
        <pt x="1087" y="0" on="1"/>
        <pt x="458" y="1075" on="1"/>
        <pt x="458" y="0" on="1"/>
        <pt x="179" y="0" on="1"/>
        <pt x="179" y="1438" on="1"/>
        <pt x="488" y="1438" on="1"/>
        <pt x="1117" y="363" on="1"/>
        <pt x="1117" y="1438" on="1"/>
      </contour>
    </TTGlyph>
    <TTGlyph name="Nacute" xMin="179" yMin="0" xMax="1396" yMax="2064">
      <contour>
        <pt x="753" y="2009" on="1"/>
        <pt x="789" y="2035" on="0"/>
        <pt x="874" y="2064" on="0"/>
        <pt x="914" y="2064" on="1"/>
        <pt x="942" y="2064" on="0"/>
        <pt x="992" y="2049" on="0"/>
        <pt x="1030" y="2017" on="0"/>
        <pt x="1052" y="1970" on="0"/>
        <pt x="1052" y="1938" on="1"/>
        <pt x="1052" y="1900" on="0"/>
        <pt x="1030" y="1831" on="0"/>
        <pt x="985" y="1751" on="0"/>
        <pt x="917" y="1649" on="0"/>
        <pt x="872" y="1578" on="1"/>
        <pt x="716" y="1578" on="1"/>
        <pt x="811" y="1840" on="1"/>
      </contour>
      <contour>
        <pt x="1396" y="1438" on="1"/>
        <pt x="1396" y="0" on="1"/>
        <pt x="1087" y="0" on="1"/>
        <pt x="458" y="1075" on="1"/>
        <pt x="458" y="0" on="1"/>
        <pt x="179" y="0" on="1"/>
        <pt x="179" y="1438" on="1"/>
        <pt x="488" y="1438" on="1"/>
        <pt x="1117" y="363" on="1"/>
        <pt x="1117" y="1438" on="1"/>
      </contour>
    </TTGlyph>
    <TTGlyph name="Ncaron" xMin="179" yMin="0" xMax="1396" yMax="1919">
      <contour>
        <pt x="1043" y="1919" on="1"/>
        <pt x="1118" y="1832" on="1"/>
        <pt x="787" y="1578" on="1"/>
        <pt x="456" y="1832" on="1"/>
        <pt x="531" y="1919" on="1"/>
        <pt x="787" y="1808" on="1"/>
      </contour>
      <contour>
        <pt x="1396" y="1438" on="1"/>
        <pt x="1396" y="0" on="1"/>
        <pt x="1087" y="0" on="1"/>
        <pt x="458" y="1075" on="1"/>
        <pt x="458" y="0" on="1"/>
        <pt x="179" y="0" on="1"/>
        <pt x="179" y="1438" on="1"/>
        <pt x="488" y="1438" on="1"/>
        <pt x="1117" y="363" on="1"/>
        <pt x="1117" y="1438" on="1"/>
      </contour>
    </TTGlyph>
    <TTGlyph name="Ncommaaccent" xMin="179" yMin="-613" xMax="1396" yMax="1438">
      <contour>
        <pt x="1396" y="1438" on="1"/>
        <pt x="1396" y="0" on="1"/>
        <pt x="1087" y="0" on="1"/>
        <pt x="458" y="1075" on="1"/>
        <pt x="458" y="0" on="1"/>
        <pt x="179" y="0" on="1"/>
        <pt x="179" y="1438" on="1"/>
        <pt x="488" y="1438" on="1"/>
        <pt x="1117" y="363" on="1"/>
        <pt x="1117" y="1438" on="1"/>
      </contour>
      <contour>
        <pt x="656" y="-182" on="1"/>
        <pt x="692" y="-156" on="0"/>
        <pt x="777" y="-127" on="0"/>
        <pt x="817" y="-127" on="1"/>
        <pt x="845" y="-127" on="0"/>
        <pt x="895" y="-142" on="0"/>
        <pt x="933" y="-174" on="0"/>
        <pt x="955" y="-221" on="0"/>
        <pt x="955" y="-253" on="1"/>
        <pt x="955" y="-291" on="0"/>
        <pt x="933" y="-360" on="0"/>
        <pt x="888" y="-440" on="0"/>
        <pt x="820" y="-542" on="0"/>
        <pt x="775" y="-613" on="1"/>
        <pt x="619" y="-613" on="1"/>
        <pt x="714" y="-351" on="1"/>
      </contour>
    </TTGlyph>
    <TTGlyph name="Ntilde" xMin="179" yMin="0" xMax="1396" yMax="1805">
      <contour>
        <pt x="1116" y="1805" on="1"/>
        <pt x="1112" y="1765" on="0"/>
        <pt x="1080" y="1685" on="0"/>
        <pt x="1029" y="1620" on="0"/>
        <pt x="960" y="1580" on="0"/>
        <pt x="918" y="1580" on="1"/>
        <pt x="883" y="1580" on="0"/>
        <pt x="816" y="1602" on="0"/>
        <pt x="752" y="1628" on="0"/>
        <pt x="690" y="1650" on="0"/>
        <pt x="660" y="1650" on="1"/>
        <pt x="623" y="1650" on="0"/>
        <pt x="586" y="1607" on="0"/>
        <pt x="577" y="1570" on="1"/>
        <pt x="458" y="1570" on="1"/>
        <pt x="462" y="1610" on="0"/>
        <pt x="494" y="1690" on="0"/>
        <pt x="545" y="1754" on="0"/>
        <pt x="614" y="1795" on="0"/>
        <pt x="656" y="1795" on="1"/>
        <pt x="691" y="1795" on="0"/>
        <pt x="758" y="1773" on="0"/>
        <pt x="822" y="1747" on="0"/>
        <pt x="884" y="1725" on="0"/>
        <pt x="914" y="1725" on="1"/>
        <pt x="951" y="1725" on="0"/>
        <pt x="988" y="1768" on="0"/>
        <pt x="997" y="1805" on="1"/>
      </contour>
      <contour>
        <pt x="1396" y="1438" on="1"/>
        <pt x="1396" y="0" on="1"/>
        <pt x="1087" y="0" on="1"/>
        <pt x="458" y="1075" on="1"/>
        <pt x="458" y="0" on="1"/>
        <pt x="179" y="0" on="1"/>
        <pt x="179" y="1438" on="1"/>
        <pt x="488" y="1438" on="1"/>
        <pt x="1117" y="363" on="1"/>
        <pt x="1117" y="1438" on="1"/>
      </contour>
    </TTGlyph>
    <TTGlyph name="O" xMin="120" yMin="-24" xMax="1422" yMax="1460">
      <contour>
        <pt x="771" y="1460" on="1"/>
        <pt x="951" y="1460" on="0"/>
        <pt x="1199" y="1351" on="0"/>
        <pt x="1354" y="1155" on="0"/>
        <pt x="1422" y="882" on="0"/>
        <pt x="1422" y="718" on="1"/>
        <pt x="1422" y="554" on="0"/>
        <pt x="1354" y="281" on="0"/>
        <pt x="1199" y="85" on="0"/>
        <pt x="951" y="-24" on="0"/>
        <pt x="771" y="-24" on="1"/>
        <pt x="594" y="-24" on="0"/>
        <pt x="346" y="82" on="0"/>
        <pt x="191" y="276" on="0"/>
        <pt x="120" y="550" on="0"/>
        <pt x="120" y="718" on="1"/>
        <pt x="120" y="886" on="0"/>
        <pt x="191" y="1160" on="0"/>
        <pt x="346" y="1354" on="0"/>
        <pt x="594" y="1460" on="0"/>
      </contour>
      <contour>
        <pt x="771" y="1255" on="1"/>
        <pt x="666" y="1255" on="0"/>
        <pt x="525" y="1187" on="0"/>
        <pt x="440" y="1052" on="0"/>
        <pt x="404" y="851" on="0"/>
        <pt x="404" y="718" on="1"/>
        <pt x="404" y="585" on="0"/>
        <pt x="440" y="384" on="0"/>
        <pt x="525" y="249" on="0"/>
        <pt x="666" y="181" on="0"/>
        <pt x="771" y="181" on="1"/>
        <pt x="875" y="181" on="0"/>
        <pt x="1016" y="248" on="0"/>
        <pt x="1101" y="382" on="0"/>
        <pt x="1138" y="584" on="0"/>
        <pt x="1138" y="718" on="1"/>
        <pt x="1138" y="852" on="0"/>
        <pt x="1101" y="1054" on="0"/>
        <pt x="1016" y="1188" on="0"/>
        <pt x="875" y="1255" on="0"/>
      </contour>
    </TTGlyph>
    <TTGlyph name="OE" xMin="120" yMin="-24" xMax="1913" yMax="1460">
      <contour>
        <pt x="1032" y="48" on="1"/>
        <pt x="974" y="11" on="0"/>
        <pt x="843" y="-24" on="0"/>
        <pt x="771" y="-24" on="1"/>
        <pt x="594" y="-24" on="0"/>
        <pt x="346" y="82" on="0"/>
        <pt x="191" y="276" on="0"/>
        <pt x="120" y="550" on="0"/>
        <pt x="120" y="718" on="1"/>
        <pt x="120" y="886" on="0"/>
        <pt x="191" y="1158" on="0"/>
        <pt x="346" y="1351" on="0"/>
        <pt x="594" y="1458" on="0"/>
        <pt x="771" y="1460" on="1"/>
        <pt x="843" y="1460" on="0"/>
        <pt x="974" y="1425" on="0"/>
        <pt x="1032" y="1388" on="1"/>
        <pt x="1032" y="1438" on="1"/>
        <pt x="1892" y="1438" on="1"/>
        <pt x="1892" y="1233" on="1"/>
        <pt x="1311" y="1233" on="1"/>
        <pt x="1311" y="907" on="1"/>
        <pt x="1722" y="907" on="1"/>
        <pt x="1722" y="702" on="1"/>
        <pt x="1311" y="702" on="1"/>
        <pt x="1311" y="205" on="1"/>
        <pt x="1913" y="205" on="1"/>
        <pt x="1913" y="0" on="1"/>
        <pt x="1032" y="0" on="1"/>
      </contour>
      <contour>
        <pt x="1032" y="1157" on="1"/>
        <pt x="988" y="1206" on="0"/>
        <pt x="861" y="1255" on="0"/>
        <pt x="771" y="1255" on="1"/>
        <pt x="666" y="1255" on="0"/>
        <pt x="525" y="1187" on="0"/>
        <pt x="440" y="1052" on="0"/>
        <pt x="404" y="851" on="0"/>
        <pt x="404" y="718" on="1"/>
        <pt x="404" y="585" on="0"/>
        <pt x="440" y="384" on="0"/>
        <pt x="525" y="249" on="0"/>
        <pt x="666" y="181" on="0"/>
        <pt x="771" y="181" on="1"/>
        <pt x="861" y="181" on="0"/>
        <pt x="988" y="230" on="0"/>
        <pt x="1032" y="279" on="1"/>
      </contour>
    </TTGlyph>
    <TTGlyph name="Oacute" xMin="120" yMin="-24" xMax="1422" yMax="2064">
      <contour>
        <pt x="737" y="2009" on="1"/>
        <pt x="773" y="2035" on="0"/>
        <pt x="858" y="2064" on="0"/>
        <pt x="898" y="2064" on="1"/>
        <pt x="926" y="2064" on="0"/>
        <pt x="976" y="2049" on="0"/>
        <pt x="1014" y="2017" on="0"/>
        <pt x="1036" y="1970" on="0"/>
        <pt x="1036" y="1938" on="1"/>
        <pt x="1036" y="1900" on="0"/>
        <pt x="1014" y="1831" on="0"/>
        <pt x="969" y="1751" on="0"/>
        <pt x="901" y="1649" on="0"/>
        <pt x="856" y="1578" on="1"/>
        <pt x="700" y="1578" on="1"/>
        <pt x="795" y="1840" on="1"/>
      </contour>
      <contour>
        <pt x="771" y="1460" on="1"/>
        <pt x="951" y="1460" on="0"/>
        <pt x="1199" y="1351" on="0"/>
        <pt x="1354" y="1155" on="0"/>
        <pt x="1422" y="882" on="0"/>
        <pt x="1422" y="718" on="1"/>
        <pt x="1422" y="554" on="0"/>
        <pt x="1354" y="281" on="0"/>
        <pt x="1199" y="85" on="0"/>
        <pt x="951" y="-24" on="0"/>
        <pt x="771" y="-24" on="1"/>
        <pt x="594" y="-24" on="0"/>
        <pt x="346" y="82" on="0"/>
        <pt x="191" y="276" on="0"/>
        <pt x="120" y="550" on="0"/>
        <pt x="120" y="718" on="1"/>
        <pt x="120" y="886" on="0"/>
        <pt x="191" y="1160" on="0"/>
        <pt x="346" y="1354" on="0"/>
        <pt x="594" y="1460" on="0"/>
      </contour>
      <contour>
        <pt x="771" y="1255" on="1"/>
        <pt x="666" y="1255" on="0"/>
        <pt x="525" y="1187" on="0"/>
        <pt x="440" y="1052" on="0"/>
        <pt x="404" y="851" on="0"/>
        <pt x="404" y="718" on="1"/>
        <pt x="404" y="585" on="0"/>
        <pt x="440" y="384" on="0"/>
        <pt x="525" y="249" on="0"/>
        <pt x="666" y="181" on="0"/>
        <pt x="771" y="181" on="1"/>
        <pt x="875" y="181" on="0"/>
        <pt x="1016" y="248" on="0"/>
        <pt x="1101" y="382" on="0"/>
        <pt x="1138" y="584" on="0"/>
        <pt x="1138" y="718" on="1"/>
        <pt x="1138" y="852" on="0"/>
        <pt x="1101" y="1054" on="0"/>
        <pt x="1016" y="1188" on="0"/>
        <pt x="875" y="1255" on="0"/>
      </contour>
    </TTGlyph>
    <TTGlyph name="Ocircumflex" xMin="120" yMin="-24" xMax="1422" yMax="1919">
      <contour>
        <pt x="771" y="1919" on="1"/>
        <pt x="1102" y="1665" on="1"/>
        <pt x="1027" y="1578" on="1"/>
        <pt x="771" y="1689" on="1"/>
        <pt x="515" y="1578" on="1"/>
        <pt x="440" y="1665" on="1"/>
      </contour>
      <contour>
        <pt x="771" y="1460" on="1"/>
        <pt x="951" y="1460" on="0"/>
        <pt x="1199" y="1351" on="0"/>
        <pt x="1354" y="1155" on="0"/>
        <pt x="1422" y="882" on="0"/>
        <pt x="1422" y="718" on="1"/>
        <pt x="1422" y="554" on="0"/>
        <pt x="1354" y="281" on="0"/>
        <pt x="1199" y="85" on="0"/>
        <pt x="951" y="-24" on="0"/>
        <pt x="771" y="-24" on="1"/>
        <pt x="594" y="-24" on="0"/>
        <pt x="346" y="82" on="0"/>
        <pt x="191" y="276" on="0"/>
        <pt x="120" y="550" on="0"/>
        <pt x="120" y="718" on="1"/>
        <pt x="120" y="886" on="0"/>
        <pt x="191" y="1160" on="0"/>
        <pt x="346" y="1354" on="0"/>
        <pt x="594" y="1460" on="0"/>
      </contour>
      <contour>
        <pt x="771" y="1255" on="1"/>
        <pt x="666" y="1255" on="0"/>
        <pt x="525" y="1187" on="0"/>
        <pt x="440" y="1052" on="0"/>
        <pt x="404" y="851" on="0"/>
        <pt x="404" y="718" on="1"/>
        <pt x="404" y="585" on="0"/>
        <pt x="440" y="384" on="0"/>
        <pt x="525" y="249" on="0"/>
        <pt x="666" y="181" on="0"/>
        <pt x="771" y="181" on="1"/>
        <pt x="875" y="181" on="0"/>
        <pt x="1016" y="248" on="0"/>
        <pt x="1101" y="382" on="0"/>
        <pt x="1138" y="584" on="0"/>
        <pt x="1138" y="718" on="1"/>
        <pt x="1138" y="852" on="0"/>
        <pt x="1101" y="1054" on="0"/>
        <pt x="1016" y="1188" on="0"/>
        <pt x="875" y="1255" on="0"/>
      </contour>
    </TTGlyph>
    <TTGlyph name="Odieresis" xMin="120" yMin="-24" xMax="1422" yMax="1853">
      <contour>
        <pt x="532" y="1853" on="1"/>
        <pt x="560" y="1853" on="0"/>
        <pt x="610" y="1831" on="0"/>
        <pt x="648" y="1793" on="0"/>
        <pt x="670" y="1743" on="0"/>
        <pt x="670" y="1715" on="1"/>
        <pt x="670" y="1686" on="0"/>
        <pt x="648" y="1635" on="0"/>
        <pt x="611" y="1597" on="0"/>
        <pt x="560" y="1575" on="0"/>
        <pt x="532" y="1575" on="1"/>
        <pt x="503" y="1575" on="0"/>
        <pt x="451" y="1597" on="0"/>
        <pt x="412" y="1635" on="0"/>
        <pt x="390" y="1686" on="0"/>
        <pt x="390" y="1715" on="1"/>
        <pt x="390" y="1743" on="0"/>
        <pt x="412" y="1794" on="0"/>
        <pt x="451" y="1831" on="0"/>
        <pt x="503" y="1853" on="0"/>
      </contour>
      <contour>
        <pt x="1014" y="1853" on="1"/>
        <pt x="1042" y="1853" on="0"/>
        <pt x="1092" y="1831" on="0"/>
        <pt x="1130" y="1793" on="0"/>
        <pt x="1152" y="1743" on="0"/>
        <pt x="1152" y="1715" on="1"/>
        <pt x="1152" y="1686" on="0"/>
        <pt x="1130" y="1635" on="0"/>
        <pt x="1093" y="1597" on="0"/>
        <pt x="1042" y="1575" on="0"/>
        <pt x="1014" y="1575" on="1"/>
        <pt x="985" y="1575" on="0"/>
        <pt x="933" y="1597" on="0"/>
        <pt x="894" y="1635" on="0"/>
        <pt x="872" y="1686" on="0"/>
        <pt x="872" y="1715" on="1"/>
        <pt x="872" y="1743" on="0"/>
        <pt x="894" y="1794" on="0"/>
        <pt x="933" y="1831" on="0"/>
        <pt x="985" y="1853" on="0"/>
      </contour>
      <contour>
        <pt x="771" y="1460" on="1"/>
        <pt x="951" y="1460" on="0"/>
        <pt x="1199" y="1351" on="0"/>
        <pt x="1354" y="1155" on="0"/>
        <pt x="1422" y="882" on="0"/>
        <pt x="1422" y="718" on="1"/>
        <pt x="1422" y="554" on="0"/>
        <pt x="1354" y="281" on="0"/>
        <pt x="1199" y="85" on="0"/>
        <pt x="951" y="-24" on="0"/>
        <pt x="771" y="-24" on="1"/>
        <pt x="594" y="-24" on="0"/>
        <pt x="346" y="82" on="0"/>
        <pt x="191" y="276" on="0"/>
        <pt x="120" y="550" on="0"/>
        <pt x="120" y="718" on="1"/>
        <pt x="120" y="886" on="0"/>
        <pt x="191" y="1160" on="0"/>
        <pt x="346" y="1354" on="0"/>
        <pt x="594" y="1460" on="0"/>
      </contour>
      <contour>
        <pt x="771" y="1255" on="1"/>
        <pt x="666" y="1255" on="0"/>
        <pt x="525" y="1187" on="0"/>
        <pt x="440" y="1052" on="0"/>
        <pt x="404" y="851" on="0"/>
        <pt x="404" y="718" on="1"/>
        <pt x="404" y="585" on="0"/>
        <pt x="440" y="384" on="0"/>
        <pt x="525" y="249" on="0"/>
        <pt x="666" y="181" on="0"/>
        <pt x="771" y="181" on="1"/>
        <pt x="875" y="181" on="0"/>
        <pt x="1016" y="248" on="0"/>
        <pt x="1101" y="382" on="0"/>
        <pt x="1138" y="584" on="0"/>
        <pt x="1138" y="718" on="1"/>
        <pt x="1138" y="852" on="0"/>
        <pt x="1101" y="1054" on="0"/>
        <pt x="1016" y="1188" on="0"/>
        <pt x="875" y="1255" on="0"/>
      </contour>
    </TTGlyph>
    <TTGlyph name="Ograve" xMin="120" yMin="-24" xMax="1422" yMax="2064">
      <contour>
        <pt x="693" y="1578" on="1"/>
        <pt x="648" y="1649" on="0"/>
        <pt x="580" y="1751" on="0"/>
        <pt x="535" y="1831" on="0"/>
        <pt x="513" y="1900" on="0"/>
        <pt x="513" y="1938" on="1"/>
        <pt x="513" y="1970" on="0"/>
        <pt x="535" y="2017" on="0"/>
        <pt x="573" y="2049" on="0"/>
        <pt x="623" y="2064" on="0"/>
        <pt x="651" y="2064" on="1"/>
        <pt x="691" y="2064" on="0"/>
        <pt x="776" y="2035" on="0"/>
        <pt x="812" y="2009" on="1"/>
        <pt x="754" y="1840" on="1"/>
        <pt x="849" y="1578" on="1"/>
      </contour>
      <contour>
        <pt x="771" y="1460" on="1"/>
        <pt x="951" y="1460" on="0"/>
        <pt x="1199" y="1351" on="0"/>
        <pt x="1354" y="1155" on="0"/>
        <pt x="1422" y="882" on="0"/>
        <pt x="1422" y="718" on="1"/>
        <pt x="1422" y="554" on="0"/>
        <pt x="1354" y="281" on="0"/>
        <pt x="1199" y="85" on="0"/>
        <pt x="951" y="-24" on="0"/>
        <pt x="771" y="-24" on="1"/>
        <pt x="594" y="-24" on="0"/>
        <pt x="346" y="82" on="0"/>
        <pt x="191" y="276" on="0"/>
        <pt x="120" y="550" on="0"/>
        <pt x="120" y="718" on="1"/>
        <pt x="120" y="886" on="0"/>
        <pt x="191" y="1160" on="0"/>
        <pt x="346" y="1354" on="0"/>
        <pt x="594" y="1460" on="0"/>
      </contour>
      <contour>
        <pt x="771" y="1255" on="1"/>
        <pt x="666" y="1255" on="0"/>
        <pt x="525" y="1187" on="0"/>
        <pt x="440" y="1052" on="0"/>
        <pt x="404" y="851" on="0"/>
        <pt x="404" y="718" on="1"/>
        <pt x="404" y="585" on="0"/>
        <pt x="440" y="384" on="0"/>
        <pt x="525" y="249" on="0"/>
        <pt x="666" y="181" on="0"/>
        <pt x="771" y="181" on="1"/>
        <pt x="875" y="181" on="0"/>
        <pt x="1016" y="248" on="0"/>
        <pt x="1101" y="382" on="0"/>
        <pt x="1138" y="584" on="0"/>
        <pt x="1138" y="718" on="1"/>
        <pt x="1138" y="852" on="0"/>
        <pt x="1101" y="1054" on="0"/>
        <pt x="1016" y="1188" on="0"/>
        <pt x="875" y="1255" on="0"/>
      </contour>
    </TTGlyph>
    <TTGlyph name="Ohungarumlaut" xMin="120" yMin="-24" xMax="1422" yMax="2064">
      <contour>
        <pt x="552" y="2009" on="1"/>
        <pt x="588" y="2035" on="0"/>
        <pt x="673" y="2064" on="0"/>
        <pt x="713" y="2064" on="1"/>
        <pt x="741" y="2064" on="0"/>
        <pt x="791" y="2049" on="0"/>
        <pt x="829" y="2017" on="0"/>
        <pt x="851" y="1970" on="0"/>
        <pt x="851" y="1938" on="1"/>
        <pt x="851" y="1900" on="0"/>
        <pt x="829" y="1831" on="0"/>
        <pt x="784" y="1751" on="0"/>
        <pt x="716" y="1649" on="0"/>
        <pt x="671" y="1578" on="1"/>
        <pt x="515" y="1578" on="1"/>
        <pt x="610" y="1840" on="1"/>
      </contour>
      <contour>
        <pt x="952" y="2009" on="1"/>
        <pt x="988" y="2035" on="0"/>
        <pt x="1073" y="2064" on="0"/>
        <pt x="1113" y="2064" on="1"/>
        <pt x="1141" y="2064" on="0"/>
        <pt x="1191" y="2049" on="0"/>
        <pt x="1229" y="2017" on="0"/>
        <pt x="1251" y="1970" on="0"/>
        <pt x="1251" y="1938" on="1"/>
        <pt x="1251" y="1900" on="0"/>
        <pt x="1229" y="1831" on="0"/>
        <pt x="1184" y="1751" on="0"/>
        <pt x="1116" y="1649" on="0"/>
        <pt x="1071" y="1578" on="1"/>
        <pt x="915" y="1578" on="1"/>
        <pt x="1010" y="1840" on="1"/>
      </contour>
      <contour>
        <pt x="771" y="1460" on="1"/>
        <pt x="951" y="1460" on="0"/>
        <pt x="1199" y="1351" on="0"/>
        <pt x="1354" y="1155" on="0"/>
        <pt x="1422" y="882" on="0"/>
        <pt x="1422" y="718" on="1"/>
        <pt x="1422" y="554" on="0"/>
        <pt x="1354" y="281" on="0"/>
        <pt x="1199" y="85" on="0"/>
        <pt x="951" y="-24" on="0"/>
        <pt x="771" y="-24" on="1"/>
        <pt x="594" y="-24" on="0"/>
        <pt x="346" y="82" on="0"/>
        <pt x="191" y="276" on="0"/>
        <pt x="120" y="550" on="0"/>
        <pt x="120" y="718" on="1"/>
        <pt x="120" y="886" on="0"/>
        <pt x="191" y="1160" on="0"/>
        <pt x="346" y="1354" on="0"/>
        <pt x="594" y="1460" on="0"/>
      </contour>
      <contour>
        <pt x="771" y="1255" on="1"/>
        <pt x="666" y="1255" on="0"/>
        <pt x="525" y="1187" on="0"/>
        <pt x="440" y="1052" on="0"/>
        <pt x="404" y="851" on="0"/>
        <pt x="404" y="718" on="1"/>
        <pt x="404" y="585" on="0"/>
        <pt x="440" y="384" on="0"/>
        <pt x="525" y="249" on="0"/>
        <pt x="666" y="181" on="0"/>
        <pt x="771" y="181" on="1"/>
        <pt x="875" y="181" on="0"/>
        <pt x="1016" y="248" on="0"/>
        <pt x="1101" y="382" on="0"/>
        <pt x="1138" y="584" on="0"/>
        <pt x="1138" y="718" on="1"/>
        <pt x="1138" y="852" on="0"/>
        <pt x="1101" y="1054" on="0"/>
        <pt x="1016" y="1188" on="0"/>
        <pt x="875" y="1255" on="0"/>
      </contour>
    </TTGlyph>
    <TTGlyph name="Omacron" xMin="120" yMin="-24" xMax="1422" yMax="1805">
      <contour>
        <pt x="1074" y="1805" on="1"/>
        <pt x="1074" y="1634" on="1"/>
        <pt x="469" y="1634" on="1"/>
        <pt x="469" y="1805" on="1"/>
      </contour>
      <contour>
        <pt x="771" y="1460" on="1"/>
        <pt x="951" y="1460" on="0"/>
        <pt x="1199" y="1351" on="0"/>
        <pt x="1354" y="1155" on="0"/>
        <pt x="1422" y="882" on="0"/>
        <pt x="1422" y="718" on="1"/>
        <pt x="1422" y="554" on="0"/>
        <pt x="1354" y="281" on="0"/>
        <pt x="1199" y="85" on="0"/>
        <pt x="951" y="-24" on="0"/>
        <pt x="771" y="-24" on="1"/>
        <pt x="594" y="-24" on="0"/>
        <pt x="346" y="82" on="0"/>
        <pt x="191" y="276" on="0"/>
        <pt x="120" y="550" on="0"/>
        <pt x="120" y="718" on="1"/>
        <pt x="120" y="886" on="0"/>
        <pt x="191" y="1160" on="0"/>
        <pt x="346" y="1354" on="0"/>
        <pt x="594" y="1460" on="0"/>
      </contour>
      <contour>
        <pt x="771" y="1255" on="1"/>
        <pt x="666" y="1255" on="0"/>
        <pt x="525" y="1187" on="0"/>
        <pt x="440" y="1052" on="0"/>
        <pt x="404" y="851" on="0"/>
        <pt x="404" y="718" on="1"/>
        <pt x="404" y="585" on="0"/>
        <pt x="440" y="384" on="0"/>
        <pt x="525" y="249" on="0"/>
        <pt x="666" y="181" on="0"/>
        <pt x="771" y="181" on="1"/>
        <pt x="875" y="181" on="0"/>
        <pt x="1016" y="248" on="0"/>
        <pt x="1101" y="382" on="0"/>
        <pt x="1138" y="584" on="0"/>
        <pt x="1138" y="718" on="1"/>
        <pt x="1138" y="852" on="0"/>
        <pt x="1101" y="1054" on="0"/>
        <pt x="1016" y="1188" on="0"/>
        <pt x="875" y="1255" on="0"/>
      </contour>
    </TTGlyph>
    <TTGlyph name="Oslash" xMin="120" yMin="-24" xMax="1422" yMax="1460">
      <contour>
        <pt x="1243" y="1291" on="1"/>
        <pt x="1338" y="1193" on="0"/>
        <pt x="1422" y="899" on="0"/>
        <pt x="1422" y="718" on="1"/>
        <pt x="1422" y="554" on="0"/>
        <pt x="1354" y="281" on="0"/>
        <pt x="1199" y="85" on="0"/>
        <pt x="951" y="-24" on="0"/>
        <pt x="771" y="-24" on="1"/>
        <pt x="587" y="-24" on="0"/>
        <pt x="457" y="35" on="1"/>
        <pt x="435" y="0" on="1"/>
        <pt x="206" y="0" on="1"/>
        <pt x="297" y="146" on="1"/>
        <pt x="204" y="243" on="0"/>
        <pt x="120" y="535" on="0"/>
        <pt x="120" y="718" on="1"/>
        <pt x="120" y="886" on="0"/>
        <pt x="191" y="1160" on="0"/>
        <pt x="346" y="1354" on="0"/>
        <pt x="594" y="1460" on="0"/>
        <pt x="771" y="1460" on="1"/>
        <pt x="865" y="1460" on="0"/>
        <pt x="1019" y="1431" on="0"/>
        <pt x="1083" y="1402" on="1"/>
        <pt x="1106" y="1438" on="1"/>
        <pt x="1335" y="1438" on="1"/>
      </contour>
      <contour>
        <pt x="964" y="1212" on="1"/>
        <pt x="890" y="1255" on="0"/>
        <pt x="771" y="1255" on="1"/>
        <pt x="666" y="1255" on="0"/>
        <pt x="525" y="1187" on="0"/>
        <pt x="440" y="1052" on="0"/>
        <pt x="404" y="851" on="0"/>
        <pt x="404" y="718" on="1"/>
        <pt x="404" y="615" on="0"/>
        <pt x="425" y="451" on="0"/>
        <pt x="448" y="387" on="1"/>
      </contour>
      <contour>
        <pt x="576" y="225" on="1"/>
        <pt x="653" y="181" on="0"/>
        <pt x="771" y="181" on="1"/>
        <pt x="875" y="181" on="0"/>
        <pt x="1016" y="248" on="0"/>
        <pt x="1101" y="382" on="0"/>
        <pt x="1138" y="584" on="0"/>
        <pt x="1138" y="718" on="1"/>
        <pt x="1138" y="821" on="0"/>
        <pt x="1117" y="988" on="0"/>
        <pt x="1093" y="1051" on="1"/>
      </contour>
    </TTGlyph>
    <TTGlyph name="Otilde" xMin="120" yMin="-24" xMax="1422" yMax="1805">
      <contour>
        <pt x="1100" y="1805" on="1"/>
        <pt x="1096" y="1765" on="0"/>
        <pt x="1064" y="1685" on="0"/>
        <pt x="1013" y="1620" on="0"/>
        <pt x="944" y="1580" on="0"/>
        <pt x="902" y="1580" on="1"/>
        <pt x="867" y="1580" on="0"/>
        <pt x="800" y="1602" on="0"/>
        <pt x="736" y="1628" on="0"/>
        <pt x="674" y="1650" on="0"/>
        <pt x="644" y="1650" on="1"/>
        <pt x="607" y="1650" on="0"/>
        <pt x="570" y="1607" on="0"/>
        <pt x="561" y="1570" on="1"/>
        <pt x="442" y="1570" on="1"/>
        <pt x="446" y="1610" on="0"/>
        <pt x="478" y="1690" on="0"/>
        <pt x="529" y="1754" on="0"/>
        <pt x="598" y="1795" on="0"/>
        <pt x="640" y="1795" on="1"/>
        <pt x="675" y="1795" on="0"/>
        <pt x="742" y="1773" on="0"/>
        <pt x="806" y="1747" on="0"/>
        <pt x="868" y="1725" on="0"/>
        <pt x="898" y="1725" on="1"/>
        <pt x="935" y="1725" on="0"/>
        <pt x="972" y="1768" on="0"/>
        <pt x="981" y="1805" on="1"/>
      </contour>
      <contour>
        <pt x="771" y="1460" on="1"/>
        <pt x="951" y="1460" on="0"/>
        <pt x="1199" y="1351" on="0"/>
        <pt x="1354" y="1155" on="0"/>
        <pt x="1422" y="882" on="0"/>
        <pt x="1422" y="718" on="1"/>
        <pt x="1422" y="554" on="0"/>
        <pt x="1354" y="281" on="0"/>
        <pt x="1199" y="85" on="0"/>
        <pt x="951" y="-24" on="0"/>
        <pt x="771" y="-24" on="1"/>
        <pt x="594" y="-24" on="0"/>
        <pt x="346" y="82" on="0"/>
        <pt x="191" y="276" on="0"/>
        <pt x="120" y="550" on="0"/>
        <pt x="120" y="718" on="1"/>
        <pt x="120" y="886" on="0"/>
        <pt x="191" y="1160" on="0"/>
        <pt x="346" y="1354" on="0"/>
        <pt x="594" y="1460" on="0"/>
      </contour>
      <contour>
        <pt x="771" y="1255" on="1"/>
        <pt x="666" y="1255" on="0"/>
        <pt x="525" y="1187" on="0"/>
        <pt x="440" y="1052" on="0"/>
        <pt x="404" y="851" on="0"/>
        <pt x="404" y="718" on="1"/>
        <pt x="404" y="585" on="0"/>
        <pt x="440" y="384" on="0"/>
        <pt x="525" y="249" on="0"/>
        <pt x="666" y="181" on="0"/>
        <pt x="771" y="181" on="1"/>
        <pt x="875" y="181" on="0"/>
        <pt x="1016" y="248" on="0"/>
        <pt x="1101" y="382" on="0"/>
        <pt x="1138" y="584" on="0"/>
        <pt x="1138" y="718" on="1"/>
        <pt x="1138" y="852" on="0"/>
        <pt x="1101" y="1054" on="0"/>
        <pt x="1016" y="1188" on="0"/>
        <pt x="875" y="1255" on="0"/>
      </contour>
    </TTGlyph>
    <TTGlyph name="P" xMin="181" yMin="0" xMax="1182" yMax="1438">
      <contour>
        <pt x="738" y="1438" on="1"/>
        <pt x="843" y="1438" on="0"/>
        <pt x="1008" y="1381" on="0"/>
        <pt x="1122" y="1271" on="0"/>
        <pt x="1182" y="1109" on="0"/>
        <pt x="1182" y="1004" on="1"/>
        <pt x="1182" y="890" on="0"/>
        <pt x="1108" y="719" on="0"/>
        <pt x="970" y="605" on="0"/>
        <pt x="774" y="547" on="0"/>
        <pt x="653" y="547" on="1"/>
        <pt x="597" y="547" on="0"/>
        <pt x="498" y="554" on="0"/>
        <pt x="460" y="558" on="1"/>
        <pt x="460" y="0" on="1"/>
        <pt x="181" y="0" on="1"/>
        <pt x="181" y="1438" on="1"/>
      </contour>
      <contour>
        <pt x="460" y="749" on="1"/>
        <pt x="492" y="744" on="0"/>
        <pt x="555" y="739" on="0"/>
        <pt x="585" y="739" on="1"/>
        <pt x="662" y="739" on="0"/>
        <pt x="779" y="765" on="0"/>
        <pt x="858" y="825" on="0"/>
        <pt x="898" y="921" on="0"/>
        <pt x="898" y="992" on="1"/>
        <pt x="898" y="1062" on="0"/>
        <pt x="868" y="1159" on="0"/>
        <pt x="802" y="1219" on="0"/>
        <pt x="698" y="1246" on="0"/>
        <pt x="624" y="1246" on="1"/>
        <pt x="460" y="1246" on="1"/>
      </contour>
    </TTGlyph>
    <TTGlyph name="Q" xMin="120" yMin="-359" xMax="1422" yMax="1460">
      <contour>
        <pt x="771" y="1460" on="1"/>
        <pt x="951" y="1460" on="0"/>
        <pt x="1199" y="1351" on="0"/>
        <pt x="1354" y="1155" on="0"/>
        <pt x="1422" y="882" on="0"/>
        <pt x="1422" y="718" on="1"/>
        <pt x="1422" y="588" on="0"/>
        <pt x="1380" y="363" on="0"/>
        <pt x="1287" y="181" on="0"/>
        <pt x="1139" y="50" on="0"/>
        <pt x="1033" y="14" on="1"/>
        <pt x="1079" y="-22" on="0"/>
        <pt x="1153" y="-79" on="0"/>
        <pt x="1227" y="-125" on="0"/>
        <pt x="1309" y="-160" on="0"/>
        <pt x="1364" y="-173" on="1"/>
        <pt x="1358" y="-200" on="0"/>
        <pt x="1347" y="-246" on="0"/>
        <pt x="1333" y="-289" on="0"/>
        <pt x="1314" y="-333" on="0"/>
        <pt x="1302" y="-359" on="1"/>
        <pt x="1248" y="-346" on="0"/>
        <pt x="1167" y="-320" on="0"/>
        <pt x="1095" y="-286" on="0"/>
        <pt x="1023" y="-240" on="0"/>
        <pt x="933" y="-174" on="0"/>
        <pt x="817" y="-84" on="0"/>
        <pt x="737" y="-23" on="1"/>
        <pt x="569" y="-18" on="0"/>
        <pt x="335" y="92" on="0"/>
        <pt x="187" y="286" on="0"/>
        <pt x="120" y="554" on="0"/>
        <pt x="120" y="718" on="1"/>
        <pt x="120" y="886" on="0"/>
        <pt x="191" y="1160" on="0"/>
        <pt x="346" y="1354" on="0"/>
        <pt x="594" y="1460" on="0"/>
      </contour>
      <contour>
        <pt x="771" y="1255" on="1"/>
        <pt x="666" y="1255" on="0"/>
        <pt x="525" y="1187" on="0"/>
        <pt x="440" y="1052" on="0"/>
        <pt x="404" y="851" on="0"/>
        <pt x="404" y="718" on="1"/>
        <pt x="404" y="585" on="0"/>
        <pt x="440" y="384" on="0"/>
        <pt x="525" y="249" on="0"/>
        <pt x="666" y="181" on="0"/>
        <pt x="771" y="181" on="1"/>
        <pt x="875" y="181" on="0"/>
        <pt x="1016" y="248" on="0"/>
        <pt x="1101" y="382" on="0"/>
        <pt x="1138" y="584" on="0"/>
        <pt x="1138" y="718" on="1"/>
        <pt x="1138" y="852" on="0"/>
        <pt x="1101" y="1054" on="0"/>
        <pt x="1016" y="1188" on="0"/>
        <pt x="875" y="1255" on="0"/>
      </contour>
    </TTGlyph>
    <TTGlyph name="R" xMin="181" yMin="0" xMax="1268" yMax="1438">
      <contour>
        <pt x="711" y="1438" on="1"/>
        <pt x="808" y="1438" on="0"/>
        <pt x="972" y="1389" on="0"/>
        <pt x="1092" y="1291" on="0"/>
        <pt x="1159" y="1141" on="0"/>
        <pt x="1159" y="1041" on="1"/>
        <pt x="1159" y="960" on="0"/>
        <pt x="1105" y="826" on="0"/>
        <pt x="1007" y="727" on="0"/>
        <pt x="873" y="665" on="0"/>
        <pt x="792" y="655" on="1"/>
        <pt x="791" y="652" on="1"/>
        <pt x="831" y="629" on="0"/>
        <pt x="907" y="546" on="0"/>
        <pt x="978" y="448" on="0"/>
        <pt x="1043" y="346" on="0"/>
        <pt x="1070" y="303" on="1"/>
        <pt x="1268" y="0" on="1"/>
        <pt x="953" y="0" on="1"/>
        <pt x="918" y="58" on="0"/>
        <pt x="831" y="207" on="0"/>
        <pt x="744" y="355" on="0"/>
        <pt x="667" y="482" on="0"/>
        <pt x="643" y="518" on="1"/>
        <pt x="620" y="551" on="0"/>
        <pt x="581" y="597" on="0"/>
        <pt x="541" y="625" on="0"/>
        <pt x="496" y="637" on="0"/>
        <pt x="468" y="638" on="1"/>
        <pt x="460" y="638" on="1"/>
        <pt x="460" y="0" on="1"/>
        <pt x="181" y="0" on="1"/>
        <pt x="181" y="1438" on="1"/>
      </contour>
      <contour>
        <pt x="604" y="830" on="1"/>
        <pt x="669" y="830" on="0"/>
        <pt x="770" y="851" on="0"/>
        <pt x="839" y="900" on="0"/>
        <pt x="875" y="980" on="0"/>
        <pt x="875" y="1038" on="1"/>
        <pt x="875" y="1096" on="0"/>
        <pt x="839" y="1176" on="0"/>
        <pt x="770" y="1225" on="0"/>
        <pt x="669" y="1246" on="0"/>
        <pt x="604" y="1246" on="1"/>
        <pt x="460" y="1246" on="1"/>
        <pt x="460" y="830" on="1"/>
      </contour>
    </TTGlyph>
    <TTGlyph name="Racute" xMin="181" yMin="0" xMax="1268" yMax="2064">
      <contour>
        <pt x="608" y="2009" on="1"/>
        <pt x="644" y="2035" on="0"/>
        <pt x="729" y="2064" on="0"/>
        <pt x="769" y="2064" on="1"/>
        <pt x="797" y="2064" on="0"/>
        <pt x="847" y="2049" on="0"/>
        <pt x="885" y="2017" on="0"/>
        <pt x="907" y="1970" on="0"/>
        <pt x="907" y="1938" on="1"/>
        <pt x="907" y="1900" on="0"/>
        <pt x="885" y="1831" on="0"/>
        <pt x="840" y="1751" on="0"/>
        <pt x="772" y="1649" on="0"/>
        <pt x="727" y="1578" on="1"/>
        <pt x="571" y="1578" on="1"/>
        <pt x="666" y="1840" on="1"/>
      </contour>
      <contour>
        <pt x="711" y="1438" on="1"/>
        <pt x="808" y="1438" on="0"/>
        <pt x="972" y="1389" on="0"/>
        <pt x="1092" y="1291" on="0"/>
        <pt x="1159" y="1141" on="0"/>
        <pt x="1159" y="1041" on="1"/>
        <pt x="1159" y="960" on="0"/>
        <pt x="1105" y="826" on="0"/>
        <pt x="1007" y="727" on="0"/>
        <pt x="873" y="665" on="0"/>
        <pt x="792" y="655" on="1"/>
        <pt x="791" y="652" on="1"/>
        <pt x="831" y="629" on="0"/>
        <pt x="907" y="546" on="0"/>
        <pt x="978" y="448" on="0"/>
        <pt x="1043" y="346" on="0"/>
        <pt x="1070" y="303" on="1"/>
        <pt x="1268" y="0" on="1"/>
        <pt x="953" y="0" on="1"/>
        <pt x="918" y="58" on="0"/>
        <pt x="831" y="207" on="0"/>
        <pt x="744" y="355" on="0"/>
        <pt x="667" y="482" on="0"/>
        <pt x="643" y="518" on="1"/>
        <pt x="620" y="551" on="0"/>
        <pt x="581" y="597" on="0"/>
        <pt x="541" y="625" on="0"/>
        <pt x="496" y="637" on="0"/>
        <pt x="468" y="638" on="1"/>
        <pt x="460" y="638" on="1"/>
        <pt x="460" y="0" on="1"/>
        <pt x="181" y="0" on="1"/>
        <pt x="181" y="1438" on="1"/>
      </contour>
      <contour>
        <pt x="604" y="830" on="1"/>
        <pt x="669" y="830" on="0"/>
        <pt x="770" y="851" on="0"/>
        <pt x="839" y="900" on="0"/>
        <pt x="875" y="980" on="0"/>
        <pt x="875" y="1038" on="1"/>
        <pt x="875" y="1096" on="0"/>
        <pt x="839" y="1176" on="0"/>
        <pt x="770" y="1225" on="0"/>
        <pt x="669" y="1246" on="0"/>
        <pt x="604" y="1246" on="1"/>
        <pt x="460" y="1246" on="1"/>
        <pt x="460" y="830" on="1"/>
      </contour>
    </TTGlyph>
    <TTGlyph name="Rcaron" xMin="181" yMin="0" xMax="1268" yMax="1919">
      <contour>
        <pt x="898" y="1919" on="1"/>
        <pt x="973" y="1832" on="1"/>
        <pt x="642" y="1578" on="1"/>
        <pt x="311" y="1832" on="1"/>
        <pt x="386" y="1919" on="1"/>
        <pt x="642" y="1808" on="1"/>
      </contour>
      <contour>
        <pt x="711" y="1438" on="1"/>
        <pt x="808" y="1438" on="0"/>
        <pt x="972" y="1389" on="0"/>
        <pt x="1092" y="1291" on="0"/>
        <pt x="1159" y="1141" on="0"/>
        <pt x="1159" y="1041" on="1"/>
        <pt x="1159" y="960" on="0"/>
        <pt x="1105" y="826" on="0"/>
        <pt x="1007" y="727" on="0"/>
        <pt x="873" y="665" on="0"/>
        <pt x="792" y="655" on="1"/>
        <pt x="791" y="652" on="1"/>
        <pt x="831" y="629" on="0"/>
        <pt x="907" y="546" on="0"/>
        <pt x="978" y="448" on="0"/>
        <pt x="1043" y="346" on="0"/>
        <pt x="1070" y="303" on="1"/>
        <pt x="1268" y="0" on="1"/>
        <pt x="953" y="0" on="1"/>
        <pt x="918" y="58" on="0"/>
        <pt x="831" y="207" on="0"/>
        <pt x="744" y="355" on="0"/>
        <pt x="667" y="482" on="0"/>
        <pt x="643" y="518" on="1"/>
        <pt x="620" y="551" on="0"/>
        <pt x="581" y="597" on="0"/>
        <pt x="541" y="625" on="0"/>
        <pt x="496" y="637" on="0"/>
        <pt x="468" y="638" on="1"/>
        <pt x="460" y="638" on="1"/>
        <pt x="460" y="0" on="1"/>
        <pt x="181" y="0" on="1"/>
        <pt x="181" y="1438" on="1"/>
      </contour>
      <contour>
        <pt x="604" y="830" on="1"/>
        <pt x="669" y="830" on="0"/>
        <pt x="770" y="851" on="0"/>
        <pt x="839" y="900" on="0"/>
        <pt x="875" y="980" on="0"/>
        <pt x="875" y="1038" on="1"/>
        <pt x="875" y="1096" on="0"/>
        <pt x="839" y="1176" on="0"/>
        <pt x="770" y="1225" on="0"/>
        <pt x="669" y="1246" on="0"/>
        <pt x="604" y="1246" on="1"/>
        <pt x="460" y="1246" on="1"/>
        <pt x="460" y="830" on="1"/>
      </contour>
    </TTGlyph>
    <TTGlyph name="Rcommaaccent" xMin="181" yMin="-613" xMax="1268" yMax="1438">
      <contour>
        <pt x="711" y="1438" on="1"/>
        <pt x="808" y="1438" on="0"/>
        <pt x="972" y="1389" on="0"/>
        <pt x="1092" y="1291" on="0"/>
        <pt x="1159" y="1141" on="0"/>
        <pt x="1159" y="1041" on="1"/>
        <pt x="1159" y="960" on="0"/>
        <pt x="1105" y="826" on="0"/>
        <pt x="1007" y="727" on="0"/>
        <pt x="873" y="665" on="0"/>
        <pt x="792" y="655" on="1"/>
        <pt x="791" y="652" on="1"/>
        <pt x="831" y="629" on="0"/>
        <pt x="907" y="546" on="0"/>
        <pt x="978" y="448" on="0"/>
        <pt x="1043" y="346" on="0"/>
        <pt x="1070" y="303" on="1"/>
        <pt x="1268" y="0" on="1"/>
        <pt x="953" y="0" on="1"/>
        <pt x="918" y="58" on="0"/>
        <pt x="831" y="207" on="0"/>
        <pt x="744" y="355" on="0"/>
        <pt x="667" y="482" on="0"/>
        <pt x="643" y="518" on="1"/>
        <pt x="620" y="551" on="0"/>
        <pt x="581" y="597" on="0"/>
        <pt x="541" y="625" on="0"/>
        <pt x="496" y="637" on="0"/>
        <pt x="468" y="638" on="1"/>
        <pt x="460" y="638" on="1"/>
        <pt x="460" y="0" on="1"/>
        <pt x="181" y="0" on="1"/>
        <pt x="181" y="1438" on="1"/>
      </contour>
      <contour>
        <pt x="604" y="830" on="1"/>
        <pt x="669" y="830" on="0"/>
        <pt x="770" y="851" on="0"/>
        <pt x="839" y="900" on="0"/>
        <pt x="875" y="980" on="0"/>
        <pt x="875" y="1038" on="1"/>
        <pt x="875" y="1096" on="0"/>
        <pt x="839" y="1176" on="0"/>
        <pt x="770" y="1225" on="0"/>
        <pt x="669" y="1246" on="0"/>
        <pt x="604" y="1246" on="1"/>
        <pt x="460" y="1246" on="1"/>
        <pt x="460" y="830" on="1"/>
      </contour>
      <contour>
        <pt x="551" y="-182" on="1"/>
        <pt x="587" y="-156" on="0"/>
        <pt x="672" y="-127" on="0"/>
        <pt x="712" y="-127" on="1"/>
        <pt x="740" y="-127" on="0"/>
        <pt x="790" y="-142" on="0"/>
        <pt x="828" y="-174" on="0"/>
        <pt x="850" y="-221" on="0"/>
        <pt x="850" y="-253" on="1"/>
        <pt x="850" y="-291" on="0"/>
        <pt x="828" y="-360" on="0"/>
        <pt x="783" y="-440" on="0"/>
        <pt x="715" y="-542" on="0"/>
        <pt x="670" y="-613" on="1"/>
        <pt x="514" y="-613" on="1"/>
        <pt x="609" y="-351" on="1"/>
      </contour>
    </TTGlyph>
    <TTGlyph name="S" xMin="102" yMin="-24" xMax="1171" yMax="1463">
      <contour>
        <pt x="176" y="249" on="1"/>
        <pt x="259" y="217" on="0"/>
        <pt x="448" y="174" on="0"/>
        <pt x="559" y="174" on="1"/>
        <pt x="631" y="174" on="0"/>
        <pt x="751" y="200" on="0"/>
        <pt x="838" y="256" on="0"/>
        <pt x="887" y="343" on="0"/>
        <pt x="887" y="404" on="1"/>
        <pt x="887" y="470" on="0"/>
        <pt x="834" y="548" on="0"/>
        <pt x="738" y="598" on="0"/>
        <pt x="602" y="632" on="0"/>
        <pt x="519" y="653" on="1"/>
        <pt x="426" y="677" on="0"/>
        <pt x="273" y="739" on="0"/>
        <pt x="165" y="837" on="0"/>
        <pt x="105" y="981" on="0"/>
        <pt x="105" y="1087" on="1"/>
        <pt x="105" y="1158" on="0"/>
        <pt x="152" y="1270" on="0"/>
        <pt x="232" y="1353" on="0"/>
        <pt x="337" y="1411" on="0"/>
        <pt x="452" y="1447" on="0"/>
        <pt x="572" y="1463" on="0"/>
        <pt x="626" y="1463" on="1"/>
        <pt x="664" y="1463" on="0"/>
        <pt x="771" y="1455" on="0"/>
        <pt x="892" y="1434" on="0"/>
        <pt x="1021" y="1400" on="0"/>
        <pt x="1081" y="1374" on="1"/>
        <pt x="1010" y="1200" on="1"/>
        <pt x="930" y="1229" on="0"/>
        <pt x="757" y="1265" on="0"/>
        <pt x="662" y="1265" on="1"/>
        <pt x="602" y="1265" on="0"/>
        <pt x="502" y="1246" on="0"/>
        <pt x="429" y="1204" on="0"/>
        <pt x="389" y="1136" on="0"/>
        <pt x="389" y="1088" on="1"/>
        <pt x="389" y="1026" on="0"/>
        <pt x="438" y="956" on="0"/>
        <pt x="530" y="912" on="0"/>
        <pt x="663" y="881" on="0"/>
        <pt x="747" y="859" on="1"/>
        <pt x="839" y="835" on="0"/>
        <pt x="994" y="770" on="0"/>
        <pt x="1107" y="667" on="0"/>
        <pt x="1171" y="515" on="0"/>
        <pt x="1171" y="404" on="1"/>
        <pt x="1171" y="306" on="0"/>
        <pt x="1109" y="166" on="0"/>
        <pt x="1009" y="71" on="0"/>
        <pt x="881" y="15" on="0"/>
        <pt x="749" y="-15" on="0"/>
        <pt x="625" y="-24" on="0"/>
        <pt x="578" y="-24" on="1"/>
        <pt x="532" y="-23" on="0"/>
        <pt x="417" y="-13" on="0"/>
        <pt x="291" y="9" on="0"/>
        <pt x="162" y="46" on="0"/>
        <pt x="102" y="73" on="1"/>
      </contour>
    </TTGlyph>
    <TTGlyph name="Sacute" xMin="102" yMin="-24" xMax="1171" yMax="2064">
      <contour>
        <pt x="593" y="2009" on="1"/>
        <pt x="629" y="2035" on="0"/>
        <pt x="714" y="2064" on="0"/>
        <pt x="754" y="2064" on="1"/>
        <pt x="782" y="2064" on="0"/>
        <pt x="832" y="2049" on="0"/>
        <pt x="870" y="2017" on="0"/>
        <pt x="892" y="1970" on="0"/>
        <pt x="892" y="1938" on="1"/>
        <pt x="892" y="1900" on="0"/>
        <pt x="870" y="1831" on="0"/>
        <pt x="825" y="1751" on="0"/>
        <pt x="757" y="1649" on="0"/>
        <pt x="712" y="1578" on="1"/>
        <pt x="556" y="1578" on="1"/>
        <pt x="651" y="1840" on="1"/>
      </contour>
      <contour>
        <pt x="176" y="249" on="1"/>
        <pt x="259" y="217" on="0"/>
        <pt x="448" y="174" on="0"/>
        <pt x="559" y="174" on="1"/>
        <pt x="631" y="174" on="0"/>
        <pt x="751" y="200" on="0"/>
        <pt x="838" y="256" on="0"/>
        <pt x="887" y="343" on="0"/>
        <pt x="887" y="404" on="1"/>
        <pt x="887" y="470" on="0"/>
        <pt x="834" y="548" on="0"/>
        <pt x="738" y="598" on="0"/>
        <pt x="602" y="632" on="0"/>
        <pt x="519" y="653" on="1"/>
        <pt x="426" y="677" on="0"/>
        <pt x="273" y="739" on="0"/>
        <pt x="165" y="837" on="0"/>
        <pt x="105" y="981" on="0"/>
        <pt x="105" y="1087" on="1"/>
        <pt x="105" y="1158" on="0"/>
        <pt x="152" y="1270" on="0"/>
        <pt x="232" y="1353" on="0"/>
        <pt x="337" y="1411" on="0"/>
        <pt x="452" y="1447" on="0"/>
        <pt x="572" y="1463" on="0"/>
        <pt x="626" y="1463" on="1"/>
        <pt x="664" y="1463" on="0"/>
        <pt x="771" y="1455" on="0"/>
        <pt x="892" y="1434" on="0"/>
        <pt x="1021" y="1400" on="0"/>
        <pt x="1081" y="1374" on="1"/>
        <pt x="1010" y="1200" on="1"/>
        <pt x="930" y="1229" on="0"/>
        <pt x="757" y="1265" on="0"/>
        <pt x="662" y="1265" on="1"/>
        <pt x="602" y="1265" on="0"/>
        <pt x="502" y="1246" on="0"/>
        <pt x="429" y="1204" on="0"/>
        <pt x="389" y="1136" on="0"/>
        <pt x="389" y="1088" on="1"/>
        <pt x="389" y="1026" on="0"/>
        <pt x="438" y="956" on="0"/>
        <pt x="530" y="912" on="0"/>
        <pt x="663" y="881" on="0"/>
        <pt x="747" y="859" on="1"/>
        <pt x="839" y="835" on="0"/>
        <pt x="994" y="770" on="0"/>
        <pt x="1107" y="667" on="0"/>
        <pt x="1171" y="515" on="0"/>
        <pt x="1171" y="404" on="1"/>
        <pt x="1171" y="306" on="0"/>
        <pt x="1109" y="166" on="0"/>
        <pt x="1009" y="71" on="0"/>
        <pt x="881" y="15" on="0"/>
        <pt x="749" y="-15" on="0"/>
        <pt x="625" y="-24" on="0"/>
        <pt x="578" y="-24" on="1"/>
        <pt x="532" y="-23" on="0"/>
        <pt x="417" y="-13" on="0"/>
        <pt x="291" y="9" on="0"/>
        <pt x="162" y="46" on="0"/>
        <pt x="102" y="73" on="1"/>
      </contour>
    </TTGlyph>
    <TTGlyph name="Scaron" xMin="102" yMin="-24" xMax="1171" yMax="1919">
      <contour>
        <pt x="883" y="1919" on="1"/>
        <pt x="958" y="1832" on="1"/>
        <pt x="627" y="1578" on="1"/>
        <pt x="296" y="1832" on="1"/>
        <pt x="371" y="1919" on="1"/>
        <pt x="627" y="1808" on="1"/>
      </contour>
      <contour>
        <pt x="176" y="249" on="1"/>
        <pt x="259" y="217" on="0"/>
        <pt x="448" y="174" on="0"/>
        <pt x="559" y="174" on="1"/>
        <pt x="631" y="174" on="0"/>
        <pt x="751" y="200" on="0"/>
        <pt x="838" y="256" on="0"/>
        <pt x="887" y="343" on="0"/>
        <pt x="887" y="404" on="1"/>
        <pt x="887" y="470" on="0"/>
        <pt x="834" y="548" on="0"/>
        <pt x="738" y="598" on="0"/>
        <pt x="602" y="632" on="0"/>
        <pt x="519" y="653" on="1"/>
        <pt x="426" y="677" on="0"/>
        <pt x="273" y="739" on="0"/>
        <pt x="165" y="837" on="0"/>
        <pt x="105" y="981" on="0"/>
        <pt x="105" y="1087" on="1"/>
        <pt x="105" y="1158" on="0"/>
        <pt x="152" y="1270" on="0"/>
        <pt x="232" y="1353" on="0"/>
        <pt x="337" y="1411" on="0"/>
        <pt x="452" y="1447" on="0"/>
        <pt x="572" y="1463" on="0"/>
        <pt x="626" y="1463" on="1"/>
        <pt x="664" y="1463" on="0"/>
        <pt x="771" y="1455" on="0"/>
        <pt x="892" y="1434" on="0"/>
        <pt x="1021" y="1400" on="0"/>
        <pt x="1081" y="1374" on="1"/>
        <pt x="1010" y="1200" on="1"/>
        <pt x="930" y="1229" on="0"/>
        <pt x="757" y="1265" on="0"/>
        <pt x="662" y="1265" on="1"/>
        <pt x="602" y="1265" on="0"/>
        <pt x="502" y="1246" on="0"/>
        <pt x="429" y="1204" on="0"/>
        <pt x="389" y="1136" on="0"/>
        <pt x="389" y="1088" on="1"/>
        <pt x="389" y="1026" on="0"/>
        <pt x="438" y="956" on="0"/>
        <pt x="530" y="912" on="0"/>
        <pt x="663" y="881" on="0"/>
        <pt x="747" y="859" on="1"/>
        <pt x="839" y="835" on="0"/>
        <pt x="994" y="770" on="0"/>
        <pt x="1107" y="667" on="0"/>
        <pt x="1171" y="515" on="0"/>
        <pt x="1171" y="404" on="1"/>
        <pt x="1171" y="306" on="0"/>
        <pt x="1109" y="166" on="0"/>
        <pt x="1009" y="71" on="0"/>
        <pt x="881" y="15" on="0"/>
        <pt x="749" y="-15" on="0"/>
        <pt x="625" y="-24" on="0"/>
        <pt x="578" y="-24" on="1"/>
        <pt x="532" y="-23" on="0"/>
        <pt x="417" y="-13" on="0"/>
        <pt x="291" y="9" on="0"/>
        <pt x="162" y="46" on="0"/>
        <pt x="102" y="73" on="1"/>
      </contour>
    </TTGlyph>
    <TTGlyph name="Scedilla" xMin="102" yMin="-427" xMax="1171" yMax="1463">
      <contour>
        <pt x="1010" y="1200" on="1"/>
        <pt x="930" y="1229" on="0"/>
        <pt x="757" y="1265" on="0"/>
        <pt x="662" y="1265" on="1"/>
        <pt x="602" y="1265" on="0"/>
        <pt x="502" y="1246" on="0"/>
        <pt x="429" y="1204" on="0"/>
        <pt x="389" y="1136" on="0"/>
        <pt x="389" y="1088" on="1"/>
        <pt x="389" y="1026" on="0"/>
        <pt x="438" y="956" on="0"/>
        <pt x="530" y="912" on="0"/>
        <pt x="663" y="881" on="0"/>
        <pt x="747" y="859" on="1"/>
        <pt x="839" y="835" on="0"/>
        <pt x="994" y="770" on="0"/>
        <pt x="1107" y="667" on="0"/>
        <pt x="1171" y="515" on="0"/>
        <pt x="1171" y="404" on="1"/>
        <pt x="1171" y="324" on="0"/>
        <pt x="1129" y="201" on="0"/>
        <pt x="1058" y="111" on="0"/>
        <pt x="963" y="49" on="0"/>
        <pt x="858" y="8" on="0"/>
        <pt x="748" y="-13" on="0"/>
        <pt x="698" y="-18" on="1"/>
        <pt x="623" y="-113" on="1"/>
        <pt x="703" y="-139" on="0"/>
        <pt x="770" y="-209" on="0"/>
        <pt x="770" y="-262" on="1"/>
        <pt x="770" y="-304" on="0"/>
        <pt x="736" y="-366" on="0"/>
        <pt x="677" y="-407" on="0"/>
        <pt x="595" y="-427" on="0"/>
        <pt x="547" y="-427" on="1"/>
        <pt x="502" y="-427" on="0"/>
        <pt x="409" y="-409" on="0"/>
        <pt x="363" y="-394" on="1"/>
        <pt x="417" y="-293" on="1"/>
        <pt x="457" y="-313" on="0"/>
        <pt x="524" y="-335" on="0"/>
        <pt x="550" y="-335" on="1"/>
        <pt x="582" y="-335" on="0"/>
        <pt x="616" y="-303" on="0"/>
        <pt x="616" y="-269" on="1"/>
        <pt x="616" y="-232" on="0"/>
        <pt x="545" y="-187" on="0"/>
        <pt x="475" y="-164" on="1"/>
        <pt x="561" y="-24" on="1"/>
        <pt x="515" y="-23" on="0"/>
        <pt x="403" y="-11" on="0"/>
        <pt x="282" y="11" on="0"/>
        <pt x="159" y="47" on="0"/>
        <pt x="102" y="73" on="1"/>
        <pt x="176" y="249" on="1"/>
        <pt x="259" y="217" on="0"/>
        <pt x="448" y="174" on="0"/>
        <pt x="559" y="174" on="1"/>
        <pt x="631" y="174" on="0"/>
        <pt x="751" y="200" on="0"/>
        <pt x="838" y="256" on="0"/>
        <pt x="887" y="343" on="0"/>
        <pt x="887" y="404" on="1"/>
        <pt x="887" y="470" on="0"/>
        <pt x="834" y="548" on="0"/>
        <pt x="738" y="598" on="0"/>
        <pt x="602" y="632" on="0"/>
        <pt x="519" y="653" on="1"/>
        <pt x="426" y="677" on="0"/>
        <pt x="273" y="739" on="0"/>
        <pt x="165" y="837" on="0"/>
        <pt x="105" y="981" on="0"/>
        <pt x="105" y="1087" on="1"/>
        <pt x="105" y="1158" on="0"/>
        <pt x="152" y="1270" on="0"/>
        <pt x="232" y="1353" on="0"/>
        <pt x="337" y="1411" on="0"/>
        <pt x="452" y="1447" on="0"/>
        <pt x="572" y="1463" on="0"/>
        <pt x="626" y="1463" on="1"/>
        <pt x="664" y="1463" on="0"/>
        <pt x="771" y="1455" on="0"/>
        <pt x="892" y="1434" on="0"/>
        <pt x="1021" y="1400" on="0"/>
        <pt x="1081" y="1374" on="1"/>
      </contour>
    </TTGlyph>
    <TTGlyph name="Scommaaccent" xMin="102" yMin="-613" xMax="1171" yMax="1463">
      <contour>
        <pt x="176" y="249" on="1"/>
        <pt x="259" y="217" on="0"/>
        <pt x="448" y="174" on="0"/>
        <pt x="559" y="174" on="1"/>
        <pt x="631" y="174" on="0"/>
        <pt x="751" y="200" on="0"/>
        <pt x="838" y="256" on="0"/>
        <pt x="887" y="343" on="0"/>
        <pt x="887" y="404" on="1"/>
        <pt x="887" y="470" on="0"/>
        <pt x="834" y="548" on="0"/>
        <pt x="738" y="598" on="0"/>
        <pt x="602" y="632" on="0"/>
        <pt x="519" y="653" on="1"/>
        <pt x="426" y="677" on="0"/>
        <pt x="273" y="739" on="0"/>
        <pt x="165" y="837" on="0"/>
        <pt x="105" y="981" on="0"/>
        <pt x="105" y="1087" on="1"/>
        <pt x="105" y="1158" on="0"/>
        <pt x="152" y="1270" on="0"/>
        <pt x="232" y="1353" on="0"/>
        <pt x="337" y="1411" on="0"/>
        <pt x="452" y="1447" on="0"/>
        <pt x="572" y="1463" on="0"/>
        <pt x="626" y="1463" on="1"/>
        <pt x="664" y="1463" on="0"/>
        <pt x="771" y="1455" on="0"/>
        <pt x="892" y="1434" on="0"/>
        <pt x="1021" y="1400" on="0"/>
        <pt x="1081" y="1374" on="1"/>
        <pt x="1010" y="1200" on="1"/>
        <pt x="930" y="1229" on="0"/>
        <pt x="757" y="1265" on="0"/>
        <pt x="662" y="1265" on="1"/>
        <pt x="602" y="1265" on="0"/>
        <pt x="502" y="1246" on="0"/>
        <pt x="429" y="1204" on="0"/>
        <pt x="389" y="1136" on="0"/>
        <pt x="389" y="1088" on="1"/>
        <pt x="389" y="1026" on="0"/>
        <pt x="438" y="956" on="0"/>
        <pt x="530" y="912" on="0"/>
        <pt x="663" y="881" on="0"/>
        <pt x="747" y="859" on="1"/>
        <pt x="839" y="835" on="0"/>
        <pt x="994" y="770" on="0"/>
        <pt x="1107" y="667" on="0"/>
        <pt x="1171" y="515" on="0"/>
        <pt x="1171" y="404" on="1"/>
        <pt x="1171" y="306" on="0"/>
        <pt x="1109" y="166" on="0"/>
        <pt x="1009" y="71" on="0"/>
        <pt x="881" y="15" on="0"/>
        <pt x="749" y="-15" on="0"/>
        <pt x="625" y="-24" on="0"/>
        <pt x="578" y="-24" on="1"/>
        <pt x="532" y="-23" on="0"/>
        <pt x="417" y="-13" on="0"/>
        <pt x="291" y="9" on="0"/>
        <pt x="162" y="46" on="0"/>
        <pt x="102" y="73" on="1"/>
      </contour>
      <contour>
        <pt x="505" y="-182" on="1"/>
        <pt x="541" y="-156" on="0"/>
        <pt x="626" y="-127" on="0"/>
        <pt x="666" y="-127" on="1"/>
        <pt x="694" y="-127" on="0"/>
        <pt x="744" y="-142" on="0"/>
        <pt x="782" y="-174" on="0"/>
        <pt x="804" y="-221" on="0"/>
        <pt x="804" y="-253" on="1"/>
        <pt x="804" y="-291" on="0"/>
        <pt x="782" y="-360" on="0"/>
        <pt x="737" y="-440" on="0"/>
        <pt x="669" y="-542" on="0"/>
        <pt x="624" y="-613" on="1"/>
        <pt x="468" y="-613" on="1"/>
        <pt x="563" y="-351" on="1"/>
      </contour>
    </TTGlyph>
    <TTGlyph name="T" xMin="90" yMin="0" xMax="1213" yMax="1438">
      <contour>
        <pt x="1213" y="1438" on="1"/>
        <pt x="1213" y="1233" on="1"/>
        <pt x="793" y="1233" on="1"/>
        <pt x="793" y="0" on="1"/>
        <pt x="514" y="0" on="1"/>
        <pt x="514" y="1233" on="1"/>
        <pt x="90" y="1233" on="1"/>
        <pt x="90" y="1438" on="1"/>
      </contour>
    </TTGlyph>
    <TTGlyph name="Tbar" xMin="90" yMin="0" xMax="1213" yMax="1805">
      <contour>
        <pt x="955" y="1805" on="1"/>
        <pt x="955" y="1634" on="1"/>
        <pt x="350" y="1634" on="1"/>
        <pt x="350" y="1805" on="1"/>
      </contour>
      <contour>
        <pt x="1213" y="1438" on="1"/>
        <pt x="1213" y="1233" on="1"/>
        <pt x="793" y="1233" on="1"/>
        <pt x="793" y="0" on="1"/>
        <pt x="514" y="0" on="1"/>
        <pt x="514" y="1233" on="1"/>
        <pt x="90" y="1233" on="1"/>
        <pt x="90" y="1438" on="1"/>
      </contour>
    </TTGlyph>
    <TTGlyph name="Tcaron" xMin="90" yMin="0" xMax="1213" yMax="1919">
      <contour>
        <pt x="908" y="1919" on="1"/>
        <pt x="983" y="1832" on="1"/>
        <pt x="652" y="1578" on="1"/>
        <pt x="321" y="1832" on="1"/>
        <pt x="396" y="1919" on="1"/>
        <pt x="652" y="1808" on="1"/>
      </contour>
      <contour>
        <pt x="1213" y="1438" on="1"/>
        <pt x="1213" y="1233" on="1"/>
        <pt x="793" y="1233" on="1"/>
        <pt x="793" y="0" on="1"/>
        <pt x="514" y="0" on="1"/>
        <pt x="514" y="1233" on="1"/>
        <pt x="90" y="1233" on="1"/>
        <pt x="90" y="1438" on="1"/>
      </contour>
    </TTGlyph>
    <TTGlyph name="Tcommaaccent" xMin="90" yMin="-427" xMax="1213" yMax="1438">
      <contour>
        <pt x="1213" y="1438" on="1"/>
        <pt x="1213" y="1233" on="1"/>
        <pt x="793" y="1233" on="1"/>
        <pt x="793" y="0" on="1"/>
        <pt x="703" y="0" on="1"/>
        <pt x="613" y="-113" on="1"/>
        <pt x="693" y="-139" on="0"/>
        <pt x="760" y="-209" on="0"/>
        <pt x="760" y="-262" on="1"/>
        <pt x="760" y="-304" on="0"/>
        <pt x="726" y="-366" on="0"/>
        <pt x="667" y="-407" on="0"/>
        <pt x="585" y="-427" on="0"/>
        <pt x="537" y="-427" on="1"/>
        <pt x="492" y="-427" on="0"/>
        <pt x="399" y="-409" on="0"/>
        <pt x="353" y="-394" on="1"/>
        <pt x="407" y="-293" on="1"/>
        <pt x="447" y="-313" on="0"/>
        <pt x="514" y="-335" on="0"/>
        <pt x="540" y="-335" on="1"/>
        <pt x="572" y="-335" on="0"/>
        <pt x="606" y="-303" on="0"/>
        <pt x="606" y="-269" on="1"/>
        <pt x="606" y="-232" on="0"/>
        <pt x="535" y="-187" on="0"/>
        <pt x="465" y="-164" on="1"/>
        <pt x="565" y="0" on="1"/>
        <pt x="514" y="0" on="1"/>
        <pt x="514" y="1233" on="1"/>
        <pt x="90" y="1233" on="1"/>
        <pt x="90" y="1438" on="1"/>
      </contour>
    </TTGlyph>
    <TTGlyph name="Thorn" xMin="181" yMin="0" xMax="1182" yMax="1438">
      <contour>
        <pt x="460" y="1438" on="1"/>
        <pt x="460" y="1191" on="1"/>
        <pt x="738" y="1191" on="1"/>
        <pt x="843" y="1191" on="0"/>
        <pt x="1008" y="1134" on="0"/>
        <pt x="1122" y="1024" on="0"/>
        <pt x="1182" y="862" on="0"/>
        <pt x="1182" y="757" on="1"/>
        <pt x="1182" y="643" on="0"/>
        <pt x="1108" y="472" on="0"/>
        <pt x="970" y="358" on="0"/>
        <pt x="774" y="300" on="0"/>
        <pt x="653" y="300" on="1"/>
        <pt x="597" y="300" on="0"/>
        <pt x="498" y="307" on="0"/>
        <pt x="460" y="311" on="1"/>
        <pt x="460" y="0" on="1"/>
        <pt x="181" y="0" on="1"/>
        <pt x="181" y="1438" on="1"/>
      </contour>
      <contour>
        <pt x="460" y="502" on="1"/>
        <pt x="492" y="497" on="0"/>
        <pt x="555" y="492" on="0"/>
        <pt x="585" y="492" on="1"/>
        <pt x="662" y="492" on="0"/>
        <pt x="779" y="518" on="0"/>
        <pt x="858" y="578" on="0"/>
        <pt x="898" y="674" on="0"/>
        <pt x="898" y="745" on="1"/>
        <pt x="898" y="815" on="0"/>
        <pt x="868" y="912" on="0"/>
        <pt x="802" y="972" on="0"/>
        <pt x="698" y="999" on="0"/>
        <pt x="624" y="999" on="1"/>
        <pt x="460" y="999" on="1"/>
      </contour>
    </TTGlyph>
    <TTGlyph name="U" xMin="166" yMin="-23" xMax="1366" yMax="1438">
      <contour>
        <pt x="1366" y="1438" on="1"/>
        <pt x="1366" y="632" on="1"/>
        <pt x="1366" y="476" on="0"/>
        <pt x="1302" y="232" on="0"/>
        <pt x="1159" y="64" on="0"/>
        <pt x="930" y="-23" on="0"/>
        <pt x="765" y="-23" on="1"/>
        <pt x="597" y="-23" on="0"/>
        <pt x="368" y="67" on="0"/>
        <pt x="227" y="237" on="0"/>
        <pt x="166" y="480" on="0"/>
        <pt x="166" y="632" on="1"/>
        <pt x="166" y="1438" on="1"/>
        <pt x="450" y="1438" on="1"/>
        <pt x="450" y="598" on="1"/>
        <pt x="450" y="503" on="0"/>
        <pt x="483" y="350" on="0"/>
        <pt x="558" y="243" on="0"/>
        <pt x="678" y="185" on="0"/>
        <pt x="765" y="185" on="1"/>
        <pt x="854" y="185" on="0"/>
        <pt x="976" y="243" on="0"/>
        <pt x="1050" y="351" on="0"/>
        <pt x="1082" y="504" on="0"/>
        <pt x="1082" y="598" on="1"/>
        <pt x="1082" y="1438" on="1"/>
      </contour>
    </TTGlyph>
    <TTGlyph name="Uacute" xMin="166" yMin="-23" xMax="1366" yMax="2064">
      <contour>
        <pt x="732" y="2009" on="1"/>
        <pt x="768" y="2035" on="0"/>
        <pt x="853" y="2064" on="0"/>
        <pt x="893" y="2064" on="1"/>
        <pt x="921" y="2064" on="0"/>
        <pt x="971" y="2049" on="0"/>
        <pt x="1009" y="2017" on="0"/>
        <pt x="1031" y="1970" on="0"/>
        <pt x="1031" y="1938" on="1"/>
        <pt x="1031" y="1900" on="0"/>
        <pt x="1009" y="1831" on="0"/>
        <pt x="964" y="1751" on="0"/>
        <pt x="896" y="1649" on="0"/>
        <pt x="851" y="1578" on="1"/>
        <pt x="695" y="1578" on="1"/>
        <pt x="790" y="1840" on="1"/>
      </contour>
      <contour>
        <pt x="1366" y="1438" on="1"/>
        <pt x="1366" y="632" on="1"/>
        <pt x="1366" y="476" on="0"/>
        <pt x="1302" y="232" on="0"/>
        <pt x="1159" y="64" on="0"/>
        <pt x="930" y="-23" on="0"/>
        <pt x="765" y="-23" on="1"/>
        <pt x="597" y="-23" on="0"/>
        <pt x="368" y="67" on="0"/>
        <pt x="227" y="237" on="0"/>
        <pt x="166" y="480" on="0"/>
        <pt x="166" y="632" on="1"/>
        <pt x="166" y="1438" on="1"/>
        <pt x="450" y="1438" on="1"/>
        <pt x="450" y="598" on="1"/>
        <pt x="450" y="503" on="0"/>
        <pt x="483" y="350" on="0"/>
        <pt x="558" y="243" on="0"/>
        <pt x="678" y="185" on="0"/>
        <pt x="765" y="185" on="1"/>
        <pt x="854" y="185" on="0"/>
        <pt x="976" y="243" on="0"/>
        <pt x="1050" y="351" on="0"/>
        <pt x="1082" y="504" on="0"/>
        <pt x="1082" y="598" on="1"/>
        <pt x="1082" y="1438" on="1"/>
      </contour>
    </TTGlyph>
    <TTGlyph name="Ucircumflex" xMin="166" yMin="-23" xMax="1366" yMax="1919">
      <contour>
        <pt x="766" y="1919" on="1"/>
        <pt x="1097" y="1665" on="1"/>
        <pt x="1022" y="1578" on="1"/>
        <pt x="766" y="1689" on="1"/>
        <pt x="510" y="1578" on="1"/>
        <pt x="435" y="1665" on="1"/>
      </contour>
      <contour>
        <pt x="1366" y="1438" on="1"/>
        <pt x="1366" y="632" on="1"/>
        <pt x="1366" y="476" on="0"/>
        <pt x="1302" y="232" on="0"/>
        <pt x="1159" y="64" on="0"/>
        <pt x="930" y="-23" on="0"/>
        <pt x="765" y="-23" on="1"/>
        <pt x="597" y="-23" on="0"/>
        <pt x="368" y="67" on="0"/>
        <pt x="227" y="237" on="0"/>
        <pt x="166" y="480" on="0"/>
        <pt x="166" y="632" on="1"/>
        <pt x="166" y="1438" on="1"/>
        <pt x="450" y="1438" on="1"/>
        <pt x="450" y="598" on="1"/>
        <pt x="450" y="503" on="0"/>
        <pt x="483" y="350" on="0"/>
        <pt x="558" y="243" on="0"/>
        <pt x="678" y="185" on="0"/>
        <pt x="765" y="185" on="1"/>
        <pt x="854" y="185" on="0"/>
        <pt x="976" y="243" on="0"/>
        <pt x="1050" y="351" on="0"/>
        <pt x="1082" y="504" on="0"/>
        <pt x="1082" y="598" on="1"/>
        <pt x="1082" y="1438" on="1"/>
      </contour>
    </TTGlyph>
    <TTGlyph name="Udieresis" xMin="166" yMin="-23" xMax="1366" yMax="1853">
      <contour>
        <pt x="527" y="1853" on="1"/>
        <pt x="555" y="1853" on="0"/>
        <pt x="605" y="1831" on="0"/>
        <pt x="643" y="1793" on="0"/>
        <pt x="665" y="1743" on="0"/>
        <pt x="665" y="1715" on="1"/>
        <pt x="665" y="1686" on="0"/>
        <pt x="643" y="1635" on="0"/>
        <pt x="606" y="1597" on="0"/>
        <pt x="555" y="1575" on="0"/>
        <pt x="527" y="1575" on="1"/>
        <pt x="498" y="1575" on="0"/>
        <pt x="446" y="1597" on="0"/>
        <pt x="407" y="1635" on="0"/>
        <pt x="385" y="1686" on="0"/>
        <pt x="385" y="1715" on="1"/>
        <pt x="385" y="1743" on="0"/>
        <pt x="407" y="1794" on="0"/>
        <pt x="446" y="1831" on="0"/>
        <pt x="498" y="1853" on="0"/>
      </contour>
      <contour>
        <pt x="1009" y="1853" on="1"/>
        <pt x="1037" y="1853" on="0"/>
        <pt x="1087" y="1831" on="0"/>
        <pt x="1125" y="1793" on="0"/>
        <pt x="1147" y="1743" on="0"/>
        <pt x="1147" y="1715" on="1"/>
        <pt x="1147" y="1686" on="0"/>
        <pt x="1125" y="1635" on="0"/>
        <pt x="1088" y="1597" on="0"/>
        <pt x="1037" y="1575" on="0"/>
        <pt x="1009" y="1575" on="1"/>
        <pt x="980" y="1575" on="0"/>
        <pt x="928" y="1597" on="0"/>
        <pt x="889" y="1635" on="0"/>
        <pt x="867" y="1686" on="0"/>
        <pt x="867" y="1715" on="1"/>
        <pt x="867" y="1743" on="0"/>
        <pt x="889" y="1794" on="0"/>
        <pt x="928" y="1831" on="0"/>
        <pt x="980" y="1853" on="0"/>
      </contour>
      <contour>
        <pt x="1366" y="1438" on="1"/>
        <pt x="1366" y="632" on="1"/>
        <pt x="1366" y="476" on="0"/>
        <pt x="1302" y="232" on="0"/>
        <pt x="1159" y="64" on="0"/>
        <pt x="930" y="-23" on="0"/>
        <pt x="765" y="-23" on="1"/>
        <pt x="597" y="-23" on="0"/>
        <pt x="368" y="67" on="0"/>
        <pt x="227" y="237" on="0"/>
        <pt x="166" y="480" on="0"/>
        <pt x="166" y="632" on="1"/>
        <pt x="166" y="1438" on="1"/>
        <pt x="450" y="1438" on="1"/>
        <pt x="450" y="598" on="1"/>
        <pt x="450" y="503" on="0"/>
        <pt x="483" y="350" on="0"/>
        <pt x="558" y="243" on="0"/>
        <pt x="678" y="185" on="0"/>
        <pt x="765" y="185" on="1"/>
        <pt x="854" y="185" on="0"/>
        <pt x="976" y="243" on="0"/>
        <pt x="1050" y="351" on="0"/>
        <pt x="1082" y="504" on="0"/>
        <pt x="1082" y="598" on="1"/>
        <pt x="1082" y="1438" on="1"/>
      </contour>
    </TTGlyph>
    <TTGlyph name="Ugrave" xMin="166" yMin="-23" xMax="1366" yMax="2064">
      <contour>
        <pt x="688" y="1578" on="1"/>
        <pt x="643" y="1649" on="0"/>
        <pt x="575" y="1751" on="0"/>
        <pt x="530" y="1831" on="0"/>
        <pt x="508" y="1900" on="0"/>
        <pt x="508" y="1938" on="1"/>
        <pt x="508" y="1970" on="0"/>
        <pt x="530" y="2017" on="0"/>
        <pt x="568" y="2049" on="0"/>
        <pt x="618" y="2064" on="0"/>
        <pt x="646" y="2064" on="1"/>
        <pt x="686" y="2064" on="0"/>
        <pt x="771" y="2035" on="0"/>
        <pt x="807" y="2009" on="1"/>
        <pt x="749" y="1840" on="1"/>
        <pt x="844" y="1578" on="1"/>
      </contour>
      <contour>
        <pt x="1366" y="1438" on="1"/>
        <pt x="1366" y="632" on="1"/>
        <pt x="1366" y="476" on="0"/>
        <pt x="1302" y="232" on="0"/>
        <pt x="1159" y="64" on="0"/>
        <pt x="930" y="-23" on="0"/>
        <pt x="765" y="-23" on="1"/>
        <pt x="597" y="-23" on="0"/>
        <pt x="368" y="67" on="0"/>
        <pt x="227" y="237" on="0"/>
        <pt x="166" y="480" on="0"/>
        <pt x="166" y="632" on="1"/>
        <pt x="166" y="1438" on="1"/>
        <pt x="450" y="1438" on="1"/>
        <pt x="450" y="598" on="1"/>
        <pt x="450" y="503" on="0"/>
        <pt x="483" y="350" on="0"/>
        <pt x="558" y="243" on="0"/>
        <pt x="678" y="185" on="0"/>
        <pt x="765" y="185" on="1"/>
        <pt x="854" y="185" on="0"/>
        <pt x="976" y="243" on="0"/>
        <pt x="1050" y="351" on="0"/>
        <pt x="1082" y="504" on="0"/>
        <pt x="1082" y="598" on="1"/>
        <pt x="1082" y="1438" on="1"/>
      </contour>
    </TTGlyph>
    <TTGlyph name="Uhungarumlaut" xMin="166" yMin="-23" xMax="1366" yMax="2064">
      <contour>
        <pt x="547" y="2009" on="1"/>
        <pt x="583" y="2035" on="0"/>
        <pt x="668" y="2064" on="0"/>
        <pt x="708" y="2064" on="1"/>
        <pt x="736" y="2064" on="0"/>
        <pt x="786" y="2049" on="0"/>
        <pt x="824" y="2017" on="0"/>
        <pt x="846" y="1970" on="0"/>
        <pt x="846" y="1938" on="1"/>
        <pt x="846" y="1900" on="0"/>
        <pt x="824" y="1831" on="0"/>
        <pt x="779" y="1751" on="0"/>
        <pt x="711" y="1649" on="0"/>
        <pt x="666" y="1578" on="1"/>
        <pt x="510" y="1578" on="1"/>
        <pt x="605" y="1840" on="1"/>
      </contour>
      <contour>
        <pt x="947" y="2009" on="1"/>
        <pt x="983" y="2035" on="0"/>
        <pt x="1068" y="2064" on="0"/>
        <pt x="1108" y="2064" on="1"/>
        <pt x="1136" y="2064" on="0"/>
        <pt x="1186" y="2049" on="0"/>
        <pt x="1224" y="2017" on="0"/>
        <pt x="1246" y="1970" on="0"/>
        <pt x="1246" y="1938" on="1"/>
        <pt x="1246" y="1900" on="0"/>
        <pt x="1224" y="1831" on="0"/>
        <pt x="1179" y="1751" on="0"/>
        <pt x="1111" y="1649" on="0"/>
        <pt x="1066" y="1578" on="1"/>
        <pt x="910" y="1578" on="1"/>
        <pt x="1005" y="1840" on="1"/>
      </contour>
      <contour>
        <pt x="1366" y="1438" on="1"/>
        <pt x="1366" y="632" on="1"/>
        <pt x="1366" y="476" on="0"/>
        <pt x="1302" y="232" on="0"/>
        <pt x="1159" y="64" on="0"/>
        <pt x="930" y="-23" on="0"/>
        <pt x="765" y="-23" on="1"/>
        <pt x="597" y="-23" on="0"/>
        <pt x="368" y="67" on="0"/>
        <pt x="227" y="237" on="0"/>
        <pt x="166" y="480" on="0"/>
        <pt x="166" y="632" on="1"/>
        <pt x="166" y="1438" on="1"/>
        <pt x="450" y="1438" on="1"/>
        <pt x="450" y="598" on="1"/>
        <pt x="450" y="503" on="0"/>
        <pt x="483" y="350" on="0"/>
        <pt x="558" y="243" on="0"/>
        <pt x="678" y="185" on="0"/>
        <pt x="765" y="185" on="1"/>
        <pt x="854" y="185" on="0"/>
        <pt x="976" y="243" on="0"/>
        <pt x="1050" y="351" on="0"/>
        <pt x="1082" y="504" on="0"/>
        <pt x="1082" y="598" on="1"/>
        <pt x="1082" y="1438" on="1"/>
      </contour>
    </TTGlyph>
    <TTGlyph name="Umacron" xMin="166" yMin="-23" xMax="1366" yMax="1805">
      <contour>
        <pt x="1069" y="1805" on="1"/>
        <pt x="1069" y="1634" on="1"/>
        <pt x="464" y="1634" on="1"/>
        <pt x="464" y="1805" on="1"/>
      </contour>
      <contour>
        <pt x="1366" y="1438" on="1"/>
        <pt x="1366" y="632" on="1"/>
        <pt x="1366" y="476" on="0"/>
        <pt x="1302" y="232" on="0"/>
        <pt x="1159" y="64" on="0"/>
        <pt x="930" y="-23" on="0"/>
        <pt x="765" y="-23" on="1"/>
        <pt x="597" y="-23" on="0"/>
        <pt x="368" y="67" on="0"/>
        <pt x="227" y="237" on="0"/>
        <pt x="166" y="480" on="0"/>
        <pt x="166" y="632" on="1"/>
        <pt x="166" y="1438" on="1"/>
        <pt x="450" y="1438" on="1"/>
        <pt x="450" y="598" on="1"/>
        <pt x="450" y="503" on="0"/>
        <pt x="483" y="350" on="0"/>
        <pt x="558" y="243" on="0"/>
        <pt x="678" y="185" on="0"/>
        <pt x="765" y="185" on="1"/>
        <pt x="854" y="185" on="0"/>
        <pt x="976" y="243" on="0"/>
        <pt x="1050" y="351" on="0"/>
        <pt x="1082" y="504" on="0"/>
        <pt x="1082" y="598" on="1"/>
        <pt x="1082" y="1438" on="1"/>
      </contour>
    </TTGlyph>
    <TTGlyph name="Uogonek" xMin="166" yMin="-408" xMax="1366" yMax="1438">
      <contour>
        <pt x="1366" y="1438" on="1"/>
        <pt x="1366" y="632" on="1"/>
        <pt x="1366" y="479" on="0"/>
        <pt x="1304" y="238" on="0"/>
        <pt x="1167" y="70" on="0"/>
        <pt x="947" y="-20" on="0"/>
        <pt x="789" y="-23" on="1"/>
        <pt x="740" y="-75" on="0"/>
        <pt x="686" y="-157" on="0"/>
        <pt x="686" y="-204" on="1"/>
        <pt x="686" y="-252" on="0"/>
        <pt x="729" y="-291" on="0"/>
        <pt x="768" y="-291" on="1"/>
        <pt x="792" y="-291" on="0"/>
        <pt x="852" y="-277" on="0"/>
        <pt x="886" y="-266" on="1"/>
        <pt x="880" y="-361" on="1"/>
        <pt x="842" y="-383" on="0"/>
        <pt x="763" y="-408" on="0"/>
        <pt x="708" y="-408" on="1"/>
        <pt x="671" y="-408" on="0"/>
        <pt x="608" y="-386" on="0"/>
        <pt x="563" y="-343" on="0"/>
        <pt x="537" y="-281" on="0"/>
        <pt x="537" y="-242" on="1"/>
        <pt x="537" y="-208" on="0"/>
        <pt x="555" y="-150" on="0"/>
        <pt x="588" y="-98" on="0"/>
        <pt x="636" y="-47" on="0"/>
        <pt x="665" y="-19" on="1"/>
        <pt x="526" y="-6" on="0"/>
        <pt x="336" y="96" on="0"/>
        <pt x="218" y="263" on="0"/>
        <pt x="166" y="492" on="0"/>
        <pt x="166" y="632" on="1"/>
        <pt x="166" y="1438" on="1"/>
        <pt x="450" y="1438" on="1"/>
        <pt x="450" y="598" on="1"/>
        <pt x="450" y="503" on="0"/>
        <pt x="483" y="350" on="0"/>
        <pt x="558" y="243" on="0"/>
        <pt x="678" y="185" on="0"/>
        <pt x="765" y="185" on="1"/>
        <pt x="854" y="185" on="0"/>
        <pt x="976" y="243" on="0"/>
        <pt x="1050" y="351" on="0"/>
        <pt x="1082" y="504" on="0"/>
        <pt x="1082" y="598" on="1"/>
        <pt x="1082" y="1438" on="1"/>
      </contour>
    </TTGlyph>
    <TTGlyph name="Uring" xMin="166" yMin="-23" xMax="1366" yMax="1957">
      <contour>
        <pt x="766" y="1957" on="1"/>
        <pt x="807" y="1957" on="0"/>
        <pt x="878" y="1927" on="0"/>
        <pt x="931" y="1874" on="0"/>
        <pt x="961" y="1803" on="0"/>
        <pt x="961" y="1762" on="1"/>
        <pt x="961" y="1721" on="0"/>
        <pt x="931" y="1650" on="0"/>
        <pt x="878" y="1597" on="0"/>
        <pt x="807" y="1567" on="0"/>
        <pt x="766" y="1567" on="1"/>
        <pt x="725" y="1567" on="0"/>
        <pt x="654" y="1597" on="0"/>
        <pt x="601" y="1650" on="0"/>
        <pt x="571" y="1721" on="0"/>
        <pt x="571" y="1762" on="1"/>
        <pt x="571" y="1803" on="0"/>
        <pt x="601" y="1874" on="0"/>
        <pt x="654" y="1927" on="0"/>
        <pt x="725" y="1957" on="0"/>
      </contour>
      <contour>
        <pt x="766" y="1845" on="1"/>
        <pt x="731" y="1845" on="0"/>
        <pt x="683" y="1797" on="0"/>
        <pt x="683" y="1762" on="1"/>
        <pt x="683" y="1727" on="0"/>
        <pt x="731" y="1679" on="0"/>
        <pt x="766" y="1679" on="1"/>
        <pt x="801" y="1679" on="0"/>
        <pt x="849" y="1727" on="0"/>
        <pt x="849" y="1762" on="1"/>
        <pt x="849" y="1797" on="0"/>
        <pt x="801" y="1845" on="0"/>
      </contour>
      <contour>
        <pt x="1366" y="1438" on="1"/>
        <pt x="1366" y="632" on="1"/>
        <pt x="1366" y="476" on="0"/>
        <pt x="1302" y="232" on="0"/>
        <pt x="1159" y="64" on="0"/>
        <pt x="930" y="-23" on="0"/>
        <pt x="765" y="-23" on="1"/>
        <pt x="597" y="-23" on="0"/>
        <pt x="368" y="67" on="0"/>
        <pt x="227" y="237" on="0"/>
        <pt x="166" y="480" on="0"/>
        <pt x="166" y="632" on="1"/>
        <pt x="166" y="1438" on="1"/>
        <pt x="450" y="1438" on="1"/>
        <pt x="450" y="598" on="1"/>
        <pt x="450" y="503" on="0"/>
        <pt x="483" y="350" on="0"/>
        <pt x="558" y="243" on="0"/>
        <pt x="678" y="185" on="0"/>
        <pt x="765" y="185" on="1"/>
        <pt x="854" y="185" on="0"/>
        <pt x="976" y="243" on="0"/>
        <pt x="1050" y="351" on="0"/>
        <pt x="1082" y="504" on="0"/>
        <pt x="1082" y="598" on="1"/>
        <pt x="1082" y="1438" on="1"/>
      </contour>
    </TTGlyph>
    <TTGlyph name="V" xMin="113" yMin="-2" xMax="1395" yMax="1438">
      <contour>
        <pt x="1395" y="1438" on="1"/>
        <pt x="884" y="-2" on="1"/>
        <pt x="625" y="-2" on="1"/>
        <pt x="113" y="1438" on="1"/>
        <pt x="400" y="1438" on="1"/>
        <pt x="755" y="309" on="1"/>
        <pt x="1108" y="1438" on="1"/>
      </contour>
    </TTGlyph>
    <TTGlyph name="W" xMin="73" yMin="0" xMax="1795" yMax="1437">
      <contour>
        <pt x="1795" y="1437" on="1"/>
        <pt x="1631" y="0" on="1"/>
        <pt x="1265" y="0" on="1"/>
        <pt x="934" y="1152" on="1"/>
        <pt x="603" y="0" on="1"/>
        <pt x="237" y="0" on="1"/>
        <pt x="73" y="1437" on="1"/>
        <pt x="347" y="1437" on="1"/>
        <pt x="465" y="358" on="1"/>
        <pt x="467" y="358" on="1"/>
        <pt x="777" y="1437" on="1"/>
        <pt x="1091" y="1437" on="1"/>
        <pt x="1401" y="358" on="1"/>
        <pt x="1403" y="358" on="1"/>
        <pt x="1521" y="1437" on="1"/>
      </contour>
    </TTGlyph>
    <TTGlyph name="Wacute" xMin="73" yMin="0" xMax="1795" yMax="2064">
      <contour>
        <pt x="900" y="2009" on="1"/>
        <pt x="936" y="2035" on="0"/>
        <pt x="1021" y="2064" on="0"/>
        <pt x="1061" y="2064" on="1"/>
        <pt x="1089" y="2064" on="0"/>
        <pt x="1139" y="2049" on="0"/>
        <pt x="1177" y="2017" on="0"/>
        <pt x="1199" y="1970" on="0"/>
        <pt x="1199" y="1938" on="1"/>
        <pt x="1199" y="1900" on="0"/>
        <pt x="1177" y="1831" on="0"/>
        <pt x="1132" y="1751" on="0"/>
        <pt x="1064" y="1649" on="0"/>
        <pt x="1019" y="1578" on="1"/>
        <pt x="863" y="1578" on="1"/>
        <pt x="958" y="1840" on="1"/>
      </contour>
      <contour>
        <pt x="1795" y="1437" on="1"/>
        <pt x="1631" y="0" on="1"/>
        <pt x="1265" y="0" on="1"/>
        <pt x="934" y="1152" on="1"/>
        <pt x="603" y="0" on="1"/>
        <pt x="237" y="0" on="1"/>
        <pt x="73" y="1437" on="1"/>
        <pt x="347" y="1437" on="1"/>
        <pt x="465" y="358" on="1"/>
        <pt x="467" y="358" on="1"/>
        <pt x="777" y="1437" on="1"/>
        <pt x="1091" y="1437" on="1"/>
        <pt x="1401" y="358" on="1"/>
        <pt x="1403" y="358" on="1"/>
        <pt x="1521" y="1437" on="1"/>
      </contour>
    </TTGlyph>
    <TTGlyph name="Wcircumflex" xMin="73" yMin="0" xMax="1795" yMax="1919">
      <contour>
        <pt x="934" y="1919" on="1"/>
        <pt x="1265" y="1665" on="1"/>
        <pt x="1190" y="1578" on="1"/>
        <pt x="934" y="1689" on="1"/>
        <pt x="678" y="1578" on="1"/>
        <pt x="603" y="1665" on="1"/>
      </contour>
      <contour>
        <pt x="1795" y="1437" on="1"/>
        <pt x="1631" y="0" on="1"/>
        <pt x="1265" y="0" on="1"/>
        <pt x="934" y="1152" on="1"/>
        <pt x="603" y="0" on="1"/>
        <pt x="237" y="0" on="1"/>
        <pt x="73" y="1437" on="1"/>
        <pt x="347" y="1437" on="1"/>
        <pt x="465" y="358" on="1"/>
        <pt x="467" y="358" on="1"/>
        <pt x="777" y="1437" on="1"/>
        <pt x="1091" y="1437" on="1"/>
        <pt x="1401" y="358" on="1"/>
        <pt x="1403" y="358" on="1"/>
        <pt x="1521" y="1437" on="1"/>
      </contour>
    </TTGlyph>
    <TTGlyph name="Wdieresis" xMin="73" yMin="0" xMax="1795" yMax="1853">
      <contour>
        <pt x="695" y="1853" on="1"/>
        <pt x="723" y="1853" on="0"/>
        <pt x="773" y="1831" on="0"/>
        <pt x="811" y="1793" on="0"/>
        <pt x="833" y="1743" on="0"/>
        <pt x="833" y="1715" on="1"/>
        <pt x="833" y="1686" on="0"/>
        <pt x="811" y="1635" on="0"/>
        <pt x="774" y="1597" on="0"/>
        <pt x="723" y="1575" on="0"/>
        <pt x="695" y="1575" on="1"/>
        <pt x="666" y="1575" on="0"/>
        <pt x="614" y="1597" on="0"/>
        <pt x="575" y="1635" on="0"/>
        <pt x="553" y="1686" on="0"/>
        <pt x="553" y="1715" on="1"/>
        <pt x="553" y="1743" on="0"/>
        <pt x="575" y="1794" on="0"/>
        <pt x="614" y="1831" on="0"/>
        <pt x="666" y="1853" on="0"/>
      </contour>
      <contour>
        <pt x="1177" y="1853" on="1"/>
        <pt x="1205" y="1853" on="0"/>
        <pt x="1255" y="1831" on="0"/>
        <pt x="1293" y="1793" on="0"/>
        <pt x="1315" y="1743" on="0"/>
        <pt x="1315" y="1715" on="1"/>
        <pt x="1315" y="1686" on="0"/>
        <pt x="1293" y="1635" on="0"/>
        <pt x="1256" y="1597" on="0"/>
        <pt x="1205" y="1575" on="0"/>
        <pt x="1177" y="1575" on="1"/>
        <pt x="1148" y="1575" on="0"/>
        <pt x="1096" y="1597" on="0"/>
        <pt x="1057" y="1635" on="0"/>
        <pt x="1035" y="1686" on="0"/>
        <pt x="1035" y="1715" on="1"/>
        <pt x="1035" y="1743" on="0"/>
        <pt x="1057" y="1794" on="0"/>
        <pt x="1096" y="1831" on="0"/>
        <pt x="1148" y="1853" on="0"/>
      </contour>
      <contour>
        <pt x="1795" y="1437" on="1"/>
        <pt x="1631" y="0" on="1"/>
        <pt x="1265" y="0" on="1"/>
        <pt x="934" y="1152" on="1"/>
        <pt x="603" y="0" on="1"/>
        <pt x="237" y="0" on="1"/>
        <pt x="73" y="1437" on="1"/>
        <pt x="347" y="1437" on="1"/>
        <pt x="465" y="358" on="1"/>
        <pt x="467" y="358" on="1"/>
        <pt x="777" y="1437" on="1"/>
        <pt x="1091" y="1437" on="1"/>
        <pt x="1401" y="358" on="1"/>
        <pt x="1403" y="358" on="1"/>
        <pt x="1521" y="1437" on="1"/>
      </contour>
    </TTGlyph>
    <TTGlyph name="Wgrave" xMin="73" yMin="0" xMax="1795" yMax="2064">
      <contour>
        <pt x="856" y="1578" on="1"/>
        <pt x="811" y="1649" on="0"/>
        <pt x="743" y="1751" on="0"/>
        <pt x="698" y="1831" on="0"/>
        <pt x="676" y="1900" on="0"/>
        <pt x="676" y="1938" on="1"/>
        <pt x="676" y="1970" on="0"/>
        <pt x="698" y="2017" on="0"/>
        <pt x="736" y="2049" on="0"/>
        <pt x="786" y="2064" on="0"/>
        <pt x="814" y="2064" on="1"/>
        <pt x="854" y="2064" on="0"/>
        <pt x="939" y="2035" on="0"/>
        <pt x="975" y="2009" on="1"/>
        <pt x="917" y="1840" on="1"/>
        <pt x="1012" y="1578" on="1"/>
      </contour>
      <contour>
        <pt x="1795" y="1437" on="1"/>
        <pt x="1631" y="0" on="1"/>
        <pt x="1265" y="0" on="1"/>
        <pt x="934" y="1152" on="1"/>
        <pt x="603" y="0" on="1"/>
        <pt x="237" y="0" on="1"/>
        <pt x="73" y="1437" on="1"/>
        <pt x="347" y="1437" on="1"/>
        <pt x="465" y="358" on="1"/>
        <pt x="467" y="358" on="1"/>
        <pt x="777" y="1437" on="1"/>
        <pt x="1091" y="1437" on="1"/>
        <pt x="1401" y="358" on="1"/>
        <pt x="1403" y="358" on="1"/>
        <pt x="1521" y="1437" on="1"/>
      </contour>
    </TTGlyph>
    <TTGlyph name="X" xMin="91" yMin="-24" xMax="1384" yMax="1463">
      <contour>
        <pt x="357" y="1463" on="1"/>
        <pt x="742" y="937" on="1"/>
        <pt x="1090" y="1438" on="1"/>
        <pt x="1384" y="1438" on="1"/>
        <pt x="893" y="731" on="1"/>
        <pt x="1343" y="114" on="1"/>
        <pt x="1084" y="-24" on="1"/>
        <pt x="717" y="482" on="1"/>
        <pt x="385" y="0" on="1"/>
        <pt x="91" y="0" on="1"/>
        <pt x="567" y="688" on="1"/>
        <pt x="98" y="1325" on="1"/>
      </contour>
    </TTGlyph>
    <TTGlyph name="Y" xMin="65" yMin="0" xMax="1335" yMax="1438">
      <contour>
        <pt x="1335" y="1438" on="1"/>
        <pt x="840" y="648" on="1"/>
        <pt x="840" y="0" on="1"/>
        <pt x="560" y="0" on="1"/>
        <pt x="560" y="648" on="1"/>
        <pt x="65" y="1438" on="1"/>
        <pt x="369" y="1438" on="1"/>
        <pt x="700" y="835" on="1"/>
        <pt x="1031" y="1438" on="1"/>
      </contour>
    </TTGlyph>
    <TTGlyph name="Yacute" xMin="65" yMin="0" xMax="1335" yMax="2064">
      <contour>
        <pt x="666" y="2009" on="1"/>
        <pt x="702" y="2035" on="0"/>
        <pt x="787" y="2064" on="0"/>
        <pt x="827" y="2064" on="1"/>
        <pt x="855" y="2064" on="0"/>
        <pt x="905" y="2049" on="0"/>
        <pt x="943" y="2017" on="0"/>
        <pt x="965" y="1970" on="0"/>
        <pt x="965" y="1938" on="1"/>
        <pt x="965" y="1900" on="0"/>
        <pt x="943" y="1831" on="0"/>
        <pt x="898" y="1751" on="0"/>
        <pt x="830" y="1649" on="0"/>
        <pt x="785" y="1578" on="1"/>
        <pt x="629" y="1578" on="1"/>
        <pt x="724" y="1840" on="1"/>
      </contour>
      <contour>
        <pt x="1335" y="1438" on="1"/>
        <pt x="840" y="648" on="1"/>
        <pt x="840" y="0" on="1"/>
        <pt x="560" y="0" on="1"/>
        <pt x="560" y="648" on="1"/>
        <pt x="65" y="1438" on="1"/>
        <pt x="369" y="1438" on="1"/>
        <pt x="700" y="835" on="1"/>
        <pt x="1031" y="1438" on="1"/>
      </contour>
    </TTGlyph>
    <TTGlyph name="Ycircumflex" xMin="65" yMin="0" xMax="1335" yMax="1919">
      <contour>
        <pt x="700" y="1919" on="1"/>
        <pt x="1031" y="1665" on="1"/>
        <pt x="956" y="1578" on="1"/>
        <pt x="700" y="1689" on="1"/>
        <pt x="444" y="1578" on="1"/>
        <pt x="369" y="1665" on="1"/>
      </contour>
      <contour>
        <pt x="1335" y="1438" on="1"/>
        <pt x="840" y="648" on="1"/>
        <pt x="840" y="0" on="1"/>
        <pt x="560" y="0" on="1"/>
        <pt x="560" y="648" on="1"/>
        <pt x="65" y="1438" on="1"/>
        <pt x="369" y="1438" on="1"/>
        <pt x="700" y="835" on="1"/>
        <pt x="1031" y="1438" on="1"/>
      </contour>
    </TTGlyph>
    <TTGlyph name="Ydieresis" xMin="65" yMin="0" xMax="1335" yMax="1853">
      <contour>
        <pt x="461" y="1853" on="1"/>
        <pt x="489" y="1853" on="0"/>
        <pt x="539" y="1831" on="0"/>
        <pt x="577" y="1793" on="0"/>
        <pt x="599" y="1743" on="0"/>
        <pt x="599" y="1715" on="1"/>
        <pt x="599" y="1686" on="0"/>
        <pt x="577" y="1635" on="0"/>
        <pt x="540" y="1597" on="0"/>
        <pt x="489" y="1575" on="0"/>
        <pt x="461" y="1575" on="1"/>
        <pt x="432" y="1575" on="0"/>
        <pt x="380" y="1597" on="0"/>
        <pt x="341" y="1635" on="0"/>
        <pt x="319" y="1686" on="0"/>
        <pt x="319" y="1715" on="1"/>
        <pt x="319" y="1743" on="0"/>
        <pt x="341" y="1794" on="0"/>
        <pt x="380" y="1831" on="0"/>
        <pt x="432" y="1853" on="0"/>
      </contour>
      <contour>
        <pt x="943" y="1853" on="1"/>
        <pt x="971" y="1853" on="0"/>
        <pt x="1021" y="1831" on="0"/>
        <pt x="1059" y="1793" on="0"/>
        <pt x="1081" y="1743" on="0"/>
        <pt x="1081" y="1715" on="1"/>
        <pt x="1081" y="1686" on="0"/>
        <pt x="1059" y="1635" on="0"/>
        <pt x="1022" y="1597" on="0"/>
        <pt x="971" y="1575" on="0"/>
        <pt x="943" y="1575" on="1"/>
        <pt x="914" y="1575" on="0"/>
        <pt x="862" y="1597" on="0"/>
        <pt x="823" y="1635" on="0"/>
        <pt x="801" y="1686" on="0"/>
        <pt x="801" y="1715" on="1"/>
        <pt x="801" y="1743" on="0"/>
        <pt x="823" y="1794" on="0"/>
        <pt x="862" y="1831" on="0"/>
        <pt x="914" y="1853" on="0"/>
      </contour>
      <contour>
        <pt x="1335" y="1438" on="1"/>
        <pt x="840" y="648" on="1"/>
        <pt x="840" y="0" on="1"/>
        <pt x="560" y="0" on="1"/>
        <pt x="560" y="648" on="1"/>
        <pt x="65" y="1438" on="1"/>
        <pt x="369" y="1438" on="1"/>
        <pt x="700" y="835" on="1"/>
        <pt x="1031" y="1438" on="1"/>
      </contour>
    </TTGlyph>
    <TTGlyph name="Ygrave" xMin="65" yMin="0" xMax="1335" yMax="2064">
      <contour>
        <pt x="622" y="1578" on="1"/>
        <pt x="577" y="1649" on="0"/>
        <pt x="509" y="1751" on="0"/>
        <pt x="464" y="1831" on="0"/>
        <pt x="442" y="1900" on="0"/>
        <pt x="442" y="1938" on="1"/>
        <pt x="442" y="1970" on="0"/>
        <pt x="464" y="2017" on="0"/>
        <pt x="502" y="2049" on="0"/>
        <pt x="552" y="2064" on="0"/>
        <pt x="580" y="2064" on="1"/>
        <pt x="620" y="2064" on="0"/>
        <pt x="705" y="2035" on="0"/>
        <pt x="741" y="2009" on="1"/>
        <pt x="683" y="1840" on="1"/>
        <pt x="778" y="1578" on="1"/>
      </contour>
      <contour>
        <pt x="1335" y="1438" on="1"/>
        <pt x="840" y="648" on="1"/>
        <pt x="840" y="0" on="1"/>
        <pt x="560" y="0" on="1"/>
        <pt x="560" y="648" on="1"/>
        <pt x="65" y="1438" on="1"/>
        <pt x="369" y="1438" on="1"/>
        <pt x="700" y="835" on="1"/>
        <pt x="1031" y="1438" on="1"/>
      </contour>
    </TTGlyph>
    <TTGlyph name="Z" xMin="147" yMin="0" xMax="1143" yMax="1438">
      <contour>
        <pt x="1137" y="1438" on="1"/>
        <pt x="1137" y="1271" on="1"/>
        <pt x="479" y="205" on="1"/>
        <pt x="1143" y="205" on="1"/>
        <pt x="1143" y="0" on="1"/>
        <pt x="147" y="0" on="1"/>
        <pt x="147" y="161" on="1"/>
        <pt x="807" y="1233" on="1"/>
        <pt x="170" y="1233" on="1"/>
        <pt x="170" y="1438" on="1"/>
      </contour>
    </TTGlyph>
    <TTGlyph name="Zacute" xMin="147" yMin="0" xMax="1143" yMax="2064">
      <contour>
        <pt x="612" y="2009" on="1"/>
        <pt x="648" y="2035" on="0"/>
        <pt x="733" y="2064" on="0"/>
        <pt x="773" y="2064" on="1"/>
        <pt x="801" y="2064" on="0"/>
        <pt x="851" y="2049" on="0"/>
        <pt x="889" y="2017" on="0"/>
        <pt x="911" y="1970" on="0"/>
        <pt x="911" y="1938" on="1"/>
        <pt x="911" y="1900" on="0"/>
        <pt x="889" y="1831" on="0"/>
        <pt x="844" y="1751" on="0"/>
        <pt x="776" y="1649" on="0"/>
        <pt x="731" y="1578" on="1"/>
        <pt x="575" y="1578" on="1"/>
        <pt x="670" y="1840" on="1"/>
      </contour>
      <contour>
        <pt x="1137" y="1438" on="1"/>
        <pt x="1137" y="1271" on="1"/>
        <pt x="479" y="205" on="1"/>
        <pt x="1143" y="205" on="1"/>
        <pt x="1143" y="0" on="1"/>
        <pt x="147" y="0" on="1"/>
        <pt x="147" y="161" on="1"/>
        <pt x="807" y="1233" on="1"/>
        <pt x="170" y="1233" on="1"/>
        <pt x="170" y="1438" on="1"/>
      </contour>
    </TTGlyph>
    <TTGlyph name="Zcaron" xMin="147" yMin="0" xMax="1143" yMax="1919">
      <contour>
        <pt x="902" y="1919" on="1"/>
        <pt x="977" y="1832" on="1"/>
        <pt x="646" y="1578" on="1"/>
        <pt x="315" y="1832" on="1"/>
        <pt x="390" y="1919" on="1"/>
        <pt x="646" y="1808" on="1"/>
      </contour>
      <contour>
        <pt x="1137" y="1438" on="1"/>
        <pt x="1137" y="1271" on="1"/>
        <pt x="479" y="205" on="1"/>
        <pt x="1143" y="205" on="1"/>
        <pt x="1143" y="0" on="1"/>
        <pt x="147" y="0" on="1"/>
        <pt x="147" y="161" on="1"/>
        <pt x="807" y="1233" on="1"/>
        <pt x="170" y="1233" on="1"/>
        <pt x="170" y="1438" on="1"/>
      </contour>
    </TTGlyph>
    <TTGlyph name="Zdotaccent" xMin="147" yMin="0" xMax="1143" yMax="1853">
      <contour>
        <pt x="646" y="1853" on="1"/>
        <pt x="674" y="1853" on="0"/>
        <pt x="724" y="1831" on="0"/>
        <pt x="762" y="1793" on="0"/>
        <pt x="784" y="1743" on="0"/>
        <pt x="784" y="1715" on="1"/>
        <pt x="784" y="1686" on="0"/>
        <pt x="762" y="1635" on="0"/>
        <pt x="725" y="1597" on="0"/>
        <pt x="674" y="1575" on="0"/>
        <pt x="646" y="1575" on="1"/>
        <pt x="617" y="1575" on="0"/>
        <pt x="565" y="1597" on="0"/>
        <pt x="526" y="1635" on="0"/>
        <pt x="504" y="1686" on="0"/>
        <pt x="504" y="1715" on="1"/>
        <pt x="504" y="1743" on="0"/>
        <pt x="526" y="1794" on="0"/>
        <pt x="565" y="1831" on="0"/>
        <pt x="617" y="1853" on="0"/>
      </contour>
      <contour>
        <pt x="1137" y="1438" on="1"/>
        <pt x="1137" y="1271" on="1"/>
        <pt x="479" y="205" on="1"/>
        <pt x="1143" y="205" on="1"/>
        <pt x="1143" y="0" on="1"/>
        <pt x="147" y="0" on="1"/>
        <pt x="147" y="161" on="1"/>
        <pt x="807" y="1233" on="1"/>
        <pt x="170" y="1233" on="1"/>
        <pt x="170" y="1438" on="1"/>
      </contour>
    </TTGlyph>
    <TTGlyph name="a" xMin="83" yMin="-24" xMax="1006" yMax="1063">
      <contour>
        <pt x="187" y="989" on="1"/>
        <pt x="224" y="1004" on="0"/>
        <pt x="319" y="1030" on="0"/>
        <pt x="426" y="1051" on="0"/>
        <pt x="541" y="1063" on="0"/>
        <pt x="600" y="1063" on="1"/>
        <pt x="683" y="1063" on="0"/>
        <pt x="828" y="1037" on="0"/>
        <pt x="876" y="1007" on="1"/>
        <pt x="924" y="977" on="0"/>
        <pt x="978" y="874" on="0"/>
        <pt x="978" y="796" on="1"/>
        <pt x="978" y="390" on="1"/>
        <pt x="978" y="320" on="0"/>
        <pt x="980" y="211" on="0"/>
        <pt x="983" y="159" on="1"/>
        <pt x="985" y="140" on="0"/>
        <pt x="989" y="109" on="0"/>
        <pt x="994" y="80" on="0"/>
        <pt x="1001" y="48" on="0"/>
        <pt x="1006" y="29" on="1"/>
        <pt x="944" y="15" on="0"/>
        <pt x="821" y="-11" on="0"/>
        <pt x="758" y="-23" on="1"/>
        <pt x="747" y="5" on="0"/>
        <pt x="734" y="64" on="0"/>
        <pt x="729" y="102" on="1"/>
        <pt x="714" y="102" on="1"/>
        <pt x="679" y="66" on="0"/>
        <pt x="609" y="18" on="0"/>
        <pt x="533" y="-12" on="0"/>
        <pt x="451" y="-24" on="0"/>
        <pt x="406" y="-24" on="1"/>
        <pt x="337" y="-24" on="0"/>
        <pt x="219" y="9" on="0"/>
        <pt x="132" y="77" on="0"/>
        <pt x="83" y="182" on="0"/>
        <pt x="83" y="253" on="1"/>
        <pt x="83" y="313" on="0"/>
        <pt x="108" y="407" on="0"/>
        <pt x="154" y="481" on="0"/>
        <pt x="218" y="537" on="0"/>
        <pt x="257" y="558" on="1"/>
        <pt x="335" y="600" on="0"/>
        <pt x="527" y="631" on="0"/>
        <pt x="627" y="631" on="1"/>
        <pt x="713" y="631" on="1"/>
        <pt x="713" y="761" on="1"/>
        <pt x="713" y="798" on="0"/>
        <pt x="690" y="841" on="0"/>
        <pt x="651" y="863" on="0"/>
        <pt x="599" y="870" on="0"/>
        <pt x="569" y="870" on="1"/>
        <pt x="488" y="870" on="0"/>
        <pt x="323" y="829" on="0"/>
        <pt x="248" y="799" on="1"/>
      </contour>
      <contour>
        <pt x="713" y="484" on="1"/>
        <pt x="693" y="484" on="1"/>
        <pt x="622" y="483" on="0"/>
        <pt x="493" y="464" on="0"/>
        <pt x="395" y="418" on="0"/>
        <pt x="336" y="343" on="0"/>
        <pt x="336" y="286" on="1"/>
        <pt x="336" y="223" on="0"/>
        <pt x="409" y="155" on="0"/>
        <pt x="475" y="155" on="1"/>
        <pt x="506" y="155" on="0"/>
        <pt x="572" y="172" on="0"/>
        <pt x="636" y="203" on="0"/>
        <pt x="692" y="249" on="0"/>
        <pt x="713" y="279" on="1"/>
      </contour>
    </TTGlyph>
    <TTGlyph name="aacute" xMin="83" yMin="-24" xMax="1006" yMax="1677">
      <contour>
        <pt x="562" y="1622" on="1"/>
        <pt x="598" y="1648" on="0"/>
        <pt x="683" y="1677" on="0"/>
        <pt x="723" y="1677" on="1"/>
        <pt x="751" y="1677" on="0"/>
        <pt x="801" y="1662" on="0"/>
        <pt x="839" y="1630" on="0"/>
        <pt x="861" y="1583" on="0"/>
        <pt x="861" y="1551" on="1"/>
        <pt x="861" y="1513" on="0"/>
        <pt x="839" y="1444" on="0"/>
        <pt x="794" y="1364" on="0"/>
        <pt x="726" y="1262" on="0"/>
        <pt x="681" y="1191" on="1"/>
        <pt x="525" y="1191" on="1"/>
        <pt x="620" y="1453" on="1"/>
      </contour>
      <contour>
        <pt x="187" y="989" on="1"/>
        <pt x="224" y="1004" on="0"/>
        <pt x="319" y="1030" on="0"/>
        <pt x="426" y="1051" on="0"/>
        <pt x="541" y="1063" on="0"/>
        <pt x="600" y="1063" on="1"/>
        <pt x="683" y="1063" on="0"/>
        <pt x="828" y="1037" on="0"/>
        <pt x="876" y="1007" on="1"/>
        <pt x="924" y="977" on="0"/>
        <pt x="978" y="874" on="0"/>
        <pt x="978" y="796" on="1"/>
        <pt x="978" y="390" on="1"/>
        <pt x="978" y="320" on="0"/>
        <pt x="980" y="211" on="0"/>
        <pt x="983" y="159" on="1"/>
        <pt x="985" y="140" on="0"/>
        <pt x="989" y="109" on="0"/>
        <pt x="994" y="80" on="0"/>
        <pt x="1001" y="48" on="0"/>
        <pt x="1006" y="29" on="1"/>
        <pt x="944" y="15" on="0"/>
        <pt x="821" y="-11" on="0"/>
        <pt x="758" y="-23" on="1"/>
        <pt x="747" y="5" on="0"/>
        <pt x="734" y="64" on="0"/>
        <pt x="729" y="102" on="1"/>
        <pt x="714" y="102" on="1"/>
        <pt x="679" y="66" on="0"/>
        <pt x="609" y="18" on="0"/>
        <pt x="533" y="-12" on="0"/>
        <pt x="451" y="-24" on="0"/>
        <pt x="406" y="-24" on="1"/>
        <pt x="337" y="-24" on="0"/>
        <pt x="219" y="9" on="0"/>
        <pt x="132" y="77" on="0"/>
        <pt x="83" y="182" on="0"/>
        <pt x="83" y="253" on="1"/>
        <pt x="83" y="313" on="0"/>
        <pt x="108" y="407" on="0"/>
        <pt x="154" y="481" on="0"/>
        <pt x="218" y="537" on="0"/>
        <pt x="257" y="558" on="1"/>
        <pt x="335" y="600" on="0"/>
        <pt x="527" y="631" on="0"/>
        <pt x="627" y="631" on="1"/>
        <pt x="713" y="631" on="1"/>
        <pt x="713" y="761" on="1"/>
        <pt x="713" y="798" on="0"/>
        <pt x="690" y="841" on="0"/>
        <pt x="651" y="863" on="0"/>
        <pt x="599" y="870" on="0"/>
        <pt x="569" y="870" on="1"/>
        <pt x="488" y="870" on="0"/>
        <pt x="323" y="829" on="0"/>
        <pt x="248" y="799" on="1"/>
      </contour>
      <contour>
        <pt x="713" y="484" on="1"/>
        <pt x="693" y="484" on="1"/>
        <pt x="622" y="483" on="0"/>
        <pt x="493" y="464" on="0"/>
        <pt x="395" y="418" on="0"/>
        <pt x="336" y="343" on="0"/>
        <pt x="336" y="286" on="1"/>
        <pt x="336" y="223" on="0"/>
        <pt x="409" y="155" on="0"/>
        <pt x="475" y="155" on="1"/>
        <pt x="506" y="155" on="0"/>
        <pt x="572" y="172" on="0"/>
        <pt x="636" y="203" on="0"/>
        <pt x="692" y="249" on="0"/>
        <pt x="713" y="279" on="1"/>
      </contour>
    </TTGlyph>
    <TTGlyph name="abreve" xMin="83" yMin="-24" xMax="1006" yMax="1517">
      <contour>
        <pt x="924" y="1517" on="1"/>
        <pt x="906" y="1372" on="0"/>
        <pt x="739" y="1218" on="0"/>
        <pt x="596" y="1218" on="1"/>
        <pt x="453" y="1218" on="0"/>
        <pt x="286" y="1372" on="0"/>
        <pt x="268" y="1517" on="1"/>
        <pt x="368" y="1517" on="1"/>
        <pt x="404" y="1442" on="0"/>
        <pt x="518" y="1384" on="0"/>
        <pt x="596" y="1384" on="1"/>
        <pt x="674" y="1384" on="0"/>
        <pt x="788" y="1442" on="0"/>
        <pt x="824" y="1517" on="1"/>
      </contour>
      <contour>
        <pt x="187" y="989" on="1"/>
        <pt x="224" y="1004" on="0"/>
        <pt x="319" y="1030" on="0"/>
        <pt x="426" y="1051" on="0"/>
        <pt x="541" y="1063" on="0"/>
        <pt x="600" y="1063" on="1"/>
        <pt x="683" y="1063" on="0"/>
        <pt x="828" y="1037" on="0"/>
        <pt x="876" y="1007" on="1"/>
        <pt x="924" y="977" on="0"/>
        <pt x="978" y="874" on="0"/>
        <pt x="978" y="796" on="1"/>
        <pt x="978" y="390" on="1"/>
        <pt x="978" y="320" on="0"/>
        <pt x="980" y="211" on="0"/>
        <pt x="983" y="159" on="1"/>
        <pt x="985" y="140" on="0"/>
        <pt x="989" y="109" on="0"/>
        <pt x="994" y="80" on="0"/>
        <pt x="1001" y="48" on="0"/>
        <pt x="1006" y="29" on="1"/>
        <pt x="944" y="15" on="0"/>
        <pt x="821" y="-11" on="0"/>
        <pt x="758" y="-23" on="1"/>
        <pt x="747" y="5" on="0"/>
        <pt x="734" y="64" on="0"/>
        <pt x="729" y="102" on="1"/>
        <pt x="714" y="102" on="1"/>
        <pt x="679" y="66" on="0"/>
        <pt x="609" y="18" on="0"/>
        <pt x="533" y="-12" on="0"/>
        <pt x="451" y="-24" on="0"/>
        <pt x="406" y="-24" on="1"/>
        <pt x="337" y="-24" on="0"/>
        <pt x="219" y="9" on="0"/>
        <pt x="132" y="77" on="0"/>
        <pt x="83" y="182" on="0"/>
        <pt x="83" y="253" on="1"/>
        <pt x="83" y="313" on="0"/>
        <pt x="108" y="407" on="0"/>
        <pt x="154" y="481" on="0"/>
        <pt x="218" y="537" on="0"/>
        <pt x="257" y="558" on="1"/>
        <pt x="335" y="600" on="0"/>
        <pt x="527" y="631" on="0"/>
        <pt x="627" y="631" on="1"/>
        <pt x="713" y="631" on="1"/>
        <pt x="713" y="761" on="1"/>
        <pt x="713" y="798" on="0"/>
        <pt x="690" y="841" on="0"/>
        <pt x="651" y="863" on="0"/>
        <pt x="599" y="870" on="0"/>
        <pt x="569" y="870" on="1"/>
        <pt x="488" y="870" on="0"/>
        <pt x="323" y="829" on="0"/>
        <pt x="248" y="799" on="1"/>
      </contour>
      <contour>
        <pt x="713" y="484" on="1"/>
        <pt x="693" y="484" on="1"/>
        <pt x="622" y="483" on="0"/>
        <pt x="493" y="464" on="0"/>
        <pt x="395" y="418" on="0"/>
        <pt x="336" y="343" on="0"/>
        <pt x="336" y="286" on="1"/>
        <pt x="336" y="223" on="0"/>
        <pt x="409" y="155" on="0"/>
        <pt x="475" y="155" on="1"/>
        <pt x="506" y="155" on="0"/>
        <pt x="572" y="172" on="0"/>
        <pt x="636" y="203" on="0"/>
        <pt x="692" y="249" on="0"/>
        <pt x="713" y="279" on="1"/>
      </contour>
    </TTGlyph>
    <TTGlyph name="acircumflex" xMin="83" yMin="-24" xMax="1006" yMax="1532">
      <contour>
        <pt x="596" y="1532" on="1"/>
        <pt x="927" y="1278" on="1"/>
        <pt x="852" y="1191" on="1"/>
        <pt x="596" y="1302" on="1"/>
        <pt x="340" y="1191" on="1"/>
        <pt x="265" y="1278" on="1"/>
      </contour>
      <contour>
        <pt x="187" y="989" on="1"/>
        <pt x="224" y="1004" on="0"/>
        <pt x="319" y="1030" on="0"/>
        <pt x="426" y="1051" on="0"/>
        <pt x="541" y="1063" on="0"/>
        <pt x="600" y="1063" on="1"/>
        <pt x="683" y="1063" on="0"/>
        <pt x="828" y="1037" on="0"/>
        <pt x="876" y="1007" on="1"/>
        <pt x="924" y="977" on="0"/>
        <pt x="978" y="874" on="0"/>
        <pt x="978" y="796" on="1"/>
        <pt x="978" y="390" on="1"/>
        <pt x="978" y="320" on="0"/>
        <pt x="980" y="211" on="0"/>
        <pt x="983" y="159" on="1"/>
        <pt x="985" y="140" on="0"/>
        <pt x="989" y="109" on="0"/>
        <pt x="994" y="80" on="0"/>
        <pt x="1001" y="48" on="0"/>
        <pt x="1006" y="29" on="1"/>
        <pt x="944" y="15" on="0"/>
        <pt x="821" y="-11" on="0"/>
        <pt x="758" y="-23" on="1"/>
        <pt x="747" y="5" on="0"/>
        <pt x="734" y="64" on="0"/>
        <pt x="729" y="102" on="1"/>
        <pt x="714" y="102" on="1"/>
        <pt x="679" y="66" on="0"/>
        <pt x="609" y="18" on="0"/>
        <pt x="533" y="-12" on="0"/>
        <pt x="451" y="-24" on="0"/>
        <pt x="406" y="-24" on="1"/>
        <pt x="337" y="-24" on="0"/>
        <pt x="219" y="9" on="0"/>
        <pt x="132" y="77" on="0"/>
        <pt x="83" y="182" on="0"/>
        <pt x="83" y="253" on="1"/>
        <pt x="83" y="313" on="0"/>
        <pt x="108" y="407" on="0"/>
        <pt x="154" y="481" on="0"/>
        <pt x="218" y="537" on="0"/>
        <pt x="257" y="558" on="1"/>
        <pt x="335" y="600" on="0"/>
        <pt x="527" y="631" on="0"/>
        <pt x="627" y="631" on="1"/>
        <pt x="713" y="631" on="1"/>
        <pt x="713" y="761" on="1"/>
        <pt x="713" y="798" on="0"/>
        <pt x="690" y="841" on="0"/>
        <pt x="651" y="863" on="0"/>
        <pt x="599" y="870" on="0"/>
        <pt x="569" y="870" on="1"/>
        <pt x="488" y="870" on="0"/>
        <pt x="323" y="829" on="0"/>
        <pt x="248" y="799" on="1"/>
      </contour>
      <contour>
        <pt x="713" y="484" on="1"/>
        <pt x="693" y="484" on="1"/>
        <pt x="622" y="483" on="0"/>
        <pt x="493" y="464" on="0"/>
        <pt x="395" y="418" on="0"/>
        <pt x="336" y="343" on="0"/>
        <pt x="336" y="286" on="1"/>
        <pt x="336" y="223" on="0"/>
        <pt x="409" y="155" on="0"/>
        <pt x="475" y="155" on="1"/>
        <pt x="506" y="155" on="0"/>
        <pt x="572" y="172" on="0"/>
        <pt x="636" y="203" on="0"/>
        <pt x="692" y="249" on="0"/>
        <pt x="713" y="279" on="1"/>
      </contour>
    </TTGlyph>
    <TTGlyph name="acute" xMin="210" yMin="1181" xMax="546" yMax="1667">
      <contour>
        <pt x="247" y="1612" on="1"/>
        <pt x="283" y="1638" on="0"/>
        <pt x="368" y="1667" on="0"/>
        <pt x="408" y="1667" on="1"/>
        <pt x="436" y="1667" on="0"/>
        <pt x="486" y="1652" on="0"/>
        <pt x="524" y="1620" on="0"/>
        <pt x="546" y="1573" on="0"/>
        <pt x="546" y="1541" on="1"/>
        <pt x="546" y="1503" on="0"/>
        <pt x="524" y="1434" on="0"/>
        <pt x="479" y="1354" on="0"/>
        <pt x="411" y="1252" on="0"/>
        <pt x="366" y="1181" on="1"/>
        <pt x="210" y="1181" on="1"/>
        <pt x="305" y="1443" on="1"/>
      </contour>
    </TTGlyph>
    <TTGlyph name="adieresis" xMin="83" yMin="-24" xMax="1006" yMax="1466">
      <contour>
        <pt x="357" y="1466" on="1"/>
        <pt x="385" y="1466" on="0"/>
        <pt x="435" y="1444" on="0"/>
        <pt x="473" y="1406" on="0"/>
        <pt x="495" y="1356" on="0"/>
        <pt x="495" y="1328" on="1"/>
        <pt x="495" y="1299" on="0"/>
        <pt x="473" y="1248" on="0"/>
        <pt x="436" y="1210" on="0"/>
        <pt x="385" y="1188" on="0"/>
        <pt x="357" y="1188" on="1"/>
        <pt x="328" y="1188" on="0"/>
        <pt x="276" y="1210" on="0"/>
        <pt x="237" y="1248" on="0"/>
        <pt x="215" y="1299" on="0"/>
        <pt x="215" y="1328" on="1"/>
        <pt x="215" y="1356" on="0"/>
        <pt x="237" y="1407" on="0"/>
        <pt x="276" y="1444" on="0"/>
        <pt x="328" y="1466" on="0"/>
      </contour>
      <contour>
        <pt x="839" y="1466" on="1"/>
        <pt x="867" y="1466" on="0"/>
        <pt x="917" y="1444" on="0"/>
        <pt x="955" y="1406" on="0"/>
        <pt x="977" y="1356" on="0"/>
        <pt x="977" y="1328" on="1"/>
        <pt x="977" y="1299" on="0"/>
        <pt x="955" y="1248" on="0"/>
        <pt x="918" y="1210" on="0"/>
        <pt x="867" y="1188" on="0"/>
        <pt x="839" y="1188" on="1"/>
        <pt x="810" y="1188" on="0"/>
        <pt x="758" y="1210" on="0"/>
        <pt x="719" y="1248" on="0"/>
        <pt x="697" y="1299" on="0"/>
        <pt x="697" y="1328" on="1"/>
        <pt x="697" y="1356" on="0"/>
        <pt x="719" y="1407" on="0"/>
        <pt x="758" y="1444" on="0"/>
        <pt x="810" y="1466" on="0"/>
      </contour>
      <contour>
        <pt x="187" y="989" on="1"/>
        <pt x="224" y="1004" on="0"/>
        <pt x="319" y="1030" on="0"/>
        <pt x="426" y="1051" on="0"/>
        <pt x="541" y="1063" on="0"/>
        <pt x="600" y="1063" on="1"/>
        <pt x="683" y="1063" on="0"/>
        <pt x="828" y="1037" on="0"/>
        <pt x="876" y="1007" on="1"/>
        <pt x="924" y="977" on="0"/>
        <pt x="978" y="874" on="0"/>
        <pt x="978" y="796" on="1"/>
        <pt x="978" y="390" on="1"/>
        <pt x="978" y="320" on="0"/>
        <pt x="980" y="211" on="0"/>
        <pt x="983" y="159" on="1"/>
        <pt x="985" y="140" on="0"/>
        <pt x="989" y="109" on="0"/>
        <pt x="994" y="80" on="0"/>
        <pt x="1001" y="48" on="0"/>
        <pt x="1006" y="29" on="1"/>
        <pt x="944" y="15" on="0"/>
        <pt x="821" y="-11" on="0"/>
        <pt x="758" y="-23" on="1"/>
        <pt x="747" y="5" on="0"/>
        <pt x="734" y="64" on="0"/>
        <pt x="729" y="102" on="1"/>
        <pt x="714" y="102" on="1"/>
        <pt x="679" y="66" on="0"/>
        <pt x="609" y="18" on="0"/>
        <pt x="533" y="-12" on="0"/>
        <pt x="451" y="-24" on="0"/>
        <pt x="406" y="-24" on="1"/>
        <pt x="337" y="-24" on="0"/>
        <pt x="219" y="9" on="0"/>
        <pt x="132" y="77" on="0"/>
        <pt x="83" y="182" on="0"/>
        <pt x="83" y="253" on="1"/>
        <pt x="83" y="313" on="0"/>
        <pt x="108" y="407" on="0"/>
        <pt x="154" y="481" on="0"/>
        <pt x="218" y="537" on="0"/>
        <pt x="257" y="558" on="1"/>
        <pt x="335" y="600" on="0"/>
        <pt x="527" y="631" on="0"/>
        <pt x="627" y="631" on="1"/>
        <pt x="713" y="631" on="1"/>
        <pt x="713" y="761" on="1"/>
        <pt x="713" y="798" on="0"/>
        <pt x="690" y="841" on="0"/>
        <pt x="651" y="863" on="0"/>
        <pt x="599" y="870" on="0"/>
        <pt x="569" y="870" on="1"/>
        <pt x="488" y="870" on="0"/>
        <pt x="323" y="829" on="0"/>
        <pt x="248" y="799" on="1"/>
      </contour>
      <contour>
        <pt x="713" y="484" on="1"/>
        <pt x="693" y="484" on="1"/>
        <pt x="622" y="483" on="0"/>
        <pt x="493" y="464" on="0"/>
        <pt x="395" y="418" on="0"/>
        <pt x="336" y="343" on="0"/>
        <pt x="336" y="286" on="1"/>
        <pt x="336" y="223" on="0"/>
        <pt x="409" y="155" on="0"/>
        <pt x="475" y="155" on="1"/>
        <pt x="506" y="155" on="0"/>
        <pt x="572" y="172" on="0"/>
        <pt x="636" y="203" on="0"/>
        <pt x="692" y="249" on="0"/>
        <pt x="713" y="279" on="1"/>
      </contour>
    </TTGlyph>
    <TTGlyph name="ae" xMin="83" yMin="-24" xMax="1716" yMax="1063">
      <contour>
        <pt x="187" y="989" on="1"/>
        <pt x="224" y="1004" on="0"/>
        <pt x="319" y="1030" on="0"/>
        <pt x="426" y="1051" on="0"/>
        <pt x="541" y="1063" on="0"/>
        <pt x="600" y="1063" on="1"/>
        <pt x="708" y="1063" on="0"/>
        <pt x="865" y="1024" on="0"/>
        <pt x="910" y="981" on="1"/>
        <pt x="966" y="1020" on="0"/>
        <pt x="1112" y="1063" on="0"/>
        <pt x="1206" y="1063" on="1"/>
        <pt x="1336" y="1063" on="0"/>
        <pt x="1528" y="1000" on="0"/>
        <pt x="1654" y="869" on="0"/>
        <pt x="1716" y="666" on="0"/>
        <pt x="1716" y="526" on="1"/>
        <pt x="1716" y="447" on="1"/>
        <pt x="979" y="447" on="1"/>
        <pt x="981" y="378" on="0"/>
        <pt x="1009" y="274" on="0"/>
        <pt x="1072" y="203" on="0"/>
        <pt x="1178" y="167" on="0"/>
        <pt x="1258" y="167" on="1"/>
        <pt x="1328" y="167" on="0"/>
        <pt x="1490" y="202" on="0"/>
        <pt x="1578" y="235" on="1"/>
        <pt x="1642" y="47" on="1"/>
        <pt x="1601" y="30" on="0"/>
        <pt x="1504" y="4" on="0"/>
        <pt x="1398" y="-14" on="0"/>
        <pt x="1289" y="-24" on="0"/>
        <pt x="1237" y="-24" on="1"/>
        <pt x="1081" y="-24" on="0"/>
        <pt x="860" y="63" on="0"/>
        <pt x="795" y="154" on="1"/>
        <pt x="743" y="92" on="0"/>
        <pt x="644" y="21" on="0"/>
        <pt x="548" y="-15" on="0"/>
        <pt x="453" y="-24" on="0"/>
        <pt x="406" y="-24" on="1"/>
        <pt x="337" y="-24" on="0"/>
        <pt x="219" y="9" on="0"/>
        <pt x="132" y="77" on="0"/>
        <pt x="83" y="182" on="0"/>
        <pt x="83" y="253" on="1"/>
        <pt x="83" y="313" on="0"/>
        <pt x="108" y="407" on="0"/>
        <pt x="154" y="481" on="0"/>
        <pt x="218" y="537" on="0"/>
        <pt x="257" y="558" on="1"/>
        <pt x="335" y="600" on="0"/>
        <pt x="527" y="631" on="0"/>
        <pt x="627" y="631" on="1"/>
        <pt x="713" y="631" on="1"/>
        <pt x="713" y="761" on="1"/>
        <pt x="713" y="798" on="0"/>
        <pt x="690" y="841" on="0"/>
        <pt x="651" y="863" on="0"/>
        <pt x="599" y="870" on="0"/>
        <pt x="569" y="870" on="1"/>
        <pt x="488" y="870" on="0"/>
        <pt x="323" y="829" on="0"/>
        <pt x="248" y="799" on="1"/>
      </contour>
      <contour>
        <pt x="1442" y="625" on="1"/>
        <pt x="1435" y="872" on="0"/>
        <pt x="1220" y="872" on="1"/>
        <pt x="1109" y="872" on="0"/>
        <pt x="994" y="744" on="0"/>
        <pt x="981" y="625" on="1"/>
      </contour>
      <contour>
        <pt x="693" y="484" on="1"/>
        <pt x="622" y="483" on="0"/>
        <pt x="493" y="464" on="0"/>
        <pt x="395" y="418" on="0"/>
        <pt x="336" y="343" on="0"/>
        <pt x="336" y="286" on="1"/>
        <pt x="336" y="223" on="0"/>
        <pt x="409" y="155" on="0"/>
        <pt x="475" y="155" on="1"/>
        <pt x="515" y="155" on="0"/>
        <pt x="588" y="177" on="0"/>
        <pt x="652" y="215" on="0"/>
        <pt x="707" y="265" on="0"/>
        <pt x="729" y="294" on="1"/>
        <pt x="718" y="336" on="0"/>
        <pt x="705" y="430" on="0"/>
        <pt x="705" y="484" on="1"/>
      </contour>
    </TTGlyph>
    <TTGlyph name="afii57636" xMin="65" yMin="-36" xMax="1849" yMax="1078">
      <contour>
        <pt x="895" y="199" on="1"/>
        <pt x="925" y="197" on="0"/>
        <pt x="986" y="194" on="0"/>
        <pt x="1017" y="194" on="1"/>
        <pt x="1153" y="194" on="0"/>
        <pt x="1362" y="283" on="0"/>
        <pt x="1505" y="453" on="0"/>
        <pt x="1578" y="700" on="0"/>
        <pt x="1578" y="858" on="1"/>
        <pt x="1578" y="900" on="0"/>
        <pt x="1571" y="982" on="0"/>
        <pt x="1565" y="1025" on="1"/>
        <pt x="1629" y="1042" on="0"/>
        <pt x="1758" y="1068" on="0"/>
        <pt x="1827" y="1078" on="1"/>
        <pt x="1838" y="1027" on="0"/>
        <pt x="1849" y="905" on="0"/>
        <pt x="1849" y="844" on="1"/>
        <pt x="1849" y="804" on="0"/>
        <pt x="1845" y="730" on="0"/>
        <pt x="1841" y="698" on="1"/>
        <pt x="1818" y="506" on="0"/>
        <pt x="1674" y="229" on="0"/>
        <pt x="1445" y="50" on="0"/>
        <pt x="1138" y="-36" on="0"/>
        <pt x="952" y="-36" on="1"/>
        <pt x="864" y="-36" on="0"/>
        <pt x="700" y="-23" on="0"/>
        <pt x="627" y="-15" on="1"/>
        <pt x="627" y="629" on="1"/>
        <pt x="895" y="629" on="1"/>
      </contour>
      <contour>
        <pt x="183" y="572" on="1"/>
        <pt x="183" y="632" on="0"/>
        <pt x="199" y="758" on="0"/>
        <pt x="216" y="825" on="1"/>
        <pt x="186" y="828" on="0"/>
        <pt x="118" y="841" on="0"/>
        <pt x="65" y="855" on="1"/>
        <pt x="73" y="887" on="0"/>
        <pt x="86" y="939" on="0"/>
        <pt x="100" y="987" on="0"/>
        <pt x="116" y="1037" on="0"/>
        <pt x="127" y="1068" on="1"/>
        <pt x="172" y="1059" on="0"/>
        <pt x="231" y="1048" on="0"/>
        <pt x="279" y="1042" on="0"/>
        <pt x="324" y="1040" on="0"/>
        <pt x="354" y="1040" on="1"/>
        <pt x="999" y="1040" on="1"/>
        <pt x="1062" y="1040" on="0"/>
        <pt x="1184" y="1012" on="0"/>
        <pt x="1233" y="973" on="1"/>
        <pt x="1281" y="935" on="0"/>
        <pt x="1341" y="800" on="0"/>
        <pt x="1341" y="691" on="1"/>
        <pt x="1341" y="644" on="0"/>
        <pt x="1329" y="506" on="0"/>
        <pt x="1312" y="415" on="1"/>
        <pt x="1243" y="421" on="0"/>
        <pt x="1116" y="440" on="0"/>
        <pt x="1050" y="454" on="1"/>
        <pt x="1054" y="484" on="0"/>
        <pt x="1061" y="527" on="0"/>
        <pt x="1066" y="564" on="0"/>
        <pt x="1070" y="600" on="0"/>
        <pt x="1070" y="623" on="1"/>
        <pt x="1070" y="685" on="0"/>
        <pt x="1059" y="763" on="0"/>
        <pt x="1021" y="807" on="0"/>
        <pt x="949" y="823" on="0"/>
        <pt x="889" y="823" on="1"/>
        <pt x="476" y="823" on="1"/>
        <pt x="460" y="754" on="0"/>
        <pt x="454" y="639" on="0"/>
        <pt x="454" y="578" on="1"/>
        <pt x="454" y="0" on="1"/>
        <pt x="183" y="0" on="1"/>
      </contour>
    </TTGlyph>
    <TTGlyph name="afii57645" xMin="120" yMin="823" xMax="708" yMax="1040">
      <contour>
        <pt x="120" y="1040" on="1"/>
        <pt x="708" y="1040" on="1"/>
        <pt x="708" y="823" on="1"/>
        <pt x="120" y="823" on="1"/>
      </contour>
    </TTGlyph>
    <TTGlyph name="afii57658" xMin="187" yMin="-20" xMax="483" yMax="887">
      <contour>
        <pt x="335" y="887" on="1"/>
        <pt x="368" y="887" on="0"/>
        <pt x="423" y="864" on="0"/>
        <pt x="462" y="823" on="0"/>
        <pt x="483" y="769" on="0"/>
        <pt x="483" y="739" on="1"/>
        <pt x="483" y="709" on="0"/>
        <pt x="460" y="655" on="0"/>
        <pt x="419" y="614" on="0"/>
        <pt x="365" y="591" on="0"/>
        <pt x="335" y="591" on="1"/>
        <pt x="305" y="591" on="0"/>
        <pt x="251" y="614" on="0"/>
        <pt x="210" y="655" on="0"/>
        <pt x="187" y="709" on="0"/>
        <pt x="187" y="739" on="1"/>
        <pt x="187" y="772" on="0"/>
        <pt x="211" y="826" on="0"/>
        <pt x="252" y="865" on="0"/>
        <pt x="305" y="887" on="0"/>
      </contour>
      <contour>
        <pt x="335" y="276" on="1"/>
        <pt x="368" y="276" on="0"/>
        <pt x="423" y="253" on="0"/>
        <pt x="462" y="212" on="0"/>
        <pt x="483" y="158" on="0"/>
        <pt x="483" y="128" on="1"/>
        <pt x="483" y="98" on="0"/>
        <pt x="460" y="44" on="0"/>
        <pt x="419" y="3" on="0"/>
        <pt x="365" y="-20" on="0"/>
        <pt x="335" y="-20" on="1"/>
        <pt x="305" y="-20" on="0"/>
        <pt x="251" y="3" on="0"/>
        <pt x="210" y="44" on="0"/>
        <pt x="187" y="98" on="0"/>
        <pt x="187" y="128" on="1"/>
        <pt x="187" y="161" on="0"/>
        <pt x="211" y="215" on="0"/>
        <pt x="252" y="254" on="0"/>
        <pt x="305" y="276" on="0"/>
      </contour>
    </TTGlyph>
    <TTGlyph name="afii57664" xMin="129" yMin="-61" xMax="1151" yMax="1084">
      <contour>
        <pt x="1106" y="690" on="1"/>
        <pt x="1092" y="628" on="0"/>
        <pt x="1058" y="530" on="0"/>
        <pt x="1012" y="450" on="0"/>
        <pt x="950" y="382" on="0"/>
        <pt x="907" y="349" on="1"/>
        <pt x="1128" y="95" on="1"/>
        <pt x="953" y="-61" on="1"/>
        <pt x="432" y="540" on="1"/>
        <pt x="417" y="514" on="0"/>
        <pt x="400" y="433" on="0"/>
        <pt x="392" y="337" on="0"/>
        <pt x="390" y="236" on="0"/>
        <pt x="389" y="190" on="1"/>
        <pt x="389" y="174" on="0"/>
        <pt x="388" y="127" on="0"/>
        <pt x="386" y="73" on="0"/>
        <pt x="385" y="16" on="0"/>
        <pt x="385" y="-10" on="1"/>
        <pt x="130" y="-10" on="1"/>
        <pt x="130" y="18" on="0"/>
        <pt x="132" y="83" on="0"/>
        <pt x="133" y="162" on="0"/>
        <pt x="136" y="259" on="0"/>
        <pt x="138" y="319" on="1"/>
        <pt x="139" y="380" on="0"/>
        <pt x="153" y="486" on="0"/>
        <pt x="185" y="581" on="0"/>
        <pt x="239" y="670" on="0"/>
        <pt x="282" y="715" on="1"/>
        <pt x="256" y="748" on="0"/>
        <pt x="215" y="810" on="0"/>
        <pt x="180" y="877" on="0"/>
        <pt x="147" y="952" on="0"/>
        <pt x="129" y="997" on="1"/>
        <pt x="184" y="1020" on="0"/>
        <pt x="309" y="1066" on="0"/>
        <pt x="364" y="1084" on="1"/>
        <pt x="386" y="1028" on="0"/>
        <pt x="426" y="940" on="0"/>
        <pt x="473" y="861" on="0"/>
        <pt x="532" y="782" on="0"/>
        <pt x="573" y="735" on="1"/>
        <pt x="764" y="515" on="1"/>
        <pt x="790" y="539" on="0"/>
        <pt x="826" y="598" on="0"/>
        <pt x="843" y="645" on="1"/>
        <pt x="849" y="662" on="0"/>
        <pt x="861" y="704" on="0"/>
        <pt x="866" y="727" on="1"/>
        <pt x="892" y="847" on="1"/>
        <pt x="746" y="872" on="1"/>
        <pt x="782" y="1081" on="1"/>
        <pt x="1151" y="1018" on="1"/>
        <pt x="1151" y="889" on="1"/>
      </contour>
    </TTGlyph>
    <TTGlyph name="afii57665" xMin="80" yMin="0" xMax="1117" yMax="1081">
      <contour>
        <pt x="660" y="623" on="1"/>
        <pt x="660" y="685" on="0"/>
        <pt x="649" y="763" on="0"/>
        <pt x="611" y="807" on="0"/>
        <pt x="539" y="823" on="0"/>
        <pt x="479" y="823" on="1"/>
        <pt x="428" y="823" on="0"/>
        <pt x="350" y="826" on="0"/>
        <pt x="278" y="835" on="0"/>
        <pt x="203" y="854" on="0"/>
        <pt x="155" y="871" on="1"/>
        <pt x="171" y="925" on="0"/>
        <pt x="204" y="1030" on="0"/>
        <pt x="223" y="1081" on="1"/>
        <pt x="274" y="1067" on="0"/>
        <pt x="347" y="1051" on="0"/>
        <pt x="414" y="1042" on="0"/>
        <pt x="488" y="1040" on="0"/>
        <pt x="541" y="1040" on="1"/>
        <pt x="591" y="1040" on="1"/>
        <pt x="654" y="1040" on="0"/>
        <pt x="776" y="1012" on="0"/>
        <pt x="825" y="973" on="1"/>
        <pt x="873" y="935" on="0"/>
        <pt x="933" y="801" on="0"/>
        <pt x="933" y="693" on="1"/>
        <pt x="933" y="217" on="1"/>
        <pt x="1117" y="217" on="1"/>
        <pt x="1117" y="0" on="1"/>
        <pt x="80" y="0" on="1"/>
        <pt x="80" y="217" on="1"/>
        <pt x="660" y="217" on="1"/>
      </contour>
    </TTGlyph>
    <TTGlyph name="afii57666" xMin="52" yMin="-36" xMax="867" yMax="1040">
      <contour>
        <pt x="722" y="1040" on="1"/>
        <pt x="722" y="689" on="1"/>
        <pt x="722" y="620" on="0"/>
        <pt x="725" y="524" on="0"/>
        <pt x="735" y="446" on="0"/>
        <pt x="753" y="375" on="0"/>
        <pt x="767" y="332" on="1"/>
        <pt x="784" y="279" on="0"/>
        <pt x="812" y="193" on="0"/>
        <pt x="836" y="117" on="0"/>
        <pt x="856" y="42" on="0"/>
        <pt x="867" y="0" on="1"/>
        <pt x="619" y="0" on="1"/>
        <pt x="614" y="18" on="0"/>
        <pt x="600" y="64" on="0"/>
        <pt x="585" y="114" on="0"/>
        <pt x="568" y="165" on="0"/>
        <pt x="561" y="189" on="1"/>
        <pt x="545" y="238" on="1"/>
        <pt x="533" y="224" on="0"/>
        <pt x="502" y="189" on="0"/>
        <pt x="469" y="153" on="0"/>
        <pt x="437" y="118" on="0"/>
        <pt x="422" y="104" on="1"/>
        <pt x="395" y="78" on="0"/>
        <pt x="331" y="34" on="0"/>
        <pt x="252" y="-2" on="0"/>
        <pt x="154" y="-29" on="0"/>
        <pt x="94" y="-36" on="1"/>
        <pt x="82" y="15" on="0"/>
        <pt x="61" y="115" on="0"/>
        <pt x="52" y="166" on="1"/>
        <pt x="140" y="185" on="0"/>
        <pt x="258" y="246" on="0"/>
        <pt x="300" y="292" on="1"/>
        <pt x="455" y="461" on="1"/>
        <pt x="455" y="823" on="1"/>
        <pt x="227" y="823" on="1"/>
        <pt x="227" y="1040" on="1"/>
      </contour>
    </TTGlyph>
    <TTGlyph name="afii57667" xMin="103" yMin="0" xMax="1066" yMax="1081">
      <contour>
        <pt x="427" y="823" on="1"/>
        <pt x="376" y="823" on="0"/>
        <pt x="298" y="826" on="0"/>
        <pt x="226" y="835" on="0"/>
        <pt x="151" y="854" on="0"/>
        <pt x="103" y="871" on="1"/>
        <pt x="119" y="925" on="0"/>
        <pt x="152" y="1030" on="0"/>
        <pt x="171" y="1081" on="1"/>
        <pt x="222" y="1067" on="0"/>
        <pt x="295" y="1051" on="0"/>
        <pt x="362" y="1042" on="0"/>
        <pt x="436" y="1040" on="0"/>
        <pt x="489" y="1040" on="1"/>
        <pt x="1066" y="1040" on="1"/>
        <pt x="1066" y="823" on="1"/>
        <pt x="864" y="823" on="1"/>
        <pt x="864" y="0" on="1"/>
        <pt x="591" y="0" on="1"/>
        <pt x="591" y="823" on="1"/>
      </contour>
    </TTGlyph>
    <TTGlyph name="afii57668" xMin="133" yMin="0" xMax="1075" yMax="1081">
      <contour>
        <pt x="457" y="823" on="1"/>
        <pt x="406" y="823" on="0"/>
        <pt x="328" y="826" on="0"/>
        <pt x="256" y="835" on="0"/>
        <pt x="181" y="854" on="0"/>
        <pt x="133" y="871" on="1"/>
        <pt x="149" y="925" on="0"/>
        <pt x="182" y="1030" on="0"/>
        <pt x="201" y="1081" on="1"/>
        <pt x="252" y="1067" on="0"/>
        <pt x="325" y="1051" on="0"/>
        <pt x="392" y="1042" on="0"/>
        <pt x="466" y="1040" on="0"/>
        <pt x="519" y="1040" on="1"/>
        <pt x="733" y="1040" on="1"/>
        <pt x="796" y="1040" on="0"/>
        <pt x="918" y="1012" on="0"/>
        <pt x="967" y="973" on="1"/>
        <pt x="1015" y="935" on="0"/>
        <pt x="1075" y="801" on="0"/>
        <pt x="1075" y="693" on="1"/>
        <pt x="1075" y="0" on="1"/>
        <pt x="802" y="0" on="1"/>
        <pt x="802" y="623" on="1"/>
        <pt x="802" y="685" on="0"/>
        <pt x="791" y="763" on="0"/>
        <pt x="753" y="807" on="0"/>
        <pt x="681" y="823" on="0"/>
        <pt x="621" y="823" on="1"/>
      </contour>
      <contour>
        <pt x="143" y="304" on="1"/>
        <pt x="143" y="347" on="0"/>
        <pt x="145" y="418" on="0"/>
        <pt x="150" y="484" on="0"/>
        <pt x="160" y="548" on="0"/>
        <pt x="169" y="585" on="1"/>
        <pt x="236" y="578" on="0"/>
        <pt x="370" y="557" on="0"/>
        <pt x="437" y="540" on="1"/>
        <pt x="425" y="484" on="0"/>
        <pt x="416" y="371" on="0"/>
        <pt x="416" y="297" on="1"/>
        <pt x="416" y="0" on="1"/>
        <pt x="143" y="0" on="1"/>
      </contour>
    </TTGlyph>
</ttFont>
